STARTFONT 2.1
COMMENT
COMMENT Converted from OpenType font "TerminessNerdFontMono-Italic.ttf" by "otf2bdf 3.0".
COMMENT
FONT -FreeType-Terminess Nerd Font Mono-Normal-I-Normal--14-140-84-74-P-79-ISO10646-1
SIZE 14 84 74
FONTBOUNDINGBOX 14 16 -3 -3
STARTPROPERTIES 19
FOUNDRY "FreeType"
FAMILY_NAME "Terminess Nerd Font Mono"
WEIGHT_NAME "Normal"
SLANT "I"
SETWIDTH_NAME "Normal"
ADD_STYLE_NAME ""
PIXEL_SIZE 14
POINT_SIZE 140
RESOLUTION_X 84
RESOLUTION_Y 74
SPACING "P"
AVERAGE_WIDTH 79
CHARSET_REGISTRY "ISO10646"
CHARSET_ENCODING "1"
FONT_ASCENT 12
FONT_DESCENT 2
COPYRIGHT "Copyright (C) 2020 Dimitar Toshkov Zhekov; Copyright (C) 2022 Tilman Blumenbach; Licensed under the SIL Open Font License, Version 1.1"
_OTF_FONTFILE "TerminessNerdFontMono-Italic.ttf"
_OTF_PSNAME "TerminessNFM-Italic"
ENDPROPERTIES
CHARS 3620
STARTCHAR 0000
ENCODING 0
SWIDTH 555 0
DWIDTH 8 0
BBX 10 9 -1 0
BITMAP
18C0
1080
0000
2000
2100
0000
4200
4200
E600
ENDCHAR
STARTCHAR 0020
ENCODING 32
SWIDTH 555 0
DWIDTH 8 0
BBX 0 0 0 0
BITMAP
ENDCHAR
STARTCHAR 0021
ENCODING 33
SWIDTH 555 0
DWIDTH 8 0
BBX 4 9 2 0
BITMAP
10
10
20
20
20
40
00
C0
80
ENDCHAR
STARTCHAR 0022
ENCODING 34
SWIDTH 555 0
DWIDTH 8 0
BBX 5 3 3 7
BITMAP
48
48
90
ENDCHAR
STARTCHAR 0023
ENCODING 35
SWIDTH 555 0
DWIDTH 8 0
BBX 7 9 1 0
BITMAP
22
24
7E
44
48
C8
B0
90
90
ENDCHAR
STARTCHAR 0024
ENCODING 36
SWIDTH 555 0
DWIDTH 8 0
BBX 8 11 0 -1
BITMAP
04
0F
35
28
28
3E
12
94
FC
20
20
ENDCHAR
STARTCHAR 0025
ENCODING 37
SWIDTH 555 0
DWIDTH 8 0
BBX 8 9 0 0
BITMAP
1D
2A
14
08
10
20
5C
B4
18
ENDCHAR
STARTCHAR 0026
ENCODING 38
SWIDTH 555 0
DWIDTH 8 0
BBX 7 9 0 0
BITMAP
1E
22
24
38
7A
CC
88
98
EC
ENDCHAR
STARTCHAR 0027
ENCODING 39
SWIDTH 555 0
DWIDTH 8 0
BBX 2 3 5 7
BITMAP
C0
80
80
ENDCHAR
STARTCHAR 0028
ENCODING 40
SWIDTH 555 0
DWIDTH 8 0
BBX 5 9 2 0
BITMAP
18
30
40
40
40
80
80
C0
40
ENDCHAR
STARTCHAR 0029
ENCODING 41
SWIDTH 555 0
DWIDTH 8 0
BBX 5 9 1 0
BITMAP
18
08
08
08
08
10
30
40
80
ENDCHAR
STARTCHAR 002A
ENCODING 42
SWIDTH 555 0
DWIDTH 8 0
BBX 7 5 0 2
BITMAP
36
18
FE
38
CC
ENDCHAR
STARTCHAR 002B
ENCODING 43
SWIDTH 555 0
DWIDTH 8 0
BBX 6 5 1 2
BITMAP
10
10
FC
20
20
ENDCHAR
STARTCHAR 002C
ENCODING 44
SWIDTH 555 0
DWIDTH 8 0
BBX 3 3 1 -1
BITMAP
20
40
80
ENDCHAR
STARTCHAR 002D
ENCODING 45
SWIDTH 555 0
DWIDTH 8 0
BBX 6 1 1 4
BITMAP
FC
ENDCHAR
STARTCHAR 002E
ENCODING 46
SWIDTH 555 0
DWIDTH 8 0
BBX 2 2 2 0
BITMAP
C0
80
ENDCHAR
STARTCHAR 002F
ENCODING 47
SWIDTH 555 0
DWIDTH 8 0
BBX 8 8 0 0
BITMAP
01
02
04
08
10
20
40
80
ENDCHAR
STARTCHAR 0030
ENCODING 48
SWIDTH 555 0
DWIDTH 8 0
BBX 8 9 0 0
BITMAP
1F
21
23
45
5A
62
84
84
F8
ENDCHAR
STARTCHAR 0031
ENCODING 49
SWIDTH 555 0
DWIDTH 8 0
BBX 6 9 0 0
BITMAP
0C
1C
08
08
08
10
10
20
F8
ENDCHAR
STARTCHAR 0032
ENCODING 50
SWIDTH 555 0
DWIDTH 8 0
BBX 9 9 -1 0
BITMAP
0F80
1080
1080
0180
0200
0C00
1000
6000
FE00
ENDCHAR
STARTCHAR 0033
ENCODING 51
SWIDTH 555 0
DWIDTH 8 0
BBX 8 9 0 0
BITMAP
1F
21
01
03
1E
02
84
84
F8
ENDCHAR
STARTCHAR 0034
ENCODING 52
SWIDTH 555 0
DWIDTH 8 0
BBX 9 9 0 0
BITMAP
0180
0700
0900
3200
6200
F600
0C00
0400
0400
ENDCHAR
STARTCHAR 0035
ENCODING 53
SWIDTH 555 0
DWIDTH 8 0
BBX 9 9 0 0
BITMAP
3F80
2000
2000
7E00
0200
0200
0400
8400
F800
ENDCHAR
STARTCHAR 0036
ENCODING 54
SWIDTH 555 0
DWIDTH 8 0
BBX 8 9 0 0
BITMAP
1F
20
20
7E
42
42
84
84
F8
ENDCHAR
STARTCHAR 0037
ENCODING 55
SWIDTH 555 0
DWIDTH 8 0
BBX 7 9 2 0
BITMAP
FE
84
08
10
20
40
40
80
80
ENDCHAR
STARTCHAR 0038
ENCODING 56
SWIDTH 555 0
DWIDTH 8 0
BBX 8 9 0 0
BITMAP
1F
21
21
23
7E
42
84
84
F8
ENDCHAR
STARTCHAR 0039
ENCODING 57
SWIDTH 555 0
DWIDTH 8 0
BBX 8 9 0 0
BITMAP
1F
21
21
63
3E
02
04
04
F8
ENDCHAR
STARTCHAR 003A
ENCODING 58
SWIDTH 555 0
DWIDTH 8 0
BBX 3 7 2 0
BITMAP
20
20
00
00
00
C0
80
ENDCHAR
STARTCHAR 003B
ENCODING 59
SWIDTH 555 0
DWIDTH 8 0
BBX 4 8 1 -1
BITMAP
10
10
00
00
00
20
40
80
ENDCHAR
STARTCHAR 003C
ENCODING 60
SWIDTH 555 0
DWIDTH 8 0
BBX 7 9 1 0
BITMAP
06
08
30
40
C0
40
20
30
18
ENDCHAR
STARTCHAR 003D
ENCODING 61
SWIDTH 555 0
DWIDTH 8 0
BBX 8 4 0 3
BITMAP
3F
00
00
FE
ENDCHAR
STARTCHAR 003E
ENCODING 62
SWIDTH 555 0
DWIDTH 8 0
BBX 8 9 -1 0
BITMAP
0C
04
02
03
01
06
08
30
C0
ENDCHAR
STARTCHAR 003F
ENCODING 63
SWIDTH 555 0
DWIDTH 8 0
BBX 6 9 2 0
BITMAP
7C
84
84
18
20
40
00
C0
80
ENDCHAR
STARTCHAR 0040
ENCODING 64
SWIDTH 555 0
DWIDTH 8 0
BBX 9 9 -1 0
BITMAP
1F80
1080
2F80
2900
4900
5300
5E00
C000
7E00
ENDCHAR
STARTCHAR 0041
ENCODING 65
SWIDTH 555 0
DWIDTH 8 0
BBX 9 9 -1 0
BITMAP
0F80
1080
1080
2180
3F00
2100
4200
4200
C200
ENDCHAR
STARTCHAR 0042
ENCODING 66
SWIDTH 555 0
DWIDTH 8 0
BBX 9 9 -1 0
BITMAP
1F80
1080
1080
3F00
2300
2100
4200
4200
FC00
ENDCHAR
STARTCHAR 0043
ENCODING 67
SWIDTH 555 0
DWIDTH 8 0
BBX 8 9 0 0
BITMAP
1F
21
20
40
40
40
84
84
F8
ENDCHAR
STARTCHAR 0044
ENCODING 68
SWIDTH 555 0
DWIDTH 8 0
BBX 9 9 -1 0
BITMAP
1F80
1080
1080
2180
2100
2100
4200
4600
F800
ENDCHAR
STARTCHAR 0045
ENCODING 69
SWIDTH 555 0
DWIDTH 8 0
BBX 10 9 -1 0
BITMAP
1FC0
1000
1000
3000
3E00
2000
4000
4000
FE00
ENDCHAR
STARTCHAR 0046
ENCODING 70
SWIDTH 555 0
DWIDTH 8 0
BBX 10 9 -1 0
BITMAP
1FC0
1000
1000
3000
3E00
2000
4000
4000
8000
ENDCHAR
STARTCHAR 0047
ENCODING 71
SWIDTH 555 0
DWIDTH 8 0
BBX 8 9 0 0
BITMAP
1F
21
20
40
4E
42
84
84
F8
ENDCHAR
STARTCHAR 0048
ENCODING 72
SWIDTH 555 0
DWIDTH 8 0
BBX 10 9 -1 0
BITMAP
1040
1080
1080
3100
3F00
2100
4200
4200
8200
ENDCHAR
STARTCHAR 0049
ENCODING 73
SWIDTH 555 0
DWIDTH 8 0
BBX 6 9 1 0
BITMAP
1C
08
10
10
10
20
20
60
E0
ENDCHAR
STARTCHAR 004A
ENCODING 74
SWIDTH 555 0
DWIDTH 8 0
BBX 9 9 0 0
BITMAP
0380
0100
0200
0200
0200
0400
8400
8C00
F000
ENDCHAR
STARTCHAR 004B
ENCODING 75
SWIDTH 555 0
DWIDTH 8 0
BBX 10 9 -1 0
BITMAP
10C0
1300
1600
3800
3000
3800
4C00
4400
8200
ENDCHAR
STARTCHAR 004C
ENCODING 76
SWIDTH 555 0
DWIDTH 8 0
BBX 7 9 -1 0
BITMAP
18
10
10
20
20
20
40
40
FE
ENDCHAR
STARTCHAR 004D
ENCODING 77
SWIDTH 555 0
DWIDTH 8 0
BBX 10 9 -1 0
BITMAP
10C0
1980
2E80
2500
4100
4100
4200
8200
8200
ENDCHAR
STARTCHAR 004E
ENCODING 78
SWIDTH 555 0
DWIDTH 8 0
BBX 10 9 -1 0
BITMAP
1040
1080
1880
2900
2500
2700
4200
4200
8200
ENDCHAR
STARTCHAR 004F
ENCODING 79
SWIDTH 555 0
DWIDTH 8 0
BBX 8 9 0 0
BITMAP
1F
21
21
41
42
42
84
84
F8
ENDCHAR
STARTCHAR 0050
ENCODING 80
SWIDTH 555 0
DWIDTH 8 0
BBX 9 9 -1 0
BITMAP
1F80
1080
1080
2080
3F00
2000
4000
4000
C000
ENDCHAR
STARTCHAR 0051
ENCODING 81
SWIDTH 555 0
DWIDTH 8 0
BBX 8 10 0 -1
BITMAP
1F
21
21
43
42
42
84
9C
F8
0C
ENDCHAR
STARTCHAR 0052
ENCODING 82
SWIDTH 555 0
DWIDTH 8 0
BBX 9 9 -1 0
BITMAP
1F80
1080
1080
2080
3F00
3800
4C00
4400
8200
ENDCHAR
STARTCHAR 0053
ENCODING 83
SWIDTH 555 0
DWIDTH 8 0
BBX 8 9 0 0
BITMAP
1F
21
20
20
1E
02
84
84
F8
ENDCHAR
STARTCHAR 0054
ENCODING 84
SWIDTH 555 0
DWIDTH 8 0
BBX 7 9 2 0
BITMAP
7E
10
20
20
20
40
40
80
80
ENDCHAR
STARTCHAR 0055
ENCODING 85
SWIDTH 555 0
DWIDTH 8 0
BBX 9 9 0 0
BITMAP
3080
2100
2100
4300
4200
4200
8400
8400
F800
ENDCHAR
STARTCHAR 0056
ENCODING 86
SWIDTH 555 0
DWIDTH 8 0
BBX 7 9 2 0
BITMAP
82
84
8C
88
90
90
A0
C0
80
ENDCHAR
STARTCHAR 0057
ENCODING 87
SWIDTH 555 0
DWIDTH 8 0
BBX 10 9 -1 0
BITMAP
1040
1080
2080
2100
4100
5900
6600
C600
8200
ENDCHAR
STARTCHAR 0058
ENCODING 88
SWIDTH 555 0
DWIDTH 8 0
BBX 9 9 0 0
BITMAP
1080
1100
1200
1C00
1800
2800
4800
8400
0400
ENDCHAR
STARTCHAR 0059
ENCODING 89
SWIDTH 555 0
DWIDTH 8 0
BBX 7 9 2 0
BITMAP
42
44
48
50
60
40
40
80
80
ENDCHAR
STARTCHAR 005A
ENCODING 90
SWIDTH 555 0
DWIDTH 8 0
BBX 10 9 -1 0
BITMAP
0FC0
0080
0180
0200
0C00
1000
6000
4000
FE00
ENDCHAR
STARTCHAR 005B
ENCODING 91
SWIDTH 555 0
DWIDTH 8 0
BBX 7 9 0 0
BITMAP
1E
10
10
20
20
20
40
40
F0
ENDCHAR
STARTCHAR 005C
ENCODING 92
SWIDTH 555 0
DWIDTH 8 0
BBX 2 9 3 0
BITMAP
80
80
80
80
80
40
40
40
40
ENDCHAR
STARTCHAR 005D
ENCODING 93
SWIDTH 555 0
DWIDTH 8 0
BBX 7 9 0 0
BITMAP
0E
02
04
04
04
08
08
10
F0
ENDCHAR
STARTCHAR 005E
ENCODING 94
SWIDTH 555 0
DWIDTH 8 0
BBX 6 3 2 7
BITMAP
18
6C
84
ENDCHAR
STARTCHAR 005F
ENCODING 95
SWIDTH 555 0
DWIDTH 8 0
BBX 6 1 -1 -1
BITMAP
FC
ENDCHAR
STARTCHAR 0060
ENCODING 96
SWIDTH 555 0
DWIDTH 8 0
BBX 2 2 5 9
BITMAP
80
40
ENDCHAR
STARTCHAR 0061
ENCODING 97
SWIDTH 555 0
DWIDTH 8 0
BBX 8 7 0 0
BITMAP
3E
03
02
7E
84
84
7C
ENDCHAR
STARTCHAR 0062
ENCODING 98
SWIDTH 555 0
DWIDTH 8 0
BBX 9 9 -1 0
BITMAP
1000
1000
1F00
2180
2100
2100
4200
4200
FC00
ENDCHAR
STARTCHAR 0063
ENCODING 99
SWIDTH 555 0
DWIDTH 8 0
BBX 8 7 0 0
BITMAP
1E
23
40
40
80
84
F8
ENDCHAR
STARTCHAR 0064
ENCODING 100
SWIDTH 555 0
DWIDTH 8 0
BBX 9 9 0 0
BITMAP
0080
0100
1F00
2200
4200
4200
8400
8400
FC00
ENDCHAR
STARTCHAR 0065
ENCODING 101
SWIDTH 555 0
DWIDTH 8 0
BBX 8 7 0 0
BITMAP
1E
23
42
7E
80
80
FC
ENDCHAR
STARTCHAR 0066
ENCODING 102
SWIDTH 555 0
DWIDTH 8 0
BBX 7 9 2 0
BITMAP
1E
10
F8
20
20
40
40
80
80
ENDCHAR
STARTCHAR 0067
ENCODING 103
SWIDTH 555 0
DWIDTH 8 0
BBX 9 9 -1 -2
BITMAP
0F80
1180
2100
2100
4200
4200
7E00
0400
F800
ENDCHAR
STARTCHAR 0068
ENCODING 104
SWIDTH 555 0
DWIDTH 8 0
BBX 9 9 -1 0
BITMAP
1000
1000
1F00
3180
2100
2100
4200
4200
8200
ENDCHAR
STARTCHAR 0069
ENCODING 105
SWIDTH 555 0
DWIDTH 8 0
BBX 5 9 1 0
BITMAP
08
00
30
10
10
20
20
60
E0
ENDCHAR
STARTCHAR 006A
ENCODING 106
SWIDTH 555 0
DWIDTH 8 0
BBX 8 11 0 -2
BITMAP
01
00
06
02
02
04
04
08
08
98
F0
ENDCHAR
STARTCHAR 006B
ENCODING 107
SWIDTH 555 0
DWIDTH 8 0
BBX 8 9 0 0
BITMAP
10
10
23
24
68
70
50
98
8C
ENDCHAR
STARTCHAR 006C
ENCODING 108
SWIDTH 555 0
DWIDTH 8 0
BBX 5 9 1 0
BITMAP
18
08
10
10
10
20
20
60
E0
ENDCHAR
STARTCHAR 006D
ENCODING 109
SWIDTH 555 0
DWIDTH 8 0
BBX 9 7 -1 0
BITMAP
1F00
3580
2500
2900
4A00
5200
9200
ENDCHAR
STARTCHAR 006E
ENCODING 110
SWIDTH 555 0
DWIDTH 8 0
BBX 9 7 -1 0
BITMAP
1F00
3180
2100
2100
4200
4200
8200
ENDCHAR
STARTCHAR 006F
ENCODING 111
SWIDTH 555 0
DWIDTH 8 0
BBX 8 7 0 0
BITMAP
1E
23
42
42
84
84
F8
ENDCHAR
STARTCHAR 0070
ENCODING 112
SWIDTH 555 0
DWIDTH 8 0
BBX 9 9 -1 -2
BITMAP
1F00
2180
2100
2100
4200
4200
FC00
8000
8000
ENDCHAR
STARTCHAR 0071
ENCODING 113
SWIDTH 555 0
DWIDTH 8 0
BBX 8 9 0 -2
BITMAP
1F
23
42
42
84
84
FC
08
08
ENDCHAR
STARTCHAR 0072
ENCODING 114
SWIDTH 555 0
DWIDTH 8 0
BBX 9 7 -1 0
BITMAP
1780
3800
3000
2000
4000
4000
C000
ENDCHAR
STARTCHAR 0073
ENCODING 115
SWIDTH 555 0
DWIDTH 8 0
BBX 8 7 0 0
BITMAP
1E
27
40
7C
04
C4
78
ENDCHAR
STARTCHAR 0074
ENCODING 116
SWIDTH 555 0
DWIDTH 8 0
BBX 5 9 2 0
BITMAP
30
20
F8
60
40
40
80
80
F0
ENDCHAR
STARTCHAR 0075
ENCODING 117
SWIDTH 555 0
DWIDTH 8 0
BBX 8 7 0 0
BITMAP
21
43
42
42
84
84
FC
ENDCHAR
STARTCHAR 0076
ENCODING 118
SWIDTH 555 0
DWIDTH 8 0
BBX 7 7 1 0
BITMAP
C2
42
44
48
50
60
60
ENDCHAR
STARTCHAR 0077
ENCODING 119
SWIDTH 555 0
DWIDTH 8 0
BBX 7 7 0 0
BITMAP
20
42
4A
52
94
94
F8
ENDCHAR
STARTCHAR 0078
ENCODING 120
SWIDTH 555 0
DWIDTH 8 0
BBX 8 6 0 0
BITMAP
01
23
24
18
38
CC
ENDCHAR
STARTCHAR 0079
ENCODING 121
SWIDTH 555 0
DWIDTH 8 0
BBX 9 9 -1 -2
BITMAP
1080
2180
2100
2100
4200
4200
7E00
0400
F800
ENDCHAR
STARTCHAR 007A
ENCODING 122
SWIDTH 555 0
DWIDTH 8 0
BBX 9 7 -1 0
BITMAP
1F80
0180
0600
0C00
3000
4000
FE00
ENDCHAR
STARTCHAR 007B
ENCODING 123
SWIDTH 555 0
DWIDTH 8 0
BBX 6 9 2 0
BITMAP
1C
20
20
20
C0
40
80
80
E0
ENDCHAR
STARTCHAR 007C
ENCODING 124
SWIDTH 555 0
DWIDTH 8 0
BBX 4 9 2 0
BITMAP
10
10
20
20
20
40
40
80
80
ENDCHAR
STARTCHAR 007D
ENCODING 125
SWIDTH 555 0
DWIDTH 8 0
BBX 6 9 0 0
BITMAP
1C
04
08
08
0C
10
10
30
C0
ENDCHAR
STARTCHAR 007E
ENCODING 126
SWIDTH 555 0
DWIDTH 8 0
BBX 7 3 2 7
BITMAP
72
5C
80
ENDCHAR
STARTCHAR 00A0
ENCODING 160
SWIDTH 555 0
DWIDTH 8 0
BBX 0 0 0 0
BITMAP
ENDCHAR
STARTCHAR 00A1
ENCODING 161
SWIDTH 555 0
DWIDTH 8 0
BBX 4 9 2 0
BITMAP
10
00
20
20
20
40
40
80
80
ENDCHAR
STARTCHAR 00A2
ENCODING 162
SWIDTH 555 0
DWIDTH 8 0
BBX 8 9 0 -1
BITMAP
04
1C
2B
48
50
90
B4
F8
20
ENDCHAR
STARTCHAR 00A3
ENCODING 163
SWIDTH 555 0
DWIDTH 8 0
BBX 9 9 -1 0
BITMAP
0780
0800
0800
0800
3E00
1000
2000
2200
FE00
ENDCHAR
STARTCHAR 00A4
ENCODING 164
SWIDTH 555 0
DWIDTH 8 0
BBX 8 6 0 2
BITMAP
33
1E
22
62
6C
FC
ENDCHAR
STARTCHAR 00A5
ENCODING 165
SWIDTH 555 0
DWIDTH 8 0
BBX 9 9 0 0
BITMAP
1080
1100
1200
1C00
1800
7C00
1000
FC00
2000
ENDCHAR
STARTCHAR 00A6
ENCODING 166
SWIDTH 555 0
DWIDTH 8 0
BBX 4 9 2 0
BITMAP
10
10
20
00
00
40
40
80
80
ENDCHAR
STARTCHAR 00A7
ENCODING 167
SWIDTH 555 0
DWIDTH 8 0
BBX 7 10 0 0
BITMAP
0E
10
10
2C
26
24
28
18
08
F0
ENDCHAR
STARTCHAR 00A8
ENCODING 168
SWIDTH 555 0
DWIDTH 8 0
BBX 5 2 4 10
BITMAP
48
90
ENDCHAR
STARTCHAR 00A9
ENCODING 169
SWIDTH 555 0
DWIDTH 8 0
BBX 8 7 0 1
BITMAP
3F
5F
61
A1
BE
A2
FC
ENDCHAR
STARTCHAR 00AA
ENCODING 170
SWIDTH 555 0
DWIDTH 8 0
BBX 7 7 2 4
BITMAP
3C
02
7C
44
78
00
F8
ENDCHAR
STARTCHAR 00AB
ENCODING 171
SWIDTH 555 0
DWIDTH 8 0
BBX 8 7 0 0
BITMAP
0D
16
6C
B0
58
68
34
ENDCHAR
STARTCHAR 00AC
ENCODING 172
SWIDTH 555 0
DWIDTH 8 0
BBX 6 4 2 3
BITMAP
FC
04
08
08
ENDCHAR
STARTCHAR 00AD
ENCODING 173
SWIDTH 555 0
DWIDTH 8 0
BBX 5 1 2 4
BITMAP
F8
ENDCHAR
STARTCHAR 00AE
ENCODING 174
SWIDTH 555 0
DWIDTH 8 0
BBX 8 7 0 1
BITMAP
3F
7F
67
BD
BA
C6
FC
ENDCHAR
STARTCHAR 00AF
ENCODING 175
SWIDTH 555 0
DWIDTH 8 0
BBX 4 1 4 10
BITMAP
F0
ENDCHAR
STARTCHAR 00B0
ENCODING 176
SWIDTH 555 0
DWIDTH 8 0
BBX 5 3 3 7
BITMAP
78
88
F0
ENDCHAR
STARTCHAR 00B1
ENCODING 177
SWIDTH 555 0
DWIDTH 8 0
BBX 8 7 -1 0
BITMAP
04
04
3F
08
08
00
FE
ENDCHAR
STARTCHAR 00B2
ENCODING 178
SWIDTH 555 0
DWIDTH 8 0
BBX 5 5 3 6
BITMAP
30
48
10
60
F0
ENDCHAR
STARTCHAR 00B3
ENCODING 179
SWIDTH 555 0
DWIDTH 8 0
BBX 5 5 3 6
BITMAP
38
48
30
10
F0
ENDCHAR
STARTCHAR 00B4
ENCODING 180
SWIDTH 555 0
DWIDTH 8 0
BBX 3 2 6 10
BITMAP
60
80
ENDCHAR
STARTCHAR 00B5
ENCODING 181
SWIDTH 555 0
DWIDTH 8 0
BBX 9 9 -1 -2
BITMAP
1080
2180
2100
2100
4200
4600
FA00
8000
8000
ENDCHAR
STARTCHAR 00B6
ENCODING 182
SWIDTH 555 0
DWIDTH 8 0
BBX 8 9 1 0
BITMAP
7F
CA
92
94
74
24
28
48
48
ENDCHAR
STARTCHAR 00B7
ENCODING 183
SWIDTH 555 0
DWIDTH 8 0
BBX 1 2 4 4
BITMAP
80
80
ENDCHAR
STARTCHAR 00B8
ENCODING 184
SWIDTH 555 0
DWIDTH 8 0
BBX 3 2 0 -2
BITMAP
60
C0
ENDCHAR
STARTCHAR 00B9
ENCODING 185
SWIDTH 555 0
DWIDTH 8 0
BBX 4 5 3 6
BITMAP
10
20
20
20
E0
ENDCHAR
STARTCHAR 00BA
ENCODING 186
SWIDTH 555 0
DWIDTH 8 0
BBX 7 7 2 4
BITMAP
3C
62
44
4C
70
00
F8
ENDCHAR
STARTCHAR 00BB
ENCODING 187
SWIDTH 555 0
DWIDTH 8 0
BBX 8 7 -1 0
BITMAP
34
16
0B
0D
1A
6C
90
ENDCHAR
STARTCHAR 00BC
ENCODING 188
SWIDTH 555 0
DWIDTH 8 0
BBX 8 9 0 0
BITMAP
18
10
13
06
1B
36
CA
1C
04
ENDCHAR
STARTCHAR 00BD
ENCODING 189
SWIDTH 555 0
DWIDTH 8 0
BBX 10 9 -1 0
BITMAP
0800
18C0
1300
1400
1800
2700
C100
0600
0E00
ENDCHAR
STARTCHAR 00BE
ENCODING 190
SWIDTH 555 0
DWIDTH 8 0
BBX 9 9 -1 0
BITMAP
1E00
0C00
0480
3D00
0780
0B00
3500
4E00
8200
ENDCHAR
STARTCHAR 00BF
ENCODING 191
SWIDTH 555 0
DWIDTH 8 0
BBX 6 9 0 0
BITMAP
04
00
08
08
30
40
84
84
F8
ENDCHAR
STARTCHAR 00C0
ENCODING 192
SWIDTH 555 0
DWIDTH 8 0
BBX 9 12 -1 0
BITMAP
0200
0300
0000
0F80
1080
1080
2180
3F00
2100
4200
4200
C200
ENDCHAR
STARTCHAR 00C1
ENCODING 193
SWIDTH 555 0
DWIDTH 8 0
BBX 10 12 -1 0
BITMAP
00C0
0100
0000
0F80
1080
1080
2180
3F00
2100
4200
4200
C200
ENDCHAR
STARTCHAR 00C2
ENCODING 194
SWIDTH 555 0
DWIDTH 8 0
BBX 9 12 -1 0
BITMAP
0100
0380
0000
0F80
1080
1080
2180
3F00
2100
4200
4200
C200
ENDCHAR
STARTCHAR 00C3
ENCODING 195
SWIDTH 555 0
DWIDTH 8 0
BBX 10 12 -1 0
BITMAP
0340
0540
0080
0F80
1080
1080
2180
3F00
2100
4200
4200
C200
ENDCHAR
STARTCHAR 00C4
ENCODING 196
SWIDTH 555 0
DWIDTH 8 0
BBX 10 12 -1 0
BITMAP
0240
0480
0000
0F80
1080
1080
2180
3F00
2100
4200
4200
C200
ENDCHAR
STARTCHAR 00C5
ENCODING 197
SWIDTH 555 0
DWIDTH 8 0
BBX 9 12 -1 0
BITMAP
0180
0280
0300
0F80
1080
1080
2100
3F00
2100
4200
4200
C200
ENDCHAR
STARTCHAR 00C6
ENCODING 198
SWIDTH 555 0
DWIDTH 8 0
BBX 11 9 -1 0
BITMAP
1FE0
1200
2200
2200
7F80
4400
4800
8800
8F00
ENDCHAR
STARTCHAR 00C7
ENCODING 199
SWIDTH 555 0
DWIDTH 8 0
BBX 8 11 0 -2
BITMAP
1F
21
20
40
40
40
84
84
78
20
C0
ENDCHAR
STARTCHAR 00C8
ENCODING 200
SWIDTH 555 0
DWIDTH 8 0
BBX 10 12 -1 0
BITMAP
0200
0300
0000
1FC0
1000
1000
3000
3E00
2000
4000
4000
FE00
ENDCHAR
STARTCHAR 00C9
ENCODING 201
SWIDTH 555 0
DWIDTH 8 0
BBX 10 12 -1 0
BITMAP
00C0
0100
0000
1FC0
1000
1000
3000
3E00
2000
4000
4000
FE00
ENDCHAR
STARTCHAR 00CA
ENCODING 202
SWIDTH 555 0
DWIDTH 8 0
BBX 10 12 -1 0
BITMAP
0100
0380
0000
1FC0
1000
1000
3000
3E00
2000
4000
4000
FE00
ENDCHAR
STARTCHAR 00CB
ENCODING 203
SWIDTH 555 0
DWIDTH 8 0
BBX 10 12 -1 0
BITMAP
0240
0480
0000
1FC0
1000
1000
3000
3E00
2000
4000
4000
FE00
ENDCHAR
STARTCHAR 00CC
ENCODING 204
SWIDTH 555 0
DWIDTH 8 0
BBX 6 12 1 0
BITMAP
08
0C
00
1C
08
10
10
10
20
20
60
E0
ENDCHAR
STARTCHAR 00CD
ENCODING 205
SWIDTH 555 0
DWIDTH 8 0
BBX 8 12 1 0
BITMAP
03
04
00
1C
08
10
10
10
20
20
60
E0
ENDCHAR
STARTCHAR 00CE
ENCODING 206
SWIDTH 555 0
DWIDTH 8 0
BBX 7 12 1 0
BITMAP
04
0E
00
1C
08
10
10
10
20
20
60
E0
ENDCHAR
STARTCHAR 00CF
ENCODING 207
SWIDTH 555 0
DWIDTH 8 0
BBX 8 12 1 0
BITMAP
09
12
00
1C
08
10
10
10
20
20
60
E0
ENDCHAR
STARTCHAR 00D0
ENCODING 208
SWIDTH 555 0
DWIDTH 8 0
BBX 9 9 -1 0
BITMAP
1F80
1080
1080
3180
3D00
2100
4200
4600
F800
ENDCHAR
STARTCHAR 00D1
ENCODING 209
SWIDTH 555 0
DWIDTH 8 0
BBX 10 12 -1 0
BITMAP
0340
0540
0080
1040
1080
1880
2900
2500
2700
4200
4200
8200
ENDCHAR
STARTCHAR 00D2
ENCODING 210
SWIDTH 555 0
DWIDTH 8 0
BBX 8 12 0 0
BITMAP
04
06
00
1F
21
21
41
42
42
84
84
F8
ENDCHAR
STARTCHAR 00D3
ENCODING 211
SWIDTH 555 0
DWIDTH 8 0
BBX 9 12 0 0
BITMAP
0180
0200
0000
1F00
2100
2100
4100
4200
4200
8400
8400
F800
ENDCHAR
STARTCHAR 00D4
ENCODING 212
SWIDTH 555 0
DWIDTH 8 0
BBX 8 12 0 0
BITMAP
02
07
00
1F
21
21
41
42
42
84
84
F8
ENDCHAR
STARTCHAR 00D5
ENCODING 213
SWIDTH 555 0
DWIDTH 8 0
BBX 9 12 0 0
BITMAP
0680
0A80
0100
1F00
2100
2100
4100
4200
4200
8400
8400
F800
ENDCHAR
STARTCHAR 00D6
ENCODING 214
SWIDTH 555 0
DWIDTH 8 0
BBX 9 12 0 0
BITMAP
0480
0900
0000
1F00
2100
2100
4100
4200
4200
8400
8400
F800
ENDCHAR
STARTCHAR 00D7
ENCODING 215
SWIDTH 555 0
DWIDTH 8 0
BBX 8 5 0 2
BITMAP
23
34
18
68
C4
ENDCHAR
STARTCHAR 00D8
ENCODING 216
SWIDTH 555 0
DWIDTH 8 0
BBX 9 9 0 0
BITMAP
1F00
2180
2300
4500
5A00
6200
8400
8400
F800
ENDCHAR
STARTCHAR 00D9
ENCODING 217
SWIDTH 555 0
DWIDTH 8 0
BBX 9 12 0 0
BITMAP
0400
0600
0000
3080
2100
2100
4300
4200
4200
8400
8400
F800
ENDCHAR
STARTCHAR 00DA
ENCODING 218
SWIDTH 555 0
DWIDTH 8 0
BBX 9 12 0 0
BITMAP
0180
0200
0000
3080
2100
2100
4300
4200
4200
8400
8400
F800
ENDCHAR
STARTCHAR 00DB
ENCODING 219
SWIDTH 555 0
DWIDTH 8 0
BBX 9 12 0 0
BITMAP
0200
0700
0000
3080
2100
2100
4300
4200
4200
8400
8400
F800
ENDCHAR
STARTCHAR 00DC
ENCODING 220
SWIDTH 555 0
DWIDTH 8 0
BBX 9 12 0 0
BITMAP
0480
0900
0000
3080
2100
2100
4300
4200
4200
8400
8400
F800
ENDCHAR
STARTCHAR 00DD
ENCODING 221
SWIDTH 555 0
DWIDTH 8 0
BBX 7 12 2 0
BITMAP
06
08
00
42
44
48
50
60
40
40
80
80
ENDCHAR
STARTCHAR 00DE
ENCODING 222
SWIDTH 555 0
DWIDTH 8 0
BBX 9 9 -1 0
BITMAP
1000
1000
1F80
2100
2100
2300
7C00
4000
C000
ENDCHAR
STARTCHAR 00DF
ENCODING 223
SWIDTH 555 0
DWIDTH 8 0
BBX 8 9 0 0
BITMAP
1F
21
22
7E
46
42
84
84
78
ENDCHAR
STARTCHAR 00E0
ENCODING 224
SWIDTH 555 0
DWIDTH 8 0
BBX 8 9 0 0
BITMAP
0C
04
3E
03
02
7E
84
84
7C
ENDCHAR
STARTCHAR 00E1
ENCODING 225
SWIDTH 555 0
DWIDTH 8 0
BBX 8 9 0 0
BITMAP
06
00
3E
03
02
7E
84
84
7C
ENDCHAR
STARTCHAR 00E2
ENCODING 226
SWIDTH 555 0
DWIDTH 8 0
BBX 8 9 0 0
BITMAP
0E
00
3E
03
02
7E
84
84
7C
ENDCHAR
STARTCHAR 00E3
ENCODING 227
SWIDTH 555 0
DWIDTH 8 0
BBX 8 9 0 0
BITMAP
1D
16
3E
03
02
7E
84
84
7C
ENDCHAR
STARTCHAR 00E4
ENCODING 228
SWIDTH 555 0
DWIDTH 8 0
BBX 8 9 0 0
BITMAP
11
00
3E
03
02
7E
84
84
7C
ENDCHAR
STARTCHAR 00E5
ENCODING 229
SWIDTH 555 0
DWIDTH 8 0
BBX 8 9 0 0
BITMAP
0E
0C
3E
03
02
7E
84
84
7C
ENDCHAR
STARTCHAR 00E6
ENCODING 230
SWIDTH 555 0
DWIDTH 8 0
BBX 9 7 -1 0
BITMAP
1F00
0880
0480
7F00
4800
CB00
7E00
ENDCHAR
STARTCHAR 00E7
ENCODING 231
SWIDTH 555 0
DWIDTH 8 0
BBX 8 9 0 -2
BITMAP
1E
23
40
40
80
84
78
20
C0
ENDCHAR
STARTCHAR 00E8
ENCODING 232
SWIDTH 555 0
DWIDTH 8 0
BBX 8 9 0 0
BITMAP
0C
04
1E
23
42
7E
80
80
FC
ENDCHAR
STARTCHAR 00E9
ENCODING 233
SWIDTH 555 0
DWIDTH 8 0
BBX 8 9 0 0
BITMAP
06
00
1E
23
42
7E
80
80
FC
ENDCHAR
STARTCHAR 00EA
ENCODING 234
SWIDTH 555 0
DWIDTH 8 0
BBX 8 9 0 0
BITMAP
0E
00
1E
23
42
7E
80
80
FC
ENDCHAR
STARTCHAR 00EB
ENCODING 235
SWIDTH 555 0
DWIDTH 8 0
BBX 8 9 0 0
BITMAP
11
00
1E
23
42
7E
80
80
FC
ENDCHAR
STARTCHAR 00EC
ENCODING 236
SWIDTH 555 0
DWIDTH 8 0
BBX 5 9 1 0
BITMAP
10
18
30
10
10
20
20
60
E0
ENDCHAR
STARTCHAR 00ED
ENCODING 237
SWIDTH 555 0
DWIDTH 8 0
BBX 6 9 1 0
BITMAP
0C
00
30
10
10
20
20
60
E0
ENDCHAR
STARTCHAR 00EE
ENCODING 238
SWIDTH 555 0
DWIDTH 8 0
BBX 6 9 1 0
BITMAP
1C
00
30
10
10
20
20
60
E0
ENDCHAR
STARTCHAR 00EF
ENCODING 239
SWIDTH 555 0
DWIDTH 8 0
BBX 7 9 1 0
BITMAP
22
00
30
10
10
20
20
60
E0
ENDCHAR
STARTCHAR 00F0
ENCODING 240
SWIDTH 555 0
DWIDTH 8 0
BBX 8 9 0 0
BITMAP
1C
0C
1E
23
42
42
84
84
F8
ENDCHAR
STARTCHAR 00F1
ENCODING 241
SWIDTH 555 0
DWIDTH 8 0
BBX 9 9 -1 0
BITMAP
0E80
0B00
1F00
3180
2100
2100
4200
4200
8200
ENDCHAR
STARTCHAR 00F2
ENCODING 242
SWIDTH 555 0
DWIDTH 8 0
BBX 8 9 0 0
BITMAP
0C
04
1E
23
42
42
84
84
F8
ENDCHAR
STARTCHAR 00F3
ENCODING 243
SWIDTH 555 0
DWIDTH 8 0
BBX 8 9 0 0
BITMAP
06
00
1E
23
42
42
84
84
F8
ENDCHAR
STARTCHAR 00F4
ENCODING 244
SWIDTH 555 0
DWIDTH 8 0
BBX 8 9 0 0
BITMAP
0E
00
1E
23
42
42
84
84
F8
ENDCHAR
STARTCHAR 00F5
ENCODING 245
SWIDTH 555 0
DWIDTH 8 0
BBX 8 9 0 0
BITMAP
1D
16
1E
23
42
42
84
84
F8
ENDCHAR
STARTCHAR 00F6
ENCODING 246
SWIDTH 555 0
DWIDTH 8 0
BBX 8 9 0 0
BITMAP
11
00
1E
23
42
42
84
84
F8
ENDCHAR
STARTCHAR 00F7
ENCODING 247
SWIDTH 555 0
DWIDTH 8 0
BBX 6 6 1 1
BITMAP
08
10
00
FC
00
20
ENDCHAR
STARTCHAR 00F8
ENCODING 248
SWIDTH 555 0
DWIDTH 8 0
BBX 9 7 -1 0
BITMAP
0F00
1180
2300
2D00
5200
6200
FC00
ENDCHAR
STARTCHAR 00F9
ENCODING 249
SWIDTH 555 0
DWIDTH 8 0
BBX 8 9 0 0
BITMAP
0C
04
21
43
42
42
84
84
FC
ENDCHAR
STARTCHAR 00FA
ENCODING 250
SWIDTH 555 0
DWIDTH 8 0
BBX 8 9 0 0
BITMAP
06
00
21
43
42
42
84
84
FC
ENDCHAR
STARTCHAR 00FB
ENCODING 251
SWIDTH 555 0
DWIDTH 8 0
BBX 8 9 0 0
BITMAP
0E
00
21
43
42
42
84
84
FC
ENDCHAR
STARTCHAR 00FC
ENCODING 252
SWIDTH 555 0
DWIDTH 8 0
BBX 8 9 0 0
BITMAP
11
00
21
43
42
42
84
84
FC
ENDCHAR
STARTCHAR 00FD
ENCODING 253
SWIDTH 555 0
DWIDTH 8 0
BBX 9 11 -1 -2
BITMAP
0300
0000
1080
2180
2100
2100
4200
4200
7E00
0400
F800
ENDCHAR
STARTCHAR 00FE
ENCODING 254
SWIDTH 555 0
DWIDTH 8 0
BBX 9 11 -1 -2
BITMAP
1000
1000
1F00
2180
2100
2100
4200
4200
FC00
8000
8000
ENDCHAR
STARTCHAR 00FF
ENCODING 255
SWIDTH 555 0
DWIDTH 8 0
BBX 9 11 -1 -2
BITMAP
0880
0000
1080
2180
2100
2100
4200
4200
7E00
0400
F800
ENDCHAR
STARTCHAR 0100
ENCODING 256
SWIDTH 555 0
DWIDTH 8 0
BBX 9 11 -1 0
BITMAP
0780
0000
0F80
1080
1080
2180
3F00
2100
4200
4200
C200
ENDCHAR
STARTCHAR 0101
ENCODING 257
SWIDTH 555 0
DWIDTH 8 0
BBX 8 8 0 0
BITMAP
1E
3E
03
02
7E
84
84
7C
ENDCHAR
STARTCHAR 0102
ENCODING 258
SWIDTH 555 0
DWIDTH 8 0
BBX 9 12 -1 0
BITMAP
0200
0380
0000
0F80
1080
1080
2180
3F00
2100
4200
4200
C200
ENDCHAR
STARTCHAR 0103
ENCODING 259
SWIDTH 555 0
DWIDTH 8 0
BBX 8 9 0 1
BITMAP
09
0E
3E
03
02
7E
84
84
7C
ENDCHAR
STARTCHAR 0104
ENCODING 260
SWIDTH 555 0
DWIDTH 8 0
BBX 9 11 -1 -2
BITMAP
0F80
1080
1080
2180
3F00
2100
4200
4200
C200
0C00
0C00
ENDCHAR
STARTCHAR 0105
ENCODING 261
SWIDTH 555 0
DWIDTH 8 0
BBX 8 9 0 -2
BITMAP
3E
03
02
7E
84
84
FC
10
18
ENDCHAR
STARTCHAR 0106
ENCODING 262
SWIDTH 555 0
DWIDTH 8 0
BBX 9 12 0 0
BITMAP
0180
0200
0000
1F00
2100
2000
4000
4000
4000
8400
8400
F800
ENDCHAR
STARTCHAR 0107
ENCODING 263
SWIDTH 555 0
DWIDTH 8 0
BBX 8 9 0 0
BITMAP
06
00
1E
23
40
40
80
84
F8
ENDCHAR
STARTCHAR 0108
ENCODING 264
SWIDTH 555 0
DWIDTH 8 0
BBX 8 12 0 0
BITMAP
02
07
00
1F
21
20
40
40
40
84
84
F8
ENDCHAR
STARTCHAR 0109
ENCODING 265
SWIDTH 555 0
DWIDTH 8 0
BBX 8 9 0 0
BITMAP
0E
00
1E
23
40
40
80
84
F8
ENDCHAR
STARTCHAR 010A
ENCODING 266
SWIDTH 555 0
DWIDTH 8 0
BBX 8 12 0 0
BITMAP
02
02
00
1F
21
20
40
40
40
84
84
F8
ENDCHAR
STARTCHAR 010B
ENCODING 267
SWIDTH 555 0
DWIDTH 8 0
BBX 8 9 0 0
BITMAP
04
00
1E
23
40
40
80
84
F8
ENDCHAR
STARTCHAR 010C
ENCODING 268
SWIDTH 555 0
DWIDTH 8 0
BBX 8 11 0 0
BITMAP
07
00
1F
21
20
40
40
40
84
84
F8
ENDCHAR
STARTCHAR 010D
ENCODING 269
SWIDTH 555 0
DWIDTH 8 0
BBX 8 9 0 0
BITMAP
0E
04
1E
23
40
40
80
84
F8
ENDCHAR
STARTCHAR 010E
ENCODING 270
SWIDTH 555 0
DWIDTH 8 0
BBX 9 11 -1 0
BITMAP
0380
0000
1F80
1080
1080
2180
2100
2100
4200
4600
F800
ENDCHAR
STARTCHAR 010F
ENCODING 271
SWIDTH 555 0
DWIDTH 8 0
BBX 9 11 0 0
BITMAP
0700
0000
0080
0100
1F00
2200
4200
4200
8400
8400
FC00
ENDCHAR
STARTCHAR 0110
ENCODING 272
SWIDTH 555 0
DWIDTH 8 0
BBX 9 9 -1 0
BITMAP
1F80
1080
1080
3180
3D00
2100
4200
4600
F800
ENDCHAR
STARTCHAR 0111
ENCODING 273
SWIDTH 555 0
DWIDTH 8 0
BBX 9 9 0 0
BITMAP
0080
0780
1F00
2300
4200
4200
8400
8400
FC00
ENDCHAR
STARTCHAR 0112
ENCODING 274
SWIDTH 555 0
DWIDTH 8 0
BBX 10 11 -1 0
BITMAP
0780
0000
1FC0
1000
1000
3000
3E00
2000
4000
4000
FE00
ENDCHAR
STARTCHAR 0113
ENCODING 275
SWIDTH 555 0
DWIDTH 8 0
BBX 8 8 0 0
BITMAP
1E
1E
23
42
7E
80
80
FC
ENDCHAR
STARTCHAR 0114
ENCODING 276
SWIDTH 555 0
DWIDTH 8 0
BBX 10 12 -1 0
BITMAP
0200
0380
0000
1FC0
1000
1000
3000
3E00
2000
4000
4000
FE00
ENDCHAR
STARTCHAR 0115
ENCODING 277
SWIDTH 555 0
DWIDTH 8 0
BBX 8 9 0 1
BITMAP
09
0E
1E
23
42
7E
80
80
FC
ENDCHAR
STARTCHAR 0116
ENCODING 278
SWIDTH 555 0
DWIDTH 8 0
BBX 10 12 -1 0
BITMAP
0100
0100
0000
1FC0
1000
1000
3000
3E00
2000
4000
4000
FE00
ENDCHAR
STARTCHAR 0117
ENCODING 279
SWIDTH 555 0
DWIDTH 8 0
BBX 8 9 0 0
BITMAP
04
00
1E
23
42
7E
80
80
FC
ENDCHAR
STARTCHAR 0118
ENCODING 280
SWIDTH 555 0
DWIDTH 8 0
BBX 10 11 -1 -2
BITMAP
1FC0
1000
1000
3000
3E00
2000
4000
4000
FE00
0800
0C00
ENDCHAR
STARTCHAR 0119
ENCODING 281
SWIDTH 555 0
DWIDTH 8 0
BBX 8 9 0 -2
BITMAP
1E
23
42
7E
80
80
7C
40
60
ENDCHAR
STARTCHAR 011A
ENCODING 282
SWIDTH 555 0
DWIDTH 8 0
BBX 10 11 -1 0
BITMAP
0380
0000
1FC0
1000
1000
3000
3E00
2000
4000
4000
FE00
ENDCHAR
STARTCHAR 011B
ENCODING 283
SWIDTH 555 0
DWIDTH 8 0
BBX 8 9 0 0
BITMAP
0E
04
1E
23
42
7E
80
80
FC
ENDCHAR
STARTCHAR 011C
ENCODING 284
SWIDTH 555 0
DWIDTH 8 0
BBX 8 12 0 0
BITMAP
02
07
00
1F
21
20
40
4E
42
84
84
F8
ENDCHAR
STARTCHAR 011D
ENCODING 285
SWIDTH 555 0
DWIDTH 8 0
BBX 9 11 -1 -2
BITMAP
0700
0000
0F80
1180
2100
2100
4200
4200
7E00
0400
F800
ENDCHAR
STARTCHAR 011E
ENCODING 286
SWIDTH 555 0
DWIDTH 8 0
BBX 8 12 0 0
BITMAP
04
07
00
1F
21
20
40
4E
42
84
84
F8
ENDCHAR
STARTCHAR 011F
ENCODING 287
SWIDTH 555 0
DWIDTH 8 0
BBX 9 11 -1 -1
BITMAP
0480
0700
0F80
1180
2100
2100
4200
4200
7E00
0400
F800
ENDCHAR
STARTCHAR 0120
ENCODING 288
SWIDTH 555 0
DWIDTH 8 0
BBX 8 12 0 0
BITMAP
02
02
00
1F
21
20
40
4E
42
84
84
F8
ENDCHAR
STARTCHAR 0121
ENCODING 289
SWIDTH 555 0
DWIDTH 8 0
BBX 9 11 -1 -2
BITMAP
0300
0000
0F80
1180
2100
2100
4200
4200
7E00
0400
F800
ENDCHAR
STARTCHAR 0122
ENCODING 290
SWIDTH 555 0
DWIDTH 8 0
BBX 8 11 0 -2
BITMAP
1F
21
20
40
4E
42
84
84
F8
20
C0
ENDCHAR
STARTCHAR 0123
ENCODING 291
SWIDTH 555 0
DWIDTH 8 0
BBX 9 11 -1 -2
BITMAP
0100
0200
0F80
1180
2100
2100
4200
4200
7E00
0400
F800
ENDCHAR
STARTCHAR 0124
ENCODING 292
SWIDTH 555 0
DWIDTH 8 0
BBX 10 12 -1 0
BITMAP
0100
0380
0000
1040
1080
1080
3100
3F00
2100
4200
4200
8200
ENDCHAR
STARTCHAR 0125
ENCODING 293
SWIDTH 555 0
DWIDTH 8 0
BBX 9 12 -1 0
BITMAP
0100
0380
0000
1000
1000
1F00
3180
2100
2100
4200
4200
8200
ENDCHAR
STARTCHAR 0126
ENCODING 294
SWIDTH 555 0
DWIDTH 8 0
BBX 10 9 -1 0
BITMAP
0840
1FC0
1080
3100
3F00
2100
4200
4200
8200
ENDCHAR
STARTCHAR 0127
ENCODING 295
SWIDTH 555 0
DWIDTH 8 0
BBX 9 9 -1 0
BITMAP
1800
3E00
1F00
3180
2100
2100
4200
4200
8200
ENDCHAR
STARTCHAR 0128
ENCODING 296
SWIDTH 555 0
DWIDTH 8 0
BBX 8 12 1 0
BITMAP
0D
15
02
1C
08
10
10
10
20
20
60
E0
ENDCHAR
STARTCHAR 0129
ENCODING 297
SWIDTH 555 0
DWIDTH 8 0
BBX 7 9 1 0
BITMAP
3A
2C
30
10
10
20
20
60
E0
ENDCHAR
STARTCHAR 012A
ENCODING 298
SWIDTH 555 0
DWIDTH 8 0
BBX 7 11 1 0
BITMAP
1E
00
1C
08
10
10
10
20
20
60
E0
ENDCHAR
STARTCHAR 012B
ENCODING 299
SWIDTH 555 0
DWIDTH 8 0
BBX 6 8 1 0
BITMAP
3C
30
10
10
20
20
60
E0
ENDCHAR
STARTCHAR 012C
ENCODING 300
SWIDTH 555 0
DWIDTH 8 0
BBX 7 12 1 0
BITMAP
08
0E
00
1C
08
10
10
10
20
20
60
E0
ENDCHAR
STARTCHAR 012D
ENCODING 301
SWIDTH 555 0
DWIDTH 8 0
BBX 7 9 1 1
BITMAP
12
1C
30
10
10
20
20
60
E0
ENDCHAR
STARTCHAR 012E
ENCODING 302
SWIDTH 555 0
DWIDTH 8 0
BBX 6 11 1 -2
BITMAP
1C
08
10
10
10
20
20
60
E0
80
C0
ENDCHAR
STARTCHAR 012F
ENCODING 303
SWIDTH 555 0
DWIDTH 8 0
BBX 5 11 1 -2
BITMAP
08
00
30
10
10
20
20
60
E0
80
C0
ENDCHAR
STARTCHAR 0130
ENCODING 304
SWIDTH 555 0
DWIDTH 8 0
BBX 6 12 1 0
BITMAP
04
04
00
1C
08
10
10
10
20
20
60
E0
ENDCHAR
STARTCHAR 0131
ENCODING 305
SWIDTH 555 0
DWIDTH 8 0
BBX 4 7 1 0
BITMAP
30
10
10
20
20
60
E0
ENDCHAR
STARTCHAR 0132
ENCODING 306
SWIDTH 555 0
DWIDTH 8 0
BBX 11 9 -2 0
BITMAP
0860
0840
1040
1080
2080
2080
2900
6900
E600
ENDCHAR
STARTCHAR 0133
ENCODING 307
SWIDTH 555 0
DWIDTH 8 0
BBX 10 11 -1 -2
BITMAP
1040
0000
3180
2080
2080
2100
4100
4200
C200
1600
1C00
ENDCHAR
STARTCHAR 0134
ENCODING 308
SWIDTH 555 0
DWIDTH 8 0
BBX 10 12 0 0
BITMAP
0080
01C0
0000
0380
0100
0200
0200
0200
0400
8400
8C00
F000
ENDCHAR
STARTCHAR 0135
ENCODING 309
SWIDTH 555 0
DWIDTH 8 0
BBX 9 11 0 -2
BITMAP
0380
0000
0600
0200
0200
0400
0400
0800
0800
9800
F000
ENDCHAR
STARTCHAR 0136
ENCODING 310
SWIDTH 555 0
DWIDTH 8 0
BBX 10 11 -1 -2
BITMAP
10C0
1300
1600
3800
3000
3800
4C00
4400
8200
1000
6000
ENDCHAR
STARTCHAR 0137
ENCODING 311
SWIDTH 555 0
DWIDTH 8 0
BBX 8 11 0 -2
BITMAP
10
10
23
24
68
70
50
98
8C
20
C0
ENDCHAR
STARTCHAR 0138
ENCODING 312
SWIDTH 555 0
DWIDTH 8 0
BBX 8 7 0 0
BITMAP
23
24
68
70
50
98
8C
ENDCHAR
STARTCHAR 0139
ENCODING 313
SWIDTH 555 0
DWIDTH 8 0
BBX 8 12 -1 0
BITMAP
03
04
00
18
10
10
20
20
20
40
40
FE
ENDCHAR
STARTCHAR 013A
ENCODING 314
SWIDTH 555 0
DWIDTH 8 0
BBX 8 12 1 0
BITMAP
03
04
00
18
08
10
10
10
20
20
60
E0
ENDCHAR
STARTCHAR 013B
ENCODING 315
SWIDTH 555 0
DWIDTH 8 0
BBX 7 11 -1 -2
BITMAP
18
10
10
20
20
20
40
40
FE
10
60
ENDCHAR
STARTCHAR 013C
ENCODING 316
SWIDTH 555 0
DWIDTH 8 0
BBX 6 11 0 -2
BITMAP
0C
04
08
08
08
10
10
30
70
20
C0
ENDCHAR
STARTCHAR 013D
ENCODING 317
SWIDTH 555 0
DWIDTH 8 0
BBX 9 11 -1 0
BITMAP
0380
0000
1800
1000
1000
2000
2000
2000
4000
4000
FE00
ENDCHAR
STARTCHAR 013E
ENCODING 318
SWIDTH 555 0
DWIDTH 8 0
BBX 7 11 1 0
BITMAP
0E
00
18
08
10
10
10
20
20
60
E0
ENDCHAR
STARTCHAR 013F
ENCODING 319
SWIDTH 555 0
DWIDTH 8 0
BBX 7 9 -1 0
BITMAP
18
10
10
20
22
20
40
40
FE
ENDCHAR
STARTCHAR 0140
ENCODING 320
SWIDTH 555 0
DWIDTH 8 0
BBX 8 9 1 0
BITMAP
18
08
10
11
12
20
20
60
E0
ENDCHAR
STARTCHAR 0141
ENCODING 321
SWIDTH 555 0
DWIDTH 8 0
BBX 7 9 -1 0
BITMAP
10
10
10
38
30
E0
40
40
FE
ENDCHAR
STARTCHAR 0142
ENCODING 322
SWIDTH 555 0
DWIDTH 8 0
BBX 5 9 1 0
BITMAP
18
08
10
18
30
60
20
20
E0
ENDCHAR
STARTCHAR 0143
ENCODING 323
SWIDTH 555 0
DWIDTH 8 0
BBX 10 12 -1 0
BITMAP
00C0
0100
0000
1040
1080
1880
2900
2500
2700
4200
4200
8200
ENDCHAR
STARTCHAR 0144
ENCODING 324
SWIDTH 555 0
DWIDTH 8 0
BBX 9 9 -1 0
BITMAP
0300
0000
1F00
3180
2100
2100
4200
4200
8200
ENDCHAR
STARTCHAR 0145
ENCODING 325
SWIDTH 555 0
DWIDTH 8 0
BBX 10 11 -1 -2
BITMAP
1040
1080
1880
2900
2500
2700
4200
4200
8200
1000
6000
ENDCHAR
STARTCHAR 0146
ENCODING 326
SWIDTH 555 0
DWIDTH 8 0
BBX 9 9 -1 -2
BITMAP
1F00
3180
2100
2100
4200
4200
8200
1000
6000
ENDCHAR
STARTCHAR 0147
ENCODING 327
SWIDTH 555 0
DWIDTH 8 0
BBX 10 11 -1 0
BITMAP
0380
0000
1040
1080
1880
2900
2500
2700
4200
4200
8200
ENDCHAR
STARTCHAR 0148
ENCODING 328
SWIDTH 555 0
DWIDTH 8 0
BBX 9 9 -1 0
BITMAP
0700
0200
1F00
3180
2100
2100
4200
4200
8200
ENDCHAR
STARTCHAR 0149
ENCODING 329
SWIDTH 555 0
DWIDTH 8 0
BBX 9 10 -1 0
BITMAP
0800
1000
1000
1F00
3180
2100
2100
4200
4200
8200
ENDCHAR
STARTCHAR 014A
ENCODING 330
SWIDTH 555 0
DWIDTH 8 0
BBX 10 11 -1 -2
BITMAP
1040
1080
1880
2900
2500
2700
4200
4200
8200
0400
1800
ENDCHAR
STARTCHAR 014B
ENCODING 331
SWIDTH 555 0
DWIDTH 8 0
BBX 9 9 -1 -2
BITMAP
1F00
3180
2100
2100
4200
4200
8200
0400
1800
ENDCHAR
STARTCHAR 014C
ENCODING 332
SWIDTH 555 0
DWIDTH 8 0
BBX 8 11 0 0
BITMAP
0F
00
1F
21
21
41
42
42
84
84
F8
ENDCHAR
STARTCHAR 014D
ENCODING 333
SWIDTH 555 0
DWIDTH 8 0
BBX 8 8 0 0
BITMAP
1E
1E
23
42
42
84
84
F8
ENDCHAR
STARTCHAR 014E
ENCODING 334
SWIDTH 555 0
DWIDTH 8 0
BBX 8 12 0 0
BITMAP
04
07
00
1F
21
21
41
42
42
84
84
F8
ENDCHAR
STARTCHAR 014F
ENCODING 335
SWIDTH 555 0
DWIDTH 8 0
BBX 8 9 0 1
BITMAP
09
0E
1E
23
42
42
84
84
F8
ENDCHAR
STARTCHAR 0150
ENCODING 336
SWIDTH 555 0
DWIDTH 8 0
BBX 10 12 0 0
BITMAP
0340
0580
0000
1F00
2100
2100
4100
4200
4200
8400
8400
F800
ENDCHAR
STARTCHAR 0151
ENCODING 337
SWIDTH 555 0
DWIDTH 8 0
BBX 9 9 0 0
BITMAP
0D80
0200
1E00
2300
4200
4200
8400
8400
F800
ENDCHAR
STARTCHAR 0152
ENCODING 338
SWIDTH 555 0
DWIDTH 8 0
BBX 11 9 -1 0
BITMAP
1FE0
1200
2200
2600
4780
4400
4800
C800
7F00
ENDCHAR
STARTCHAR 0153
ENCODING 339
SWIDTH 555 0
DWIDTH 8 0
BBX 9 7 -1 0
BITMAP
1F00
2480
4480
4F00
4800
D900
7E00
ENDCHAR
STARTCHAR 0154
ENCODING 340
SWIDTH 555 0
DWIDTH 8 0
BBX 10 12 -1 0
BITMAP
00C0
0100
0000
1F80
1080
1080
2080
3F00
3800
4C00
4400
8200
ENDCHAR
STARTCHAR 0155
ENCODING 341
SWIDTH 555 0
DWIDTH 8 0
BBX 9 9 -1 0
BITMAP
0300
0000
1780
3800
3000
2000
4000
4000
C000
ENDCHAR
STARTCHAR 0156
ENCODING 342
SWIDTH 555 0
DWIDTH 8 0
BBX 9 11 -1 -2
BITMAP
1F80
1080
1080
2080
3F00
3800
4C00
4400
8200
1000
6000
ENDCHAR
STARTCHAR 0157
ENCODING 343
SWIDTH 555 0
DWIDTH 8 0
BBX 10 9 -2 -2
BITMAP
0BC0
1C00
1800
1000
2000
2000
6000
4000
C000
ENDCHAR
STARTCHAR 0158
ENCODING 344
SWIDTH 555 0
DWIDTH 8 0
BBX 9 11 -1 0
BITMAP
0380
0000
1F80
1080
1080
2080
3F00
3800
4C00
4400
8200
ENDCHAR
STARTCHAR 0159
ENCODING 345
SWIDTH 555 0
DWIDTH 8 0
BBX 9 9 -1 0
BITMAP
0700
0200
1780
3800
3000
2000
4000
4000
C000
ENDCHAR
STARTCHAR 015A
ENCODING 346
SWIDTH 555 0
DWIDTH 8 0
BBX 9 12 0 0
BITMAP
0180
0200
0000
1F00
2100
2000
2000
1E00
0200
8400
8400
F800
ENDCHAR
STARTCHAR 015B
ENCODING 347
SWIDTH 555 0
DWIDTH 8 0
BBX 8 9 0 0
BITMAP
06
00
1E
27
40
7C
04
C4
78
ENDCHAR
STARTCHAR 015C
ENCODING 348
SWIDTH 555 0
DWIDTH 8 0
BBX 8 12 0 0
BITMAP
02
07
00
1F
21
20
20
1E
02
84
84
F8
ENDCHAR
STARTCHAR 015D
ENCODING 349
SWIDTH 555 0
DWIDTH 8 0
BBX 8 9 0 0
BITMAP
0E
00
1E
27
40
7C
04
C4
78
ENDCHAR
STARTCHAR 015E
ENCODING 350
SWIDTH 555 0
DWIDTH 8 0
BBX 8 11 0 -2
BITMAP
1F
21
20
20
1E
02
84
84
78
20
C0
ENDCHAR
STARTCHAR 015F
ENCODING 351
SWIDTH 555 0
DWIDTH 8 0
BBX 8 9 0 -2
BITMAP
1E
27
40
7C
04
C4
78
20
C0
ENDCHAR
STARTCHAR 0160
ENCODING 352
SWIDTH 555 0
DWIDTH 8 0
BBX 8 11 0 0
BITMAP
07
00
1F
21
20
20
1E
02
84
84
F8
ENDCHAR
STARTCHAR 0161
ENCODING 353
SWIDTH 555 0
DWIDTH 8 0
BBX 8 9 0 0
BITMAP
0E
04
1E
27
40
7C
04
C4
78
ENDCHAR
STARTCHAR 0162
ENCODING 354
SWIDTH 555 0
DWIDTH 8 0
BBX 8 11 1 -2
BITMAP
3F
08
10
10
10
20
20
40
40
40
80
ENDCHAR
STARTCHAR 0163
ENCODING 355
SWIDTH 555 0
DWIDTH 8 0
BBX 5 11 2 -2
BITMAP
30
20
F8
60
40
40
80
80
60
40
80
ENDCHAR
STARTCHAR 0164
ENCODING 356
SWIDTH 555 0
DWIDTH 8 0
BBX 7 11 2 0
BITMAP
1C
00
7E
10
20
20
20
40
40
80
80
ENDCHAR
STARTCHAR 0165
ENCODING 357
SWIDTH 555 0
DWIDTH 8 0
BBX 6 11 2 0
BITMAP
1C
00
30
20
F8
60
40
40
80
80
F0
ENDCHAR
STARTCHAR 0166
ENCODING 358
SWIDTH 555 0
DWIDTH 8 0
BBX 7 9 2 0
BITMAP
7E
10
20
20
F0
40
40
80
80
ENDCHAR
STARTCHAR 0167
ENCODING 359
SWIDTH 555 0
DWIDTH 8 0
BBX 5 9 2 0
BITMAP
30
20
F8
20
E0
C0
80
80
F0
ENDCHAR
STARTCHAR 0168
ENCODING 360
SWIDTH 555 0
DWIDTH 8 0
BBX 9 12 0 0
BITMAP
0680
0A80
0100
3080
2100
2100
4300
4200
4200
8400
8400
F800
ENDCHAR
STARTCHAR 0169
ENCODING 361
SWIDTH 555 0
DWIDTH 8 0
BBX 8 9 0 0
BITMAP
1D
16
21
43
42
42
84
84
FC
ENDCHAR
STARTCHAR 016A
ENCODING 362
SWIDTH 555 0
DWIDTH 8 0
BBX 9 11 0 0
BITMAP
0F00
0000
3080
2100
2100
4300
4200
4200
8400
8400
F800
ENDCHAR
STARTCHAR 016B
ENCODING 363
SWIDTH 555 0
DWIDTH 8 0
BBX 8 8 0 0
BITMAP
1E
21
43
42
42
84
84
FC
ENDCHAR
STARTCHAR 016C
ENCODING 364
SWIDTH 555 0
DWIDTH 8 0
BBX 9 12 0 0
BITMAP
0400
0700
0000
3080
2100
2100
4300
4200
4200
8400
8400
F800
ENDCHAR
STARTCHAR 016D
ENCODING 365
SWIDTH 555 0
DWIDTH 8 0
BBX 8 9 0 1
BITMAP
09
0E
21
43
42
42
84
84
FC
ENDCHAR
STARTCHAR 016E
ENCODING 366
SWIDTH 555 0
DWIDTH 8 0
BBX 9 12 0 0
BITMAP
0300
0500
0600
3080
2100
2100
4300
4200
4200
8400
8400
F800
ENDCHAR
STARTCHAR 016F
ENCODING 367
SWIDTH 555 0
DWIDTH 8 0
BBX 8 9 0 0
BITMAP
0E
0C
21
43
42
42
84
84
FC
ENDCHAR
STARTCHAR 0170
ENCODING 368
SWIDTH 555 0
DWIDTH 8 0
BBX 10 12 0 0
BITMAP
0340
0580
0000
3080
2100
2100
4300
4200
4200
8400
8400
F800
ENDCHAR
STARTCHAR 0171
ENCODING 369
SWIDTH 555 0
DWIDTH 8 0
BBX 9 9 0 0
BITMAP
0D80
0200
2100
4300
4200
4200
8400
8400
FC00
ENDCHAR
STARTCHAR 0172
ENCODING 370
SWIDTH 555 0
DWIDTH 8 0
BBX 9 11 0 -2
BITMAP
3080
2100
2100
4200
4200
4200
8400
8400
7800
4000
6000
ENDCHAR
STARTCHAR 0173
ENCODING 371
SWIDTH 555 0
DWIDTH 8 0
BBX 8 9 0 -2
BITMAP
21
42
42
42
84
84
FC
10
18
ENDCHAR
STARTCHAR 0174
ENCODING 372
SWIDTH 555 0
DWIDTH 8 0
BBX 10 12 -1 0
BITMAP
0100
0380
0000
1040
1080
2080
2100
4100
5900
6600
C600
8200
ENDCHAR
STARTCHAR 0175
ENCODING 373
SWIDTH 555 0
DWIDTH 8 0
BBX 7 9 0 0
BITMAP
0E
00
20
42
4A
52
94
94
F8
ENDCHAR
STARTCHAR 0176
ENCODING 374
SWIDTH 555 0
DWIDTH 8 0
BBX 7 12 2 0
BITMAP
08
1C
00
42
44
48
50
60
40
40
80
80
ENDCHAR
STARTCHAR 0177
ENCODING 375
SWIDTH 555 0
DWIDTH 8 0
BBX 9 11 -1 -2
BITMAP
0700
0000
1080
2180
2100
2100
4200
4200
7E00
0400
F800
ENDCHAR
STARTCHAR 0178
ENCODING 376
SWIDTH 555 0
DWIDTH 8 0
BBX 7 12 2 0
BITMAP
12
24
00
42
44
48
50
60
40
40
80
80
ENDCHAR
STARTCHAR 0179
ENCODING 377
SWIDTH 555 0
DWIDTH 8 0
BBX 10 12 -1 0
BITMAP
00C0
0100
0000
0FC0
0080
0180
0200
0C00
1000
6000
4000
FE00
ENDCHAR
STARTCHAR 017A
ENCODING 378
SWIDTH 555 0
DWIDTH 8 0
BBX 9 9 -1 0
BITMAP
0300
0000
1F80
0180
0600
0C00
3000
4000
FE00
ENDCHAR
STARTCHAR 017B
ENCODING 379
SWIDTH 555 0
DWIDTH 8 0
BBX 10 12 -1 0
BITMAP
0100
0100
0000
0FC0
0080
0180
0200
0C00
1000
6000
4000
FE00
ENDCHAR
STARTCHAR 017C
ENCODING 380
SWIDTH 555 0
DWIDTH 8 0
BBX 9 9 -1 0
BITMAP
0200
0000
1F80
0180
0600
0C00
3000
4000
FE00
ENDCHAR
STARTCHAR 017D
ENCODING 381
SWIDTH 555 0
DWIDTH 8 0
BBX 10 11 -1 0
BITMAP
0380
0000
0FC0
0080
0180
0200
0C00
1000
6000
4000
FE00
ENDCHAR
STARTCHAR 017E
ENCODING 382
SWIDTH 555 0
DWIDTH 8 0
BBX 9 9 -1 0
BITMAP
0700
0200
1F80
0180
0600
0C00
3000
4000
FE00
ENDCHAR
STARTCHAR 017F
ENCODING 383
SWIDTH 555 0
DWIDTH 8 0
BBX 7 9 2 0
BITMAP
1E
20
20
40
40
40
80
80
80
ENDCHAR
STARTCHAR 0186
ENCODING 390
SWIDTH 555 0
DWIDTH 8 0
BBX 8 9 0 0
BITMAP
1F
21
01
01
02
02
84
84
78
ENDCHAR
STARTCHAR 018E
ENCODING 398
SWIDTH 555 0
DWIDTH 8 0
BBX 10 9 -1 0
BITMAP
0FC0
0080
0080
0100
0F00
0100
0200
0200
FE00
ENDCHAR
STARTCHAR 018F
ENCODING 399
SWIDTH 555 0
DWIDTH 8 0
BBX 8 9 0 0
BITMAP
1F
21
01
01
7E
42
84
84
F8
ENDCHAR
STARTCHAR 0190
ENCODING 400
SWIDTH 555 0
DWIDTH 8 0
BBX 8 9 0 0
BITMAP
1F
21
20
20
7C
40
84
84
F8
ENDCHAR
STARTCHAR 0192
ENCODING 402
SWIDTH 555 0
DWIDTH 8 0
BBX 9 10 -1 -1
BITMAP
0380
0200
0400
0E00
0400
0800
0800
1000
1000
F000
ENDCHAR
STARTCHAR 019D
ENCODING 413
SWIDTH 555 0
DWIDTH 8 0
BBX 11 11 -2 -2
BITMAP
0820
0840
0C40
1480
1280
1380
2100
2100
2100
4000
C000
ENDCHAR
STARTCHAR 019E
ENCODING 414
SWIDTH 555 0
DWIDTH 8 0
BBX 9 9 -1 -2
BITMAP
1F00
3180
2100
2100
4200
4200
8200
0400
0400
ENDCHAR
STARTCHAR 01B5
ENCODING 437
SWIDTH 555 0
DWIDTH 8 0
BBX 9 9 0 0
BITMAP
1F80
0100
0300
0400
7E00
3000
C000
8000
FC00
ENDCHAR
STARTCHAR 01B6
ENCODING 438
SWIDTH 555 0
DWIDTH 8 0
BBX 9 7 -1 0
BITMAP
1F80
0300
0400
7E00
3000
6000
FE00
ENDCHAR
STARTCHAR 01B7
ENCODING 439
SWIDTH 555 0
DWIDTH 8 0
BBX 9 9 0 0
BITMAP
1F80
0300
0C00
1E00
0200
0200
8400
8400
F800
ENDCHAR
STARTCHAR 01CD
ENCODING 461
SWIDTH 555 0
DWIDTH 8 0
BBX 9 11 -1 0
BITMAP
0380
0000
0F80
1080
1080
2180
3F00
2100
4200
4200
C200
ENDCHAR
STARTCHAR 01CE
ENCODING 462
SWIDTH 555 0
DWIDTH 8 0
BBX 8 9 0 0
BITMAP
0E
04
3E
03
02
7E
84
84
7C
ENDCHAR
STARTCHAR 01CF
ENCODING 463
SWIDTH 555 0
DWIDTH 8 0
BBX 7 11 1 0
BITMAP
0E
00
1C
08
10
10
10
20
20
60
E0
ENDCHAR
STARTCHAR 01D0
ENCODING 464
SWIDTH 555 0
DWIDTH 8 0
BBX 6 9 1 0
BITMAP
1C
08
30
10
10
20
20
60
E0
ENDCHAR
STARTCHAR 01D1
ENCODING 465
SWIDTH 555 0
DWIDTH 8 0
BBX 8 11 0 0
BITMAP
07
00
1F
21
21
41
42
42
84
84
F8
ENDCHAR
STARTCHAR 01D2
ENCODING 466
SWIDTH 555 0
DWIDTH 8 0
BBX 8 9 0 0
BITMAP
0E
04
1E
23
42
42
84
84
F8
ENDCHAR
STARTCHAR 01D3
ENCODING 467
SWIDTH 555 0
DWIDTH 8 0
BBX 9 11 0 0
BITMAP
0700
0000
3080
2100
2100
4300
4200
4200
8400
8400
F800
ENDCHAR
STARTCHAR 01D4
ENCODING 468
SWIDTH 555 0
DWIDTH 8 0
BBX 8 9 0 0
BITMAP
0E
04
21
43
42
42
84
84
FC
ENDCHAR
STARTCHAR 01E2
ENCODING 482
SWIDTH 555 0
DWIDTH 8 0
BBX 11 11 -1 0
BITMAP
07C0
0000
1FE0
1200
2200
2200
7F80
4400
4800
8800
8F00
ENDCHAR
STARTCHAR 01E3
ENCODING 483
SWIDTH 555 0
DWIDTH 8 0
BBX 9 8 -1 0
BITMAP
0F80
1F00
0880
0480
7F00
4800
CB00
7E00
ENDCHAR
STARTCHAR 01E4
ENCODING 484
SWIDTH 555 0
DWIDTH 8 0
BBX 8 9 0 0
BITMAP
1F
21
20
40
4E
42
8C
84
F8
ENDCHAR
STARTCHAR 01E5
ENCODING 485
SWIDTH 555 0
DWIDTH 8 0
BBX 9 9 -1 -2
BITMAP
0F80
1180
2100
2700
4200
4200
7E00
0400
F800
ENDCHAR
STARTCHAR 01E6
ENCODING 486
SWIDTH 555 0
DWIDTH 8 0
BBX 8 11 0 0
BITMAP
07
00
1F
21
20
40
4E
42
84
84
F8
ENDCHAR
STARTCHAR 01E7
ENCODING 487
SWIDTH 555 0
DWIDTH 8 0
BBX 9 11 -1 -2
BITMAP
0700
0200
0F80
1180
2100
2100
4200
4200
7E00
0400
F800
ENDCHAR
STARTCHAR 01E8
ENCODING 488
SWIDTH 555 0
DWIDTH 8 0
BBX 10 11 -1 0
BITMAP
0380
0000
10C0
1300
1600
3800
3000
3800
4C00
4400
8200
ENDCHAR
STARTCHAR 01E9
ENCODING 489
SWIDTH 555 0
DWIDTH 8 0
BBX 8 11 0 0
BITMAP
07
00
10
10
23
24
68
70
50
98
8C
ENDCHAR
STARTCHAR 01EA
ENCODING 490
SWIDTH 555 0
DWIDTH 8 0
BBX 8 11 0 -2
BITMAP
1F
21
21
41
42
42
84
84
78
40
60
ENDCHAR
STARTCHAR 01EB
ENCODING 491
SWIDTH 555 0
DWIDTH 8 0
BBX 8 9 0 -2
BITMAP
1E
23
42
42
84
84
78
40
60
ENDCHAR
STARTCHAR 01EC
ENCODING 492
SWIDTH 555 0
DWIDTH 8 0
BBX 8 13 0 -2
BITMAP
0F
00
1F
21
21
41
42
42
84
84
78
40
60
ENDCHAR
STARTCHAR 01ED
ENCODING 493
SWIDTH 555 0
DWIDTH 8 0
BBX 8 10 0 -2
BITMAP
1E
1E
23
42
42
84
84
78
40
60
ENDCHAR
STARTCHAR 01EE
ENCODING 494
SWIDTH 555 0
DWIDTH 8 0
BBX 9 11 0 0
BITMAP
0700
0000
1F80
0300
0C00
1E00
0200
0200
8400
8400
F800
ENDCHAR
STARTCHAR 01EF
ENCODING 495
SWIDTH 555 0
DWIDTH 8 0
BBX 9 11 -1 -2
BITMAP
0700
0200
1F80
0180
0600
0800
1E00
0200
0200
8400
F800
ENDCHAR
STARTCHAR 01F0
ENCODING 496
SWIDTH 555 0
DWIDTH 8 0
BBX 9 11 0 -2
BITMAP
0380
0100
0600
0200
0200
0400
0400
0800
0800
9800
F000
ENDCHAR
STARTCHAR 01F4
ENCODING 500
SWIDTH 555 0
DWIDTH 8 0
BBX 9 12 0 0
BITMAP
0180
0200
0000
1F00
2100
2000
4000
4E00
4200
8400
8400
F800
ENDCHAR
STARTCHAR 01F5
ENCODING 501
SWIDTH 555 0
DWIDTH 8 0
BBX 9 11 -1 -2
BITMAP
0180
0200
0F80
1180
2100
2100
4200
4200
7E00
0400
F800
ENDCHAR
STARTCHAR 01FC
ENCODING 508
SWIDTH 555 0
DWIDTH 8 0
BBX 11 12 -1 0
BITMAP
0040
0180
0000
1FE0
1200
2200
2200
7F80
4400
4800
8800
8F00
ENDCHAR
STARTCHAR 01FD
ENCODING 509
SWIDTH 555 0
DWIDTH 8 0
BBX 9 9 -1 0
BITMAP
0300
0000
1F00
0880
0480
7F00
4800
CB00
7E00
ENDCHAR
STARTCHAR 01FE
ENCODING 510
SWIDTH 555 0
DWIDTH 8 0
BBX 9 12 0 0
BITMAP
0180
0200
0000
1F00
2180
2300
4500
5A00
6200
8400
8400
F800
ENDCHAR
STARTCHAR 01FF
ENCODING 511
SWIDTH 555 0
DWIDTH 8 0
BBX 9 9 -1 0
BITMAP
0300
0000
0F00
1180
2300
2D00
5200
6200
FC00
ENDCHAR
STARTCHAR 0218
ENCODING 536
SWIDTH 555 0
DWIDTH 8 0
BBX 8 11 0 -2
BITMAP
1F
21
20
20
1E
02
84
84
F8
20
C0
ENDCHAR
STARTCHAR 0219
ENCODING 537
SWIDTH 555 0
DWIDTH 8 0
BBX 8 9 0 -2
BITMAP
1E
27
40
7C
04
C4
78
20
C0
ENDCHAR
STARTCHAR 021A
ENCODING 538
SWIDTH 555 0
DWIDTH 8 0
BBX 9 11 0 -2
BITMAP
1F80
0400
0800
0800
0800
1000
1000
2000
2000
2000
C000
ENDCHAR
STARTCHAR 021B
ENCODING 539
SWIDTH 555 0
DWIDTH 8 0
BBX 5 11 2 -2
BITMAP
30
20
F8
60
40
40
80
80
F0
40
C0
ENDCHAR
STARTCHAR 0232
ENCODING 562
SWIDTH 555 0
DWIDTH 8 0
BBX 7 11 2 0
BITMAP
3C
00
42
44
48
50
60
40
40
80
80
ENDCHAR
STARTCHAR 0233
ENCODING 563
SWIDTH 555 0
DWIDTH 8 0
BBX 9 10 -1 -2
BITMAP
0F00
1080
2180
2100
2100
4200
4200
7E00
0400
F800
ENDCHAR
STARTCHAR 0237
ENCODING 567
SWIDTH 555 0
DWIDTH 8 0
BBX 7 9 0 -2
BITMAP
06
02
02
04
04
08
08
98
F0
ENDCHAR
STARTCHAR 0254
ENCODING 596
SWIDTH 555 0
DWIDTH 8 0
BBX 8 7 0 0
BITMAP
1E
33
02
02
04
84
F8
ENDCHAR
STARTCHAR 0258
ENCODING 600
SWIDTH 555 0
DWIDTH 8 0
BBX 8 7 0 0
BITMAP
1E
23
42
7E
04
04
F8
ENDCHAR
STARTCHAR 0259
ENCODING 601
SWIDTH 555 0
DWIDTH 8 0
BBX 8 7 0 0
BITMAP
3E
23
02
7E
84
84
F8
ENDCHAR
STARTCHAR 025B
ENCODING 603
SWIDTH 555 0
DWIDTH 8 0
BBX 8 7 0 0
BITMAP
1E
23
40
78
80
84
F8
ENDCHAR
STARTCHAR 0272
ENCODING 626
SWIDTH 555 0
DWIDTH 8 0
BBX 10 9 -2 -2
BITMAP
0F80
18C0
1080
1080
2100
2100
2100
4000
C000
ENDCHAR
STARTCHAR 0292
ENCODING 658
SWIDTH 555 0
DWIDTH 8 0
BBX 9 9 -1 -2
BITMAP
1F80
0180
0600
0800
1E00
0200
0200
8400
F800
ENDCHAR
STARTCHAR 02BB
ENCODING 699
SWIDTH 555 0
DWIDTH 8 0
BBX 2 3 6 9
BITMAP
40
80
80
ENDCHAR
STARTCHAR 02BC
ENCODING 700
SWIDTH 555 0
DWIDTH 8 0
BBX 2 3 5 9
BITMAP
40
C0
80
ENDCHAR
STARTCHAR 02BD
ENCODING 701
SWIDTH 555 0
DWIDTH 8 0
BBX 1 2 6 9
BITMAP
80
80
ENDCHAR
STARTCHAR 02C6
ENCODING 710
SWIDTH 555 0
DWIDTH 8 0
BBX 3 2 5 10
BITMAP
40
E0
ENDCHAR
STARTCHAR 02C7
ENCODING 711
SWIDTH 555 0
DWIDTH 8 0
BBX 3 1 5 10
BITMAP
E0
ENDCHAR
STARTCHAR 02D8
ENCODING 728
SWIDTH 555 0
DWIDTH 8 0
BBX 3 2 5 10
BITMAP
80
E0
ENDCHAR
STARTCHAR 02D9
ENCODING 729
SWIDTH 555 0
DWIDTH 8 0
BBX 1 2 6 10
BITMAP
80
80
ENDCHAR
STARTCHAR 02DB
ENCODING 731
SWIDTH 555 0
DWIDTH 8 0
BBX 2 2 1 -2
BITMAP
C0
C0
ENDCHAR
STARTCHAR 02DC
ENCODING 732
SWIDTH 555 0
DWIDTH 8 0
BBX 5 2 4 10
BITMAP
68
B8
ENDCHAR
STARTCHAR 02DD
ENCODING 733
SWIDTH 555 0
DWIDTH 8 0
BBX 5 2 5 10
BITMAP
68
B0
ENDCHAR
STARTCHAR 0300
ENCODING 768
SWIDTH 555 0
DWIDTH 8 0
BBX 2 2 5 10
BITMAP
80
C0
ENDCHAR
STARTCHAR 0301
ENCODING 769
SWIDTH 555 0
DWIDTH 8 0
BBX 3 2 6 10
BITMAP
60
80
ENDCHAR
STARTCHAR 0302
ENCODING 770
SWIDTH 555 0
DWIDTH 8 0
BBX 3 2 5 10
BITMAP
40
E0
ENDCHAR
STARTCHAR 0303
ENCODING 771
SWIDTH 555 0
DWIDTH 8 0
BBX 5 2 4 10
BITMAP
68
B8
ENDCHAR
STARTCHAR 0304
ENCODING 772
SWIDTH 555 0
DWIDTH 8 0
BBX 4 1 4 10
BITMAP
F0
ENDCHAR
STARTCHAR 0305
ENCODING 773
SWIDTH 555 0
DWIDTH 8 0
BBX 6 1 3 10
BITMAP
FC
ENDCHAR
STARTCHAR 0306
ENCODING 774
SWIDTH 555 0
DWIDTH 8 0
BBX 3 2 5 10
BITMAP
80
E0
ENDCHAR
STARTCHAR 0307
ENCODING 775
SWIDTH 555 0
DWIDTH 8 0
BBX 1 2 6 10
BITMAP
80
80
ENDCHAR
STARTCHAR 0308
ENCODING 776
SWIDTH 555 0
DWIDTH 8 0
BBX 5 2 4 10
BITMAP
48
90
ENDCHAR
STARTCHAR 030A
ENCODING 778
SWIDTH 555 0
DWIDTH 8 0
BBX 3 3 5 9
BITMAP
60
A0
C0
ENDCHAR
STARTCHAR 030B
ENCODING 779
SWIDTH 555 0
DWIDTH 8 0
BBX 5 2 5 10
BITMAP
68
B0
ENDCHAR
STARTCHAR 030C
ENCODING 780
SWIDTH 555 0
DWIDTH 8 0
BBX 3 1 5 10
BITMAP
E0
ENDCHAR
STARTCHAR 0329
ENCODING 809
SWIDTH 555 0
DWIDTH 8 0
BBX 2 2 1 -2
BITMAP
40
80
ENDCHAR
STARTCHAR 0384
ENCODING 900
SWIDTH 555 0
DWIDTH 8 0
BBX 3 2 2 9
BITMAP
60
80
ENDCHAR
STARTCHAR 0385
ENCODING 901
SWIDTH 555 0
DWIDTH 8 0
BBX 6 4 3 7
BITMAP
0C
10
00
88
ENDCHAR
STARTCHAR 0386
ENCODING 902
SWIDTH 555 0
DWIDTH 8 0
BBX 9 11 -1 0
BITMAP
0C00
1000
0F80
1080
1080
2180
3F00
2100
4200
4200
C200
ENDCHAR
STARTCHAR 0387
ENCODING 903
SWIDTH 555 0
DWIDTH 8 0
BBX 1 2 4 5
BITMAP
80
80
ENDCHAR
STARTCHAR 0388
ENCODING 904
SWIDTH 555 0
DWIDTH 8 0
BBX 10 11 -1 0
BITMAP
0C00
1800
1FC0
1000
1000
3000
3E00
2000
4000
4000
FE00
ENDCHAR
STARTCHAR 0389
ENCODING 905
SWIDTH 555 0
DWIDTH 8 0
BBX 10 11 -1 0
BITMAP
0C00
1800
1040
1080
1080
3100
3F00
2100
4200
4200
8200
ENDCHAR
STARTCHAR 038A
ENCODING 906
SWIDTH 555 0
DWIDTH 8 0
BBX 6 11 1 0
BITMAP
30
40
1C
08
10
10
10
20
20
60
E0
ENDCHAR
STARTCHAR 038C
ENCODING 908
SWIDTH 555 0
DWIDTH 8 0
BBX 8 11 0 0
BITMAP
18
20
1F
21
21
41
42
42
84
84
F8
ENDCHAR
STARTCHAR 038E
ENCODING 910
SWIDTH 555 0
DWIDTH 8 0
BBX 7 11 2 0
BITMAP
60
C0
42
44
48
70
20
20
40
40
40
ENDCHAR
STARTCHAR 038F
ENCODING 911
SWIDTH 555 0
DWIDTH 8 0
BBX 9 11 -1 0
BITMAP
0C00
1000
0F80
1080
1080
2180
2100
2300
3600
2C00
EE00
ENDCHAR
STARTCHAR 0390
ENCODING 912
SWIDTH 555 0
DWIDTH 8 0
BBX 6 12 2 0
BITMAP
04
18
00
48
00
60
40
40
40
80
C0
E0
ENDCHAR
STARTCHAR 0391
ENCODING 913
SWIDTH 555 0
DWIDTH 8 0
BBX 9 9 -1 0
BITMAP
0F80
1080
1080
2180
3F00
2100
4200
4200
C200
ENDCHAR
STARTCHAR 0392
ENCODING 914
SWIDTH 555 0
DWIDTH 8 0
BBX 9 9 -1 0
BITMAP
1F80
1080
1080
3F00
2300
2100
4200
4200
FC00
ENDCHAR
STARTCHAR 0393
ENCODING 915
SWIDTH 555 0
DWIDTH 8 0
BBX 10 9 -1 0
BITMAP
1FC0
1000
1000
2000
2000
2000
4000
4000
8000
ENDCHAR
STARTCHAR 0394
ENCODING 916
SWIDTH 555 0
DWIDTH 8 0
BBX 6 9 0 0
BITMAP
04
0C
14
14
24
44
84
84
FC
ENDCHAR
STARTCHAR 0395
ENCODING 917
SWIDTH 555 0
DWIDTH 8 0
BBX 10 9 -1 0
BITMAP
1FC0
1000
1000
3000
3E00
2000
4000
4000
FE00
ENDCHAR
STARTCHAR 0396
ENCODING 918
SWIDTH 555 0
DWIDTH 8 0
BBX 10 9 -1 0
BITMAP
0FC0
0080
0180
0200
0C00
1000
6000
4000
FE00
ENDCHAR
STARTCHAR 0397
ENCODING 919
SWIDTH 555 0
DWIDTH 8 0
BBX 10 9 -1 0
BITMAP
1040
1080
1080
3100
3F00
2100
4200
4200
8200
ENDCHAR
STARTCHAR 0398
ENCODING 920
SWIDTH 555 0
DWIDTH 8 0
BBX 8 9 0 0
BITMAP
1F
21
21
41
5E
42
84
84
F8
ENDCHAR
STARTCHAR 0399
ENCODING 921
SWIDTH 555 0
DWIDTH 8 0
BBX 6 9 1 0
BITMAP
1C
08
10
10
10
20
20
60
E0
ENDCHAR
STARTCHAR 039A
ENCODING 922
SWIDTH 555 0
DWIDTH 8 0
BBX 10 9 -1 0
BITMAP
10C0
1300
1600
3800
3000
3800
4C00
4400
8200
ENDCHAR
STARTCHAR 039B
ENCODING 923
SWIDTH 555 0
DWIDTH 8 0
BBX 7 9 -1 0
BITMAP
02
06
0A
0A
12
22
22
42
82
ENDCHAR
STARTCHAR 039C
ENCODING 924
SWIDTH 555 0
DWIDTH 8 0
BBX 10 9 -1 0
BITMAP
10C0
1980
2E80
2500
4100
4100
4200
8200
8200
ENDCHAR
STARTCHAR 039D
ENCODING 925
SWIDTH 555 0
DWIDTH 8 0
BBX 10 9 -1 0
BITMAP
1040
1080
1880
2900
2500
2700
4200
4200
8200
ENDCHAR
STARTCHAR 039E
ENCODING 926
SWIDTH 555 0
DWIDTH 8 0
BBX 10 9 -1 0
BITMAP
0FC0
0000
0000
0000
1E00
0000
0000
0000
FE00
ENDCHAR
STARTCHAR 039F
ENCODING 927
SWIDTH 555 0
DWIDTH 8 0
BBX 8 9 0 0
BITMAP
1F
21
21
41
42
42
84
84
F8
ENDCHAR
STARTCHAR 03A0
ENCODING 928
SWIDTH 555 0
DWIDTH 8 0
BBX 10 9 -1 0
BITMAP
1FC0
1080
1080
2100
2100
2100
4200
4200
8200
ENDCHAR
STARTCHAR 03A1
ENCODING 929
SWIDTH 555 0
DWIDTH 8 0
BBX 9 9 -1 0
BITMAP
1F80
1080
1080
2080
3F00
2000
4000
4000
C000
ENDCHAR
STARTCHAR 03A3
ENCODING 931
SWIDTH 555 0
DWIDTH 8 0
BBX 10 9 -1 0
BITMAP
0FC0
0800
0400
0200
0200
0C00
1000
6000
FE00
ENDCHAR
STARTCHAR 03A4
ENCODING 932
SWIDTH 555 0
DWIDTH 8 0
BBX 7 9 2 0
BITMAP
7E
10
20
20
20
40
40
80
80
ENDCHAR
STARTCHAR 03A5
ENCODING 933
SWIDTH 555 0
DWIDTH 8 0
BBX 7 9 2 0
BITMAP
42
44
48
50
60
40
40
80
80
ENDCHAR
STARTCHAR 03A6
ENCODING 934
SWIDTH 555 0
DWIDTH 8 0
BBX 8 9 0 0
BITMAP
04
3F
29
4B
4A
52
D4
78
20
ENDCHAR
STARTCHAR 03A7
ENCODING 935
SWIDTH 555 0
DWIDTH 8 0
BBX 9 9 0 0
BITMAP
1080
1100
1200
1C00
1800
2800
4800
8400
0400
ENDCHAR
STARTCHAR 03A8
ENCODING 936
SWIDTH 555 0
DWIDTH 8 0
BBX 8 9 1 0
BITMAP
69
4A
52
94
94
AC
F0
40
40
ENDCHAR
STARTCHAR 03A9
ENCODING 937
SWIDTH 555 0
DWIDTH 8 0
BBX 9 9 -1 0
BITMAP
0F80
1080
1080
2180
2100
2300
3600
2C00
EE00
ENDCHAR
STARTCHAR 03AA
ENCODING 938
SWIDTH 555 0
DWIDTH 8 0
BBX 8 12 1 0
BITMAP
09
12
00
1C
08
10
10
10
20
20
60
E0
ENDCHAR
STARTCHAR 03AB
ENCODING 939
SWIDTH 555 0
DWIDTH 8 0
BBX 7 12 2 0
BITMAP
12
24
00
42
44
48
50
60
40
40
80
80
ENDCHAR
STARTCHAR 03AC
ENCODING 940
SWIDTH 555 0
DWIDTH 8 0
BBX 8 9 -1 0
BITMAP
03
00
1C
23
42
42
46
C6
7E
ENDCHAR
STARTCHAR 03AD
ENCODING 941
SWIDTH 555 0
DWIDTH 8 0
BBX 8 9 0 0
BITMAP
06
00
1E
23
40
78
80
84
F8
ENDCHAR
STARTCHAR 03AE
ENCODING 942
SWIDTH 555 0
DWIDTH 8 0
BBX 9 11 -1 -2
BITMAP
0300
0000
1F00
3180
2100
2100
4200
4200
8200
0400
0400
ENDCHAR
STARTCHAR 03AF
ENCODING 943
SWIDTH 555 0
DWIDTH 8 0
BBX 5 9 2 0
BITMAP
18
20
60
40
40
40
80
C0
E0
ENDCHAR
STARTCHAR 03B0
ENCODING 944
SWIDTH 555 0
DWIDTH 8 0
BBX 9 12 0 0
BITMAP
0180
0200
0000
1100
0000
2000
4200
4200
4200
8400
8400
F800
ENDCHAR
STARTCHAR 03B1
ENCODING 945
SWIDTH 555 0
DWIDTH 8 0
BBX 8 7 -1 0
BITMAP
1C
23
42
42
46
C6
7E
ENDCHAR
STARTCHAR 03B2
ENCODING 946
SWIDTH 555 0
DWIDTH 8 0
BBX 9 11 -1 -2
BITMAP
0F80
1080
1100
3F00
2300
2100
4200
4200
FC00
8000
8000
ENDCHAR
STARTCHAR 03B3
ENCODING 947
SWIDTH 555 0
DWIDTH 8 0
BBX 7 9 1 -2
BITMAP
C2
C2
44
48
50
60
40
40
80
ENDCHAR
STARTCHAR 03B4
ENCODING 948
SWIDTH 555 0
DWIDTH 8 0
BBX 8 9 0 0
BITMAP
1F
08
1C
22
42
42
84
84
F8
ENDCHAR
STARTCHAR 03B5
ENCODING 949
SWIDTH 555 0
DWIDTH 8 0
BBX 8 7 0 0
BITMAP
1E
23
40
78
80
84
F8
ENDCHAR
STARTCHAR 03B6
ENCODING 950
SWIDTH 555 0
DWIDTH 8 0
BBX 9 11 0 -2
BITMAP
1F80
0600
0800
3000
6000
4000
8000
8000
F800
0800
3000
ENDCHAR
STARTCHAR 03B7
ENCODING 951
SWIDTH 555 0
DWIDTH 8 0
BBX 9 9 -1 -2
BITMAP
1F00
3180
2100
2100
4200
4200
8200
0400
0400
ENDCHAR
STARTCHAR 03B8
ENCODING 952
SWIDTH 555 0
DWIDTH 8 0
BBX 8 9 0 0
BITMAP
1F
11
22
22
7E
44
44
C8
70
ENDCHAR
STARTCHAR 03B9
ENCODING 953
SWIDTH 555 0
DWIDTH 8 0
BBX 3 7 2 0
BITMAP
60
40
40
40
80
C0
E0
ENDCHAR
STARTCHAR 03BA
ENCODING 954
SWIDTH 555 0
DWIDTH 8 0
BBX 8 7 0 0
BITMAP
23
24
68
70
50
98
8C
ENDCHAR
STARTCHAR 03BB
ENCODING 955
SWIDTH 555 0
DWIDTH 8 0
BBX 7 9 -1 0
BITMAP
04
04
06
0A
12
12
22
42
82
ENDCHAR
STARTCHAR 03BC
ENCODING 956
SWIDTH 555 0
DWIDTH 8 0
BBX 9 9 -1 -2
BITMAP
1080
2180
2100
2100
4200
4600
FA00
8000
8000
ENDCHAR
STARTCHAR 03BD
ENCODING 957
SWIDTH 555 0
DWIDTH 8 0
BBX 7 7 1 0
BITMAP
C2
42
44
48
50
60
60
ENDCHAR
STARTCHAR 03BE
ENCODING 958
SWIDTH 555 0
DWIDTH 8 0
BBX 9 11 0 -2
BITMAP
1F80
2000
2000
1E00
6000
C000
8000
8000
F800
0800
3000
ENDCHAR
STARTCHAR 03BF
ENCODING 959
SWIDTH 555 0
DWIDTH 8 0
BBX 8 7 0 0
BITMAP
1E
23
42
42
84
84
F8
ENDCHAR
STARTCHAR 03C0
ENCODING 960
SWIDTH 555 0
DWIDTH 8 0
BBX 9 7 -1 0
BITMAP
1F80
3180
2100
2100
4200
4200
8200
ENDCHAR
STARTCHAR 03C1
ENCODING 961
SWIDTH 555 0
DWIDTH 8 0
BBX 9 9 -1 -2
BITMAP
0F00
1180
2100
2100
4200
4200
FC00
8000
8000
ENDCHAR
STARTCHAR 03C2
ENCODING 962
SWIDTH 555 0
DWIDTH 8 0
BBX 8 9 0 -2
BITMAP
1E
23
40
40
80
80
F8
08
30
ENDCHAR
STARTCHAR 03C3
ENCODING 963
SWIDTH 555 0
DWIDTH 8 0
BBX 8 7 0 0
BITMAP
1F
26
42
42
84
84
F8
ENDCHAR
STARTCHAR 03C4
ENCODING 964
SWIDTH 555 0
DWIDTH 8 0
BBX 6 7 2 0
BITMAP
FC
20
20
40
40
40
60
ENDCHAR
STARTCHAR 03C5
ENCODING 965
SWIDTH 555 0
DWIDTH 8 0
BBX 7 7 0 0
BITMAP
20
42
42
42
84
84
F8
ENDCHAR
STARTCHAR 03C6
ENCODING 966
SWIDTH 555 0
DWIDTH 8 0
BBX 7 9 0 -2
BITMAP
14
2A
4A
52
94
B4
F8
20
40
ENDCHAR
STARTCHAR 03C7
ENCODING 967
SWIDTH 555 0
DWIDTH 8 0
BBX 9 9 -1 -2
BITMAP
1080
1100
1200
1400
1800
1800
2800
4400
8400
ENDCHAR
STARTCHAR 03C8
ENCODING 968
SWIDTH 555 0
DWIDTH 8 0
BBX 8 9 0 -2
BITMAP
29
4A
4A
52
94
94
F8
20
40
ENDCHAR
STARTCHAR 03C9
ENCODING 969
SWIDTH 555 0
DWIDTH 8 0
BBX 8 7 0 0
BITMAP
12
23
4A
52
94
B4
F8
ENDCHAR
STARTCHAR 03CA
ENCODING 970
SWIDTH 555 0
DWIDTH 8 0
BBX 5 9 2 0
BITMAP
48
00
60
40
40
40
80
C0
E0
ENDCHAR
STARTCHAR 03CB
ENCODING 971
SWIDTH 555 0
DWIDTH 8 0
BBX 8 9 0 0
BITMAP
11
00
20
42
42
42
84
84
F8
ENDCHAR
STARTCHAR 03CC
ENCODING 972
SWIDTH 555 0
DWIDTH 8 0
BBX 8 9 0 0
BITMAP
06
00
1E
23
42
42
84
84
F8
ENDCHAR
STARTCHAR 03CD
ENCODING 973
SWIDTH 555 0
DWIDTH 8 0
BBX 7 9 0 0
BITMAP
06
00
20
42
42
42
84
84
F8
ENDCHAR
STARTCHAR 03CE
ENCODING 974
SWIDTH 555 0
DWIDTH 8 0
BBX 8 9 0 0
BITMAP
06
00
12
23
4A
52
94
B4
F8
ENDCHAR
STARTCHAR 03D1
ENCODING 977
SWIDTH 555 0
DWIDTH 8 0
BBX 8 9 0 0
BITMAP
1F
11
22
1F
02
C4
44
4C
70
ENDCHAR
STARTCHAR 03D5
ENCODING 981
SWIDTH 555 0
DWIDTH 8 0
BBX 7 9 0 -1
BITMAP
04
1C
2A
4A
52
94
B4
F8
20
ENDCHAR
STARTCHAR 03F0
ENCODING 1008
SWIDTH 555 0
DWIDTH 8 0
BBX 9 7 -1 0
BITMAP
3080
0B00
0C00
0800
3800
6C00
8E00
ENDCHAR
STARTCHAR 03F1
ENCODING 1009
SWIDTH 555 0
DWIDTH 8 0
BBX 9 9 -1 -2
BITMAP
0F00
1180
2100
2100
4200
4200
FC00
8000
F800
ENDCHAR
STARTCHAR 03F2
ENCODING 1010
SWIDTH 555 0
DWIDTH 8 0
BBX 8 7 0 0
BITMAP
1E
23
40
40
80
84
F8
ENDCHAR
STARTCHAR 03F3
ENCODING 1011
SWIDTH 555 0
DWIDTH 8 0
BBX 8 11 0 -2
BITMAP
01
00
06
02
02
04
04
08
08
98
F0
ENDCHAR
STARTCHAR 03F4
ENCODING 1012
SWIDTH 555 0
DWIDTH 8 0
BBX 8 9 0 0
BITMAP
1F
21
21
61
7E
42
84
84
F8
ENDCHAR
STARTCHAR 03F5
ENCODING 1013
SWIDTH 555 0
DWIDTH 8 0
BBX 8 7 0 0
BITMAP
1F
30
40
FC
80
40
7C
ENDCHAR
STARTCHAR 03F6
ENCODING 1014
SWIDTH 555 0
DWIDTH 8 0
BBX 8 7 -1 0
BITMAP
1E
01
01
1F
02
06
F8
ENDCHAR
STARTCHAR 0400
ENCODING 1024
SWIDTH 555 0
DWIDTH 8 0
BBX 10 12 -1 0
BITMAP
0200
0300
0000
1FC0
1000
1000
3000
3E00
2000
4000
4000
FE00
ENDCHAR
STARTCHAR 0401
ENCODING 1025
SWIDTH 555 0
DWIDTH 8 0
BBX 10 12 -1 0
BITMAP
0240
0480
0000
1FC0
1000
1000
3000
3E00
2000
4000
4000
FE00
ENDCHAR
STARTCHAR 0402
ENCODING 1026
SWIDTH 555 0
DWIDTH 8 0
BBX 7 9 0 0
BITMAP
3C
10
20
3E
42
42
44
84
98
ENDCHAR
STARTCHAR 0403
ENCODING 1027
SWIDTH 555 0
DWIDTH 8 0
BBX 10 12 -1 0
BITMAP
00C0
0100
0000
1FC0
1000
1000
2000
2000
2000
4000
4000
8000
ENDCHAR
STARTCHAR 0404
ENCODING 1028
SWIDTH 555 0
DWIDTH 8 0
BBX 8 9 0 0
BITMAP
1F
21
20
60
7C
40
84
84
F8
ENDCHAR
STARTCHAR 0405
ENCODING 1029
SWIDTH 555 0
DWIDTH 8 0
BBX 8 9 0 0
BITMAP
1F
21
20
20
1E
02
84
84
F8
ENDCHAR
STARTCHAR 0406
ENCODING 1030
SWIDTH 555 0
DWIDTH 8 0
BBX 6 9 1 0
BITMAP
1C
08
10
10
10
20
20
60
E0
ENDCHAR
STARTCHAR 0407
ENCODING 1031
SWIDTH 555 0
DWIDTH 8 0
BBX 8 12 1 0
BITMAP
09
12
00
1C
08
10
10
10
20
20
60
E0
ENDCHAR
STARTCHAR 0408
ENCODING 1032
SWIDTH 555 0
DWIDTH 8 0
BBX 9 9 0 0
BITMAP
0380
0100
0200
0200
0200
0400
8400
8C00
F000
ENDCHAR
STARTCHAR 0409
ENCODING 1033
SWIDTH 555 0
DWIDTH 8 0
BBX 9 9 -1 0
BITMAP
1E00
1200
2400
2700
6480
4900
4900
9B00
1C00
ENDCHAR
STARTCHAR 040A
ENCODING 1034
SWIDTH 555 0
DWIDTH 8 0
BBX 9 9 -1 0
BITMAP
1200
1200
2400
2700
7C80
4900
4900
9B00
9C00
ENDCHAR
STARTCHAR 040B
ENCODING 1035
SWIDTH 555 0
DWIDTH 8 0
BBX 7 9 0 0
BITMAP
3C
10
20
3E
42
42
44
84
84
ENDCHAR
STARTCHAR 040C
ENCODING 1036
SWIDTH 555 0
DWIDTH 8 0
BBX 10 12 -1 0
BITMAP
00C0
0100
0000
10C0
1300
1600
3800
3000
3800
4C00
4400
8200
ENDCHAR
STARTCHAR 040D
ENCODING 1037
SWIDTH 555 0
DWIDTH 8 0
BBX 10 12 -1 0
BITMAP
0200
0300
0000
1840
1080
1180
2300
2D00
3100
4200
4200
C200
ENDCHAR
STARTCHAR 040E
ENCODING 1038
SWIDTH 555 0
DWIDTH 8 0
BBX 9 12 0 0
BITMAP
0400
0700
0000
2080
2100
2100
6300
3E00
0200
0400
0400
F800
ENDCHAR
STARTCHAR 040F
ENCODING 1039
SWIDTH 555 0
DWIDTH 8 0
BBX 10 11 -1 -2
BITMAP
1840
1080
1080
2100
2100
2100
4200
4200
FE00
1000
2000
ENDCHAR
STARTCHAR 0410
ENCODING 1040
SWIDTH 555 0
DWIDTH 8 0
BBX 9 9 -1 0
BITMAP
0F80
1080
1080
2180
3F00
2100
4200
4200
C200
ENDCHAR
STARTCHAR 0411
ENCODING 1041
SWIDTH 555 0
DWIDTH 8 0
BBX 9 9 -1 0
BITMAP
1F80
1000
1000
3F00
2100
2100
4200
4200
FC00
ENDCHAR
STARTCHAR 0412
ENCODING 1042
SWIDTH 555 0
DWIDTH 8 0
BBX 9 9 -1 0
BITMAP
1F80
1080
1080
3F00
2300
2100
4200
4200
FC00
ENDCHAR
STARTCHAR 0413
ENCODING 1043
SWIDTH 555 0
DWIDTH 8 0
BBX 10 9 -1 0
BITMAP
1FC0
1000
1000
2000
2000
2000
4000
4000
8000
ENDCHAR
STARTCHAR 0414
ENCODING 1044
SWIDTH 555 0
DWIDTH 8 0
BBX 10 11 -2 -2
BITMAP
07C0
0440
0880
0880
0880
1100
1100
3100
7F00
C100
8300
ENDCHAR
STARTCHAR 0415
ENCODING 1045
SWIDTH 555 0
DWIDTH 8 0
BBX 10 9 -1 0
BITMAP
1FC0
1000
1000
3000
3E00
2000
4000
4000
FE00
ENDCHAR
STARTCHAR 0416
ENCODING 1046
SWIDTH 555 0
DWIDTH 8 0
BBX 10 9 -1 0
BITMAP
1240
1280
1480
1F00
1E00
2B00
4A00
5200
9200
ENDCHAR
STARTCHAR 0417
ENCODING 1047
SWIDTH 555 0
DWIDTH 8 0
BBX 8 9 0 0
BITMAP
1F
21
01
03
1E
02
84
84
F8
ENDCHAR
STARTCHAR 0418
ENCODING 1048
SWIDTH 555 0
DWIDTH 8 0
BBX 10 9 -1 0
BITMAP
1840
1080
1180
2300
2D00
3100
4200
4200
C200
ENDCHAR
STARTCHAR 0419
ENCODING 1049
SWIDTH 555 0
DWIDTH 8 0
BBX 10 12 -1 0
BITMAP
0200
0380
0000
1840
1080
1180
2300
2D00
3100
4200
4200
C200
ENDCHAR
STARTCHAR 041A
ENCODING 1050
SWIDTH 555 0
DWIDTH 8 0
BBX 10 9 -1 0
BITMAP
10C0
1300
1600
3800
3000
3800
4C00
4400
8200
ENDCHAR
STARTCHAR 041B
ENCODING 1051
SWIDTH 555 0
DWIDTH 8 0
BBX 10 9 -1 0
BITMAP
07C0
0880
0880
1100
1100
1100
2200
2200
C200
ENDCHAR
STARTCHAR 041C
ENCODING 1052
SWIDTH 555 0
DWIDTH 8 0
BBX 10 9 -1 0
BITMAP
10C0
1980
2E80
2500
4100
4100
4200
8200
8200
ENDCHAR
STARTCHAR 041D
ENCODING 1053
SWIDTH 555 0
DWIDTH 8 0
BBX 10 9 -1 0
BITMAP
1040
1080
1080
3100
3F00
2100
4200
4200
8200
ENDCHAR
STARTCHAR 041E
ENCODING 1054
SWIDTH 555 0
DWIDTH 8 0
BBX 8 9 0 0
BITMAP
1F
21
21
41
42
42
84
84
F8
ENDCHAR
STARTCHAR 041F
ENCODING 1055
SWIDTH 555 0
DWIDTH 8 0
BBX 10 9 -1 0
BITMAP
1FC0
1080
1080
2100
2100
2100
4200
4200
8200
ENDCHAR
STARTCHAR 0420
ENCODING 1056
SWIDTH 555 0
DWIDTH 8 0
BBX 9 9 -1 0
BITMAP
1F80
1080
1080
2080
3F00
2000
4000
4000
C000
ENDCHAR
STARTCHAR 0421
ENCODING 1057
SWIDTH 555 0
DWIDTH 8 0
BBX 8 9 0 0
BITMAP
1F
21
20
40
40
40
84
84
F8
ENDCHAR
STARTCHAR 0422
ENCODING 1058
SWIDTH 555 0
DWIDTH 8 0
BBX 7 9 2 0
BITMAP
7E
10
20
20
20
40
40
80
80
ENDCHAR
STARTCHAR 0423
ENCODING 1059
SWIDTH 555 0
DWIDTH 8 0
BBX 9 9 0 0
BITMAP
2080
2100
2100
6300
3E00
0200
0400
0400
F800
ENDCHAR
STARTCHAR 0424
ENCODING 1060
SWIDTH 555 0
DWIDTH 8 0
BBX 8 10 0 -1
BITMAP
02
1F
25
29
4B
4A
52
94
B4
F8
ENDCHAR
STARTCHAR 0425
ENCODING 1061
SWIDTH 555 0
DWIDTH 8 0
BBX 9 9 0 0
BITMAP
1080
1100
1200
1C00
1800
2800
4800
8400
0400
ENDCHAR
STARTCHAR 0426
ENCODING 1062
SWIDTH 555 0
DWIDTH 8 0
BBX 9 11 0 -2
BITMAP
3080
2100
2100
4200
4200
4200
8400
8400
FE00
0400
0400
ENDCHAR
STARTCHAR 0427
ENCODING 1063
SWIDTH 555 0
DWIDTH 8 0
BBX 8 9 1 0
BITMAP
41
42
42
C4
7C
04
08
08
08
ENDCHAR
STARTCHAR 0428
ENCODING 1064
SWIDTH 555 0
DWIDTH 8 0
BBX 9 9 0 0
BITMAP
3480
2500
2900
4A00
4A00
5200
9400
B400
FC00
ENDCHAR
STARTCHAR 0429
ENCODING 1065
SWIDTH 555 0
DWIDTH 8 0
BBX 9 11 0 -2
BITMAP
3480
2500
2900
4A00
4A00
5200
9400
B400
FC00
0400
0400
ENDCHAR
STARTCHAR 042A
ENCODING 1066
SWIDTH 555 0
DWIDTH 8 0
BBX 8 9 -1 0
BITMAP
10
10
1E
21
21
22
42
44
F8
ENDCHAR
STARTCHAR 042B
ENCODING 1067
SWIDTH 555 0
DWIDTH 8 0
BBX 10 9 -1 0
BITMAP
1040
1080
3880
2500
6500
4500
4A00
8A00
F200
ENDCHAR
STARTCHAR 042C
ENCODING 1068
SWIDTH 555 0
DWIDTH 8 0
BBX 8 9 -1 0
BITMAP
10
10
1E
21
21
22
42
44
F8
ENDCHAR
STARTCHAR 042D
ENCODING 1069
SWIDTH 555 0
DWIDTH 8 0
BBX 8 9 0 0
BITMAP
1F
21
01
01
1E
02
84
84
78
ENDCHAR
STARTCHAR 042E
ENCODING 1070
SWIDTH 555 0
DWIDTH 8 0
BBX 9 9 -1 0
BITMAP
1380
1480
2480
2980
7900
4900
5200
9A00
9C00
ENDCHAR
STARTCHAR 042F
ENCODING 1071
SWIDTH 555 0
DWIDTH 8 0
BBX 9 9 0 0
BITMAP
1F80
2100
2100
6200
3E00
1A00
2400
C400
0400
ENDCHAR
STARTCHAR 0430
ENCODING 1072
SWIDTH 555 0
DWIDTH 8 0
BBX 8 7 0 0
BITMAP
3E
03
02
7E
84
84
7C
ENDCHAR
STARTCHAR 0431
ENCODING 1073
SWIDTH 555 0
DWIDTH 8 0
BBX 9 9 -1 0
BITMAP
0F80
1000
1000
3F00
2100
2100
4200
4200
FC00
ENDCHAR
STARTCHAR 0432
ENCODING 1074
SWIDTH 555 0
DWIDTH 8 0
BBX 8 9 -1 0
BITMAP
0F
11
11
3E
23
21
42
42
FC
ENDCHAR
STARTCHAR 0433
ENCODING 1075
SWIDTH 555 0
DWIDTH 8 0
BBX 9 7 -1 0
BITMAP
1F80
3000
2000
2000
4000
4000
8000
ENDCHAR
STARTCHAR 0434
ENCODING 1076
SWIDTH 555 0
DWIDTH 8 0
BBX 9 9 -1 -2
BITMAP
0F80
1180
2100
2100
4200
4200
7E00
0400
F800
ENDCHAR
STARTCHAR 0435
ENCODING 1077
SWIDTH 555 0
DWIDTH 8 0
BBX 8 7 0 0
BITMAP
1E
23
42
7E
80
80
FC
ENDCHAR
STARTCHAR 0436
ENCODING 1078
SWIDTH 555 0
DWIDTH 8 0
BBX 8 7 0 0
BITMAP
29
69
2E
38
D4
A4
A4
ENDCHAR
STARTCHAR 0437
ENCODING 1079
SWIDTH 555 0
DWIDTH 8 0
BBX 8 7 0 0
BITMAP
1E
33
02
1C
04
C4
F8
ENDCHAR
STARTCHAR 0438
ENCODING 1080
SWIDTH 555 0
DWIDTH 8 0
BBX 8 7 0 0
BITMAP
21
43
42
42
84
84
FC
ENDCHAR
STARTCHAR 0439
ENCODING 1081
SWIDTH 555 0
DWIDTH 8 0
BBX 8 9 0 1
BITMAP
09
0E
21
43
42
42
84
84
FC
ENDCHAR
STARTCHAR 043A
ENCODING 1082
SWIDTH 555 0
DWIDTH 8 0
BBX 8 7 0 0
BITMAP
23
24
68
70
50
98
8C
ENDCHAR
STARTCHAR 043B
ENCODING 1083
SWIDTH 555 0
DWIDTH 8 0
BBX 9 7 -1 0
BITMAP
0780
0980
1100
1100
2200
2200
C200
ENDCHAR
STARTCHAR 043C
ENCODING 1084
SWIDTH 555 0
DWIDTH 8 0
BBX 8 7 -1 0
BITMAP
20
33
7F
49
42
82
82
ENDCHAR
STARTCHAR 043D
ENCODING 1085
SWIDTH 555 0
DWIDTH 8 0
BBX 9 7 -1 0
BITMAP
1080
2180
2100
3F00
4200
4200
8200
ENDCHAR
STARTCHAR 043E
ENCODING 1086
SWIDTH 555 0
DWIDTH 8 0
BBX 8 7 0 0
BITMAP
1E
23
42
42
84
84
F8
ENDCHAR
STARTCHAR 043F
ENCODING 1087
SWIDTH 555 0
DWIDTH 8 0
BBX 9 7 -1 0
BITMAP
1F80
3180
2100
2100
4200
4200
8200
ENDCHAR
STARTCHAR 0440
ENCODING 1088
SWIDTH 555 0
DWIDTH 8 0
BBX 9 9 -1 -2
BITMAP
1F00
2180
2100
2100
4200
4200
FC00
8000
8000
ENDCHAR
STARTCHAR 0441
ENCODING 1089
SWIDTH 555 0
DWIDTH 8 0
BBX 8 7 0 0
BITMAP
1E
23
40
40
80
84
F8
ENDCHAR
STARTCHAR 0442
ENCODING 1090
SWIDTH 555 0
DWIDTH 8 0
BBX 6 7 2 0
BITMAP
FC
20
20
40
40
80
80
ENDCHAR
STARTCHAR 0443
ENCODING 1091
SWIDTH 555 0
DWIDTH 8 0
BBX 9 9 -1 -2
BITMAP
1080
2180
2100
2100
4200
4200
7E00
0400
F800
ENDCHAR
STARTCHAR 0444
ENCODING 1092
SWIDTH 555 0
DWIDTH 8 0
BBX 7 9 0 -1
BITMAP
04
1C
2A
4A
52
94
B4
F8
20
ENDCHAR
STARTCHAR 0445
ENCODING 1093
SWIDTH 555 0
DWIDTH 8 0
BBX 8 6 0 0
BITMAP
01
23
24
18
38
CC
ENDCHAR
STARTCHAR 0446
ENCODING 1094
SWIDTH 555 0
DWIDTH 8 0
BBX 8 9 0 -2
BITMAP
21
43
42
42
84
84
FC
04
04
ENDCHAR
STARTCHAR 0447
ENCODING 1095
SWIDTH 555 0
DWIDTH 8 0
BBX 7 7 1 0
BITMAP
42
86
84
FC
08
08
08
ENDCHAR
STARTCHAR 0448
ENCODING 1096
SWIDTH 555 0
DWIDTH 8 0
BBX 8 7 0 0
BITMAP
29
4B
4A
52
94
94
FC
ENDCHAR
STARTCHAR 0449
ENCODING 1097
SWIDTH 555 0
DWIDTH 8 0
BBX 8 9 0 -2
BITMAP
29
4B
4A
52
94
94
FC
04
04
ENDCHAR
STARTCHAR 044A
ENCODING 1098
SWIDTH 555 0
DWIDTH 8 0
BBX 6 7 0 0
BITMAP
30
20
3C
24
44
44
F8
ENDCHAR
STARTCHAR 044B
ENCODING 1099
SWIDTH 555 0
DWIDTH 8 0
BBX 9 7 -1 0
BITMAP
2080
2180
7900
4900
4A00
CA00
F200
ENDCHAR
STARTCHAR 044C
ENCODING 1100
SWIDTH 555 0
DWIDTH 8 0
BBX 6 7 0 0
BITMAP
20
20
7C
44
44
CC
F0
ENDCHAR
STARTCHAR 044D
ENCODING 1101
SWIDTH 555 0
DWIDTH 8 0
BBX 8 7 0 0
BITMAP
1E
33
02
1E
04
84
F8
ENDCHAR
STARTCHAR 044E
ENCODING 1102
SWIDTH 555 0
DWIDTH 8 0
BBX 9 7 -1 0
BITMAP
2300
2580
6900
7900
5200
9200
8C00
ENDCHAR
STARTCHAR 044F
ENCODING 1103
SWIDTH 555 0
DWIDTH 8 0
BBX 8 7 0 0
BITMAP
1F
23
42
7E
1C
64
C4
ENDCHAR
STARTCHAR 0450
ENCODING 1104
SWIDTH 555 0
DWIDTH 8 0
BBX 8 9 0 0
BITMAP
0C
04
1E
23
42
7E
80
80
FC
ENDCHAR
STARTCHAR 0451
ENCODING 1105
SWIDTH 555 0
DWIDTH 8 0
BBX 8 9 0 0
BITMAP
11
00
1E
23
42
7E
80
80
FC
ENDCHAR
STARTCHAR 0452
ENCODING 1106
SWIDTH 555 0
DWIDTH 8 0
BBX 9 11 -1 -2
BITMAP
1800
3E00
1F00
3180
2100
2100
4200
4200
8200
0400
1800
ENDCHAR
STARTCHAR 0453
ENCODING 1107
SWIDTH 555 0
DWIDTH 8 0
BBX 9 9 -1 0
BITMAP
0300
0000
1F80
3000
2000
2000
4000
4000
8000
ENDCHAR
STARTCHAR 0454
ENCODING 1108
SWIDTH 555 0
DWIDTH 8 0
BBX 8 7 0 0
BITMAP
1E
23
40
78
80
84
F8
ENDCHAR
STARTCHAR 0455
ENCODING 1109
SWIDTH 555 0
DWIDTH 8 0
BBX 8 7 0 0
BITMAP
1E
27
40
7C
04
C4
78
ENDCHAR
STARTCHAR 0456
ENCODING 1110
SWIDTH 555 0
DWIDTH 8 0
BBX 5 9 1 0
BITMAP
08
00
30
10
10
20
20
60
E0
ENDCHAR
STARTCHAR 0457
ENCODING 1111
SWIDTH 555 0
DWIDTH 8 0
BBX 7 9 1 0
BITMAP
22
00
30
10
10
20
20
60
E0
ENDCHAR
STARTCHAR 0458
ENCODING 1112
SWIDTH 555 0
DWIDTH 8 0
BBX 8 11 0 -2
BITMAP
01
00
06
02
02
04
04
08
08
98
F0
ENDCHAR
STARTCHAR 0459
ENCODING 1113
SWIDTH 555 0
DWIDTH 8 0
BBX 8 7 -1 0
BITMAP
0C
14
27
29
49
5B
9C
ENDCHAR
STARTCHAR 045A
ENCODING 1114
SWIDTH 555 0
DWIDTH 8 0
BBX 8 7 -1 0
BITMAP
24
24
67
79
49
9B
9C
ENDCHAR
STARTCHAR 045B
ENCODING 1115
SWIDTH 555 0
DWIDTH 8 0
BBX 9 9 -1 0
BITMAP
1800
3E00
1F00
3180
2100
2100
4200
4200
8200
ENDCHAR
STARTCHAR 045C
ENCODING 1116
SWIDTH 555 0
DWIDTH 8 0
BBX 8 9 0 0
BITMAP
06
00
23
24
68
70
50
98
8C
ENDCHAR
STARTCHAR 045D
ENCODING 1117
SWIDTH 555 0
DWIDTH 8 0
BBX 8 9 0 0
BITMAP
0C
04
21
43
42
42
84
84
FC
ENDCHAR
STARTCHAR 045E
ENCODING 1118
SWIDTH 555 0
DWIDTH 8 0
BBX 9 11 -1 -1
BITMAP
0480
0700
1080
2180
2100
2100
4200
4200
7E00
0400
F800
ENDCHAR
STARTCHAR 045F
ENCODING 1119
SWIDTH 555 0
DWIDTH 8 0
BBX 9 9 -1 -2
BITMAP
1080
2180
2100
2100
4200
4200
FE00
1000
2000
ENDCHAR
STARTCHAR 0462
ENCODING 1122
SWIDTH 555 0
DWIDTH 8 0
BBX 8 9 -1 0
BITMAP
18
3C
1E
21
21
22
42
44
F8
ENDCHAR
STARTCHAR 0463
ENCODING 1123
SWIDTH 555 0
DWIDTH 8 0
BBX 6 9 0 0
BITMAP
10
30
3C
20
3C
24
44
44
F8
ENDCHAR
STARTCHAR 046A
ENCODING 1130
SWIDTH 555 0
DWIDTH 8 0
BBX 10 9 -1 0
BITMAP
0FC0
0880
0900
0E00
1E00
2B00
4A00
5200
9200
ENDCHAR
STARTCHAR 046B
ENCODING 1131
SWIDTH 555 0
DWIDTH 8 0
BBX 8 7 0 0
BITMAP
3F
61
26
38
D4
A4
A4
ENDCHAR
STARTCHAR 0490
ENCODING 1168
SWIDTH 555 0
DWIDTH 8 0
BBX 10 11 -1 0
BITMAP
0040
0040
1FC0
1000
1000
2000
2000
2000
4000
4000
8000
ENDCHAR
STARTCHAR 0491
ENCODING 1169
SWIDTH 555 0
DWIDTH 8 0
BBX 9 8 -1 0
BITMAP
0080
1F80
3000
2000
2000
4000
4000
8000
ENDCHAR
STARTCHAR 0492
ENCODING 1170
SWIDTH 555 0
DWIDTH 8 0
BBX 10 9 -1 0
BITMAP
1FC0
1000
1000
3000
3C00
2000
4000
4000
8000
ENDCHAR
STARTCHAR 0493
ENCODING 1171
SWIDTH 555 0
DWIDTH 8 0
BBX 8 6 0 0
BITMAP
3F
60
40
F0
80
80
ENDCHAR
STARTCHAR 0494
ENCODING 1172
SWIDTH 555 0
DWIDTH 8 0
BBX 10 11 -1 -2
BITMAP
1FC0
1000
1000
2000
3E00
2300
4200
4200
C200
0400
0800
ENDCHAR
STARTCHAR 0495
ENCODING 1173
SWIDTH 555 0
DWIDTH 8 0
BBX 9 9 -1 -2
BITMAP
1F80
2000
2000
3000
5C00
4400
C400
0800
1000
ENDCHAR
STARTCHAR 0496
ENCODING 1174
SWIDTH 555 0
DWIDTH 8 0
BBX 10 11 -1 -2
BITMAP
1240
1280
1480
1F00
1E00
2B00
4A00
5200
9200
0200
0200
ENDCHAR
STARTCHAR 0497
ENCODING 1175
SWIDTH 555 0
DWIDTH 8 0
BBX 8 9 0 -2
BITMAP
29
69
2E
38
D4
A4
A4
04
04
ENDCHAR
STARTCHAR 0498
ENCODING 1176
SWIDTH 555 0
DWIDTH 8 0
BBX 8 11 0 -2
BITMAP
1F
21
01
03
1E
02
84
84
78
20
40
ENDCHAR
STARTCHAR 0499
ENCODING 1177
SWIDTH 555 0
DWIDTH 8 0
BBX 8 9 0 -2
BITMAP
1E
33
02
1C
04
84
78
20
40
ENDCHAR
STARTCHAR 049A
ENCODING 1178
SWIDTH 555 0
DWIDTH 8 0
BBX 10 11 -1 -2
BITMAP
10C0
1300
1600
3800
3000
3800
4C00
4400
8200
0200
0400
ENDCHAR
STARTCHAR 049B
ENCODING 1179
SWIDTH 555 0
DWIDTH 8 0
BBX 8 9 0 -2
BITMAP
23
24
68
70
50
98
8C
08
08
ENDCHAR
STARTCHAR 049C
ENCODING 1180
SWIDTH 555 0
DWIDTH 8 0
BBX 10 9 -1 0
BITMAP
10C0
1180
2E00
3800
7800
5800
6400
8200
8200
ENDCHAR
STARTCHAR 049D
ENCODING 1181
SWIDTH 555 0
DWIDTH 8 0
BBX 8 7 -1 0
BITMAP
10
2B
3E
38
5C
54
80
ENDCHAR
STARTCHAR 04A0
ENCODING 1184
SWIDTH 555 0
DWIDTH 8 0
BBX 10 9 -1 0
BITMAP
10C0
1300
1600
3800
3000
3800
4C00
4400
8200
ENDCHAR
STARTCHAR 04A1
ENCODING 1185
SWIDTH 555 0
DWIDTH 8 0
BBX 8 7 0 0
BITMAP
63
24
28
70
50
98
8C
ENDCHAR
STARTCHAR 04A2
ENCODING 1186
SWIDTH 555 0
DWIDTH 8 0
BBX 10 11 -1 -2
BITMAP
1040
1080
1080
3100
3F00
2100
4200
4200
8200
0200
0200
ENDCHAR
STARTCHAR 04A3
ENCODING 1187
SWIDTH 555 0
DWIDTH 8 0
BBX 9 9 -1 -2
BITMAP
1080
2180
2100
3F00
4200
4200
8200
0200
0200
ENDCHAR
STARTCHAR 04A4
ENCODING 1188
SWIDTH 555 0
DWIDTH 8 0
BBX 11 9 -1 0
BITMAP
11E0
1100
2200
2200
7E00
4400
4400
8800
8800
ENDCHAR
STARTCHAR 04A5
ENCODING 1189
SWIDTH 555 0
DWIDTH 8 0
BBX 10 7 -1 0
BITMAP
23C0
2200
6200
7C00
4400
8800
8800
ENDCHAR
STARTCHAR 04AA
ENCODING 1194
SWIDTH 555 0
DWIDTH 8 0
BBX 8 11 0 -2
BITMAP
1F
21
20
40
40
40
84
84
F8
20
40
ENDCHAR
STARTCHAR 04AB
ENCODING 1195
SWIDTH 555 0
DWIDTH 8 0
BBX 8 9 0 -2
BITMAP
1E
23
40
40
80
84
F8
20
40
ENDCHAR
STARTCHAR 04AE
ENCODING 1198
SWIDTH 555 0
DWIDTH 8 0
BBX 7 9 2 0
BITMAP
42
44
48
50
60
40
40
80
80
ENDCHAR
STARTCHAR 04AF
ENCODING 1199
SWIDTH 555 0
DWIDTH 8 0
BBX 7 9 1 -2
BITMAP
C2
C2
44
48
50
60
40
40
80
ENDCHAR
STARTCHAR 04B0
ENCODING 1200
SWIDTH 555 0
DWIDTH 8 0
BBX 8 9 1 0
BITMAP
21
22
24
28
30
F8
20
40
40
ENDCHAR
STARTCHAR 04B1
ENCODING 1201
SWIDTH 555 0
DWIDTH 8 0
BBX 8 9 0 -2
BITMAP
61
61
22
24
28
30
F8
20
40
ENDCHAR
STARTCHAR 04B2
ENCODING 1202
SWIDTH 555 0
DWIDTH 8 0
BBX 9 11 0 -2
BITMAP
1080
1100
1200
1C00
1800
2800
4800
8400
0600
0400
0400
ENDCHAR
STARTCHAR 04B3
ENCODING 1203
SWIDTH 555 0
DWIDTH 8 0
BBX 8 9 0 -2
BITMAP
01
23
24
18
38
CC
06
04
04
ENDCHAR
STARTCHAR 04B6
ENCODING 1206
SWIDTH 555 0
DWIDTH 8 0
BBX 8 11 1 -2
BITMAP
41
42
42
C4
7C
04
08
08
08
08
08
ENDCHAR
STARTCHAR 04B7
ENCODING 1207
SWIDTH 555 0
DWIDTH 8 0
BBX 7 9 1 -2
BITMAP
42
86
84
FC
08
08
08
08
08
ENDCHAR
STARTCHAR 04B8
ENCODING 1208
SWIDTH 555 0
DWIDTH 8 0
BBX 8 9 1 0
BITMAP
41
42
52
D4
7C
24
28
08
08
ENDCHAR
STARTCHAR 04B9
ENCODING 1209
SWIDTH 555 0
DWIDTH 8 0
BBX 7 7 1 0
BITMAP
42
86
94
FC
28
08
08
ENDCHAR
STARTCHAR 04BA
ENCODING 1210
SWIDTH 555 0
DWIDTH 8 0
BBX 8 9 -1 0
BITMAP
10
10
10
3F
21
21
42
42
82
ENDCHAR
STARTCHAR 04BB
ENCODING 1211
SWIDTH 555 0
DWIDTH 8 0
BBX 7 7 -1 0
BITMAP
10
20
20
3E
42
42
82
ENDCHAR
STARTCHAR 04C0
ENCODING 1216
SWIDTH 555 0
DWIDTH 8 0
BBX 6 9 1 0
BITMAP
1C
08
10
10
10
20
20
60
E0
ENDCHAR
STARTCHAR 04C1
ENCODING 1217
SWIDTH 555 0
DWIDTH 8 0
BBX 10 12 -1 0
BITMAP
0200
0380
0000
1240
1280
1480
1F00
1E00
2B00
4A00
5200
9200
ENDCHAR
STARTCHAR 04C2
ENCODING 1218
SWIDTH 555 0
DWIDTH 8 0
BBX 8 9 0 1
BITMAP
09
0E
29
69
2E
38
D4
A4
A4
ENDCHAR
STARTCHAR 04CF
ENCODING 1231
SWIDTH 555 0
DWIDTH 8 0
BBX 5 9 1 0
BITMAP
18
08
10
10
10
20
20
60
E0
ENDCHAR
STARTCHAR 04D0
ENCODING 1232
SWIDTH 555 0
DWIDTH 8 0
BBX 9 12 -1 0
BITMAP
0200
0380
0000
0F80
1080
1080
2180
3F00
2100
4200
4200
C200
ENDCHAR
STARTCHAR 04D1
ENCODING 1233
SWIDTH 555 0
DWIDTH 8 0
BBX 8 9 0 1
BITMAP
09
0E
3E
03
02
7E
84
84
7C
ENDCHAR
STARTCHAR 04D2
ENCODING 1234
SWIDTH 555 0
DWIDTH 8 0
BBX 10 12 -1 0
BITMAP
0240
0480
0000
0F80
1080
1080
2180
3F00
2100
4200
4200
C200
ENDCHAR
STARTCHAR 04D3
ENCODING 1235
SWIDTH 555 0
DWIDTH 8 0
BBX 8 9 0 0
BITMAP
11
00
3E
03
02
7E
84
84
7C
ENDCHAR
STARTCHAR 04D4
ENCODING 1236
SWIDTH 555 0
DWIDTH 8 0
BBX 11 9 -1 0
BITMAP
1FE0
1200
2200
2200
7F80
4400
4800
8800
8F00
ENDCHAR
STARTCHAR 04D5
ENCODING 1237
SWIDTH 555 0
DWIDTH 8 0
BBX 9 7 -1 0
BITMAP
1F00
0880
0480
7F00
4800
CB00
7E00
ENDCHAR
STARTCHAR 04D6
ENCODING 1238
SWIDTH 555 0
DWIDTH 8 0
BBX 10 12 -1 0
BITMAP
0200
0380
0000
1FC0
1000
1000
3000
3E00
2000
4000
4000
FE00
ENDCHAR
STARTCHAR 04D7
ENCODING 1239
SWIDTH 555 0
DWIDTH 8 0
BBX 8 9 0 1
BITMAP
09
0E
1E
23
42
7E
80
80
FC
ENDCHAR
STARTCHAR 04D8
ENCODING 1240
SWIDTH 555 0
DWIDTH 8 0
BBX 8 9 0 0
BITMAP
1F
21
01
01
7E
42
84
84
F8
ENDCHAR
STARTCHAR 04D9
ENCODING 1241
SWIDTH 555 0
DWIDTH 8 0
BBX 8 7 0 0
BITMAP
3E
23
02
7E
84
84
F8
ENDCHAR
STARTCHAR 04DA
ENCODING 1242
SWIDTH 555 0
DWIDTH 8 0
BBX 9 12 0 0
BITMAP
0480
0900
0000
1F00
2100
0100
0100
7E00
4200
8400
8400
F800
ENDCHAR
STARTCHAR 04DB
ENCODING 1243
SWIDTH 555 0
DWIDTH 8 0
BBX 8 9 0 0
BITMAP
11
00
3E
23
02
7E
84
84
F8
ENDCHAR
STARTCHAR 04DC
ENCODING 1244
SWIDTH 555 0
DWIDTH 8 0
BBX 10 12 -1 0
BITMAP
0240
0480
0000
1240
1280
1480
1F00
1E00
2B00
4A00
5200
9200
ENDCHAR
STARTCHAR 04DD
ENCODING 1245
SWIDTH 555 0
DWIDTH 8 0
BBX 8 9 0 0
BITMAP
11
00
29
69
2E
38
D4
A4
A4
ENDCHAR
STARTCHAR 04DE
ENCODING 1246
SWIDTH 555 0
DWIDTH 8 0
BBX 9 12 0 0
BITMAP
0480
0900
0000
1F00
2100
0100
0300
1E00
0200
8400
8400
F800
ENDCHAR
STARTCHAR 04DF
ENCODING 1247
SWIDTH 555 0
DWIDTH 8 0
BBX 8 9 0 0
BITMAP
11
00
1E
33
02
1C
04
C4
F8
ENDCHAR
STARTCHAR 04E2
ENCODING 1250
SWIDTH 555 0
DWIDTH 8 0
BBX 10 11 -1 0
BITMAP
0780
0000
1840
1080
1180
2300
2D00
3100
4200
4200
C200
ENDCHAR
STARTCHAR 04E3
ENCODING 1251
SWIDTH 555 0
DWIDTH 8 0
BBX 8 8 0 0
BITMAP
1E
21
43
42
42
84
84
FC
ENDCHAR
STARTCHAR 04E4
ENCODING 1252
SWIDTH 555 0
DWIDTH 8 0
BBX 10 12 -1 0
BITMAP
0240
0480
0000
1840
1080
1180
2300
2D00
3100
4200
4200
C200
ENDCHAR
STARTCHAR 04E5
ENCODING 1253
SWIDTH 555 0
DWIDTH 8 0
BBX 8 9 0 0
BITMAP
11
00
21
43
42
42
84
84
FC
ENDCHAR
STARTCHAR 04E6
ENCODING 1254
SWIDTH 555 0
DWIDTH 8 0
BBX 9 12 0 0
BITMAP
0480
0900
0000
1F00
2100
2100
4100
4200
4200
8400
8400
F800
ENDCHAR
STARTCHAR 04E7
ENCODING 1255
SWIDTH 555 0
DWIDTH 8 0
BBX 8 9 0 0
BITMAP
11
00
1E
23
42
42
84
84
F8
ENDCHAR
STARTCHAR 04E8
ENCODING 1256
SWIDTH 555 0
DWIDTH 8 0
BBX 8 9 0 0
BITMAP
1F
21
21
61
7E
42
84
84
F8
ENDCHAR
STARTCHAR 04E9
ENCODING 1257
SWIDTH 555 0
DWIDTH 8 0
BBX 8 7 0 0
BITMAP
1E
23
42
7E
84
84
F8
ENDCHAR
STARTCHAR 04EA
ENCODING 1258
SWIDTH 555 0
DWIDTH 8 0
BBX 9 12 0 0
BITMAP
0480
0900
0000
1F00
2100
2100
6100
7E00
4200
8400
8400
F800
ENDCHAR
STARTCHAR 04EB
ENCODING 1259
SWIDTH 555 0
DWIDTH 8 0
BBX 8 9 0 0
BITMAP
11
00
1E
23
42
7E
84
84
F8
ENDCHAR
STARTCHAR 04EC
ENCODING 1260
SWIDTH 555 0
DWIDTH 8 0
BBX 9 12 0 0
BITMAP
0480
0900
0000
1F00
2100
0100
0100
1E00
0200
8400
8400
7800
ENDCHAR
STARTCHAR 04ED
ENCODING 1261
SWIDTH 555 0
DWIDTH 8 0
BBX 8 9 0 0
BITMAP
11
00
1E
33
02
1E
04
84
F8
ENDCHAR
STARTCHAR 04EE
ENCODING 1262
SWIDTH 555 0
DWIDTH 8 0
BBX 9 11 0 0
BITMAP
0F00
0000
2080
2100
2100
6300
3E00
0200
0400
0400
F800
ENDCHAR
STARTCHAR 04EF
ENCODING 1263
SWIDTH 555 0
DWIDTH 8 0
BBX 9 10 -1 -2
BITMAP
0F00
1080
2180
2100
2100
4200
4200
7E00
0400
F800
ENDCHAR
STARTCHAR 04F0
ENCODING 1264
SWIDTH 555 0
DWIDTH 8 0
BBX 9 12 0 0
BITMAP
0480
0900
0000
2080
2100
2100
6300
3E00
0200
0400
0400
F800
ENDCHAR
STARTCHAR 04F1
ENCODING 1265
SWIDTH 555 0
DWIDTH 8 0
BBX 9 11 -1 -2
BITMAP
0880
0000
1080
2180
2100
2100
4200
4200
7E00
0400
F800
ENDCHAR
STARTCHAR 04F2
ENCODING 1266
SWIDTH 555 0
DWIDTH 8 0
BBX 10 12 0 0
BITMAP
0340
0580
0000
2080
2100
2100
6300
3E00
0200
0400
0400
F800
ENDCHAR
STARTCHAR 04F3
ENCODING 1267
SWIDTH 555 0
DWIDTH 8 0
BBX 10 11 -1 -2
BITMAP
06C0
0100
1080
2180
2100
2100
4200
4200
7E00
0400
F800
ENDCHAR
STARTCHAR 04F4
ENCODING 1268
SWIDTH 555 0
DWIDTH 8 0
BBX 8 12 1 0
BITMAP
09
12
00
41
42
42
C4
7C
04
08
08
08
ENDCHAR
STARTCHAR 04F5
ENCODING 1269
SWIDTH 555 0
DWIDTH 8 0
BBX 7 9 1 0
BITMAP
22
00
42
86
84
FC
08
08
08
ENDCHAR
STARTCHAR 04F8
ENCODING 1272
SWIDTH 555 0
DWIDTH 8 0
BBX 10 12 -1 0
BITMAP
0240
0480
0000
1040
1080
3880
2500
6500
4500
4A00
8A00
F200
ENDCHAR
STARTCHAR 04F9
ENCODING 1273
SWIDTH 555 0
DWIDTH 8 0
BBX 9 9 -1 0
BITMAP
0880
0000
2080
2180
7900
4900
4A00
CA00
F200
ENDCHAR
STARTCHAR 05D0
ENCODING 1488
SWIDTH 555 0
DWIDTH 8 0
BBX 10 9 -1 0
BITMAP
0840
0880
0880
0D00
1E00
2400
4400
4200
8200
ENDCHAR
STARTCHAR 05D1
ENCODING 1489
SWIDTH 555 0
DWIDTH 8 0
BBX 9 9 -1 0
BITMAP
1F80
0080
0100
0100
0100
0200
0200
0200
FE00
ENDCHAR
STARTCHAR 05D2
ENCODING 1490
SWIDTH 555 0
DWIDTH 8 0
BBX 8 9 -1 0
BITMAP
0F
01
02
02
02
06
1A
62
82
ENDCHAR
STARTCHAR 05D3
ENCODING 1491
SWIDTH 555 0
DWIDTH 8 0
BBX 7 9 2 0
BITMAP
FE
04
08
08
08
10
10
20
20
ENDCHAR
STARTCHAR 05D4
ENCODING 1492
SWIDTH 555 0
DWIDTH 8 0
BBX 9 9 -1 0
BITMAP
0F80
0080
1080
2180
2100
2100
4200
4200
8200
ENDCHAR
STARTCHAR 05D5
ENCODING 1493
SWIDTH 555 0
DWIDTH 8 0
BBX 4 9 2 0
BITMAP
70
10
20
20
20
40
40
80
80
ENDCHAR
STARTCHAR 05D6
ENCODING 1494
SWIDTH 555 0
DWIDTH 8 0
BBX 6 9 2 0
BITMAP
7C
18
20
20
20
40
40
80
80
ENDCHAR
STARTCHAR 05D7
ENCODING 1495
SWIDTH 555 0
DWIDTH 8 0
BBX 9 9 -1 0
BITMAP
1F80
1080
1080
2180
2100
2100
4200
4200
8200
ENDCHAR
STARTCHAR 05D8
ENCODING 1496
SWIDTH 555 0
DWIDTH 8 0
BBX 8 9 0 0
BITMAP
33
21
21
41
42
42
84
84
F8
ENDCHAR
STARTCHAR 05D9
ENCODING 1497
SWIDTH 555 0
DWIDTH 8 0
BBX 3 4 3 5
BITMAP
E0
20
40
40
ENDCHAR
STARTCHAR 05DA
ENCODING 1498
SWIDTH 555 0
DWIDTH 8 0
BBX 5 11 3 -2
BITMAP
F8
08
08
18
10
10
20
20
20
40
40
ENDCHAR
STARTCHAR 05DB
ENCODING 1499
SWIDTH 555 0
DWIDTH 8 0
BBX 9 9 -1 0
BITMAP
0F80
0080
0080
0080
0100
0100
0200
0200
FC00
ENDCHAR
STARTCHAR 05DC
ENCODING 1500
SWIDTH 555 0
DWIDTH 8 0
BBX 7 11 2 0
BITMAP
40
40
7E
04
04
0C
30
40
80
80
80
ENDCHAR
STARTCHAR 05DD
ENCODING 1501
SWIDTH 555 0
DWIDTH 8 0
BBX 9 9 -1 0
BITMAP
1F80
1080
1080
2180
2100
2100
4200
4200
FE00
ENDCHAR
STARTCHAR 05DE
ENCODING 1502
SWIDTH 555 0
DWIDTH 8 0
BBX 9 9 -1 0
BITMAP
1F80
1080
1080
2100
2100
2100
4200
4200
8E00
ENDCHAR
STARTCHAR 05DF
ENCODING 1503
SWIDTH 555 0
DWIDTH 8 0
BBX 5 11 2 -2
BITMAP
78
08
10
10
10
20
20
40
40
40
80
ENDCHAR
STARTCHAR 05E0
ENCODING 1504
SWIDTH 555 0
DWIDTH 8 0
BBX 7 9 0 0
BITMAP
0E
02
02
04
04
04
08
08
F8
ENDCHAR
STARTCHAR 05E1
ENCODING 1505
SWIDTH 555 0
DWIDTH 8 0
BBX 8 9 0 0
BITMAP
3F
21
21
41
42
42
84
84
F8
ENDCHAR
STARTCHAR 05E2
ENCODING 1506
SWIDTH 555 0
DWIDTH 8 0
BBX 10 9 -1 0
BITMAP
0840
0880
1880
1880
1900
1A00
1C00
1000
E000
ENDCHAR
STARTCHAR 05E3
ENCODING 1507
SWIDTH 555 0
DWIDTH 8 0
BBX 7 11 1 -2
BITMAP
7E
42
42
C6
64
04
08
08
08
10
10
ENDCHAR
STARTCHAR 05E4
ENCODING 1508
SWIDTH 555 0
DWIDTH 8 0
BBX 9 9 -1 0
BITMAP
1F80
1080
1080
3080
1900
0100
0200
0200
FC00
ENDCHAR
STARTCHAR 05E5
ENCODING 1509
SWIDTH 555 0
DWIDTH 8 0
BBX 8 11 1 -2
BITMAP
21
22
26
38
30
20
20
40
40
40
80
ENDCHAR
STARTCHAR 05E6
ENCODING 1510
SWIDTH 555 0
DWIDTH 8 0
BBX 10 9 -1 0
BITMAP
0840
0880
0980
0E00
0C00
0400
0400
0400
FC00
ENDCHAR
STARTCHAR 05E7
ENCODING 1511
SWIDTH 555 0
DWIDTH 8 0
BBX 10 11 -1 -2
BITMAP
0FC0
0080
1080
2180
2600
2800
5000
5000
D000
8000
8000
ENDCHAR
STARTCHAR 05E8
ENCODING 1512
SWIDTH 555 0
DWIDTH 8 0
BBX 5 9 3 0
BITMAP
F8
08
08
18
10
10
20
20
20
ENDCHAR
STARTCHAR 05E9
ENCODING 1513
SWIDTH 555 0
DWIDTH 8 0
BBX 10 9 -1 0
BITMAP
1A40
1280
1480
2580
3900
2100
4200
4200
FC00
ENDCHAR
STARTCHAR 05EA
ENCODING 1514
SWIDTH 555 0
DWIDTH 8 0
BBX 10 9 -2 0
BITMAP
0FC0
0840
0840
10C0
1080
1080
2100
2100
C100
ENDCHAR
STARTCHAR 1E0C
ENCODING 7692
SWIDTH 555 0
DWIDTH 8 0
BBX 9 11 -1 -2
BITMAP
1F80
1080
1080
2180
2100
2100
4200
4600
F800
2000
2000
ENDCHAR
STARTCHAR 1E0D
ENCODING 7693
SWIDTH 555 0
DWIDTH 8 0
BBX 9 11 0 -2
BITMAP
0080
0100
1F00
2200
4200
4200
8400
8400
FC00
2000
2000
ENDCHAR
STARTCHAR 1E34
ENCODING 7732
SWIDTH 555 0
DWIDTH 8 0
BBX 10 11 -1 -2
BITMAP
10C0
1300
1600
3800
3000
3800
4C00
4400
8200
0000
7800
ENDCHAR
STARTCHAR 1E35
ENCODING 7733
SWIDTH 555 0
DWIDTH 8 0
BBX 8 11 0 -2
BITMAP
10
10
23
24
68
70
50
98
8C
00
F0
ENDCHAR
STARTCHAR 1E36
ENCODING 7734
SWIDTH 555 0
DWIDTH 8 0
BBX 7 11 -1 -2
BITMAP
18
10
10
20
20
20
40
40
FE
10
20
ENDCHAR
STARTCHAR 1E37
ENCODING 7735
SWIDTH 555 0
DWIDTH 8 0
BBX 5 11 1 -2
BITMAP
18
08
10
10
10
20
20
60
E0
40
80
ENDCHAR
STARTCHAR 1E40
ENCODING 7744
SWIDTH 555 0
DWIDTH 8 0
BBX 10 12 -1 0
BITMAP
0100
0100
0000
10C0
1980
2E80
2500
4100
4100
4200
8200
8200
ENDCHAR
STARTCHAR 1E41
ENCODING 7745
SWIDTH 555 0
DWIDTH 8 0
BBX 9 9 -1 0
BITMAP
0200
0000
1F00
3580
2500
2900
4A00
5200
9200
ENDCHAR
STARTCHAR 1E42
ENCODING 7746
SWIDTH 555 0
DWIDTH 8 0
BBX 10 11 -1 -2
BITMAP
10C0
1980
2E80
2500
4100
4100
4200
8200
8200
1000
2000
ENDCHAR
STARTCHAR 1E43
ENCODING 7747
SWIDTH 555 0
DWIDTH 8 0
BBX 9 9 -1 -2
BITMAP
1F00
3580
2500
2900
4A00
5200
9200
1000
2000
ENDCHAR
STARTCHAR 1E44
ENCODING 7748
SWIDTH 555 0
DWIDTH 8 0
BBX 10 12 -1 0
BITMAP
0100
0100
0000
1040
1080
1880
2900
2500
2700
4200
4200
8200
ENDCHAR
STARTCHAR 1E45
ENCODING 7749
SWIDTH 555 0
DWIDTH 8 0
BBX 9 9 -1 0
BITMAP
0200
0000
1F00
3180
2100
2100
4200
4200
8200
ENDCHAR
STARTCHAR 1E46
ENCODING 7750
SWIDTH 555 0
DWIDTH 8 0
BBX 10 11 -1 -2
BITMAP
1040
1080
1880
2900
2500
2700
4200
4200
8200
1000
2000
ENDCHAR
STARTCHAR 1E47
ENCODING 7751
SWIDTH 555 0
DWIDTH 8 0
BBX 9 9 -1 -2
BITMAP
1F00
3180
2100
2100
4200
4200
8200
1000
2000
ENDCHAR
STARTCHAR 1E6C
ENCODING 7788
SWIDTH 555 0
DWIDTH 8 0
BBX 8 11 1 -2
BITMAP
3F
08
10
10
10
20
20
40
40
40
80
ENDCHAR
STARTCHAR 1E6D
ENCODING 7789
SWIDTH 555 0
DWIDTH 8 0
BBX 5 11 2 -2
BITMAP
30
20
F8
60
40
40
80
80
F0
40
40
ENDCHAR
STARTCHAR 1EB8
ENCODING 7864
SWIDTH 555 0
DWIDTH 8 0
BBX 10 11 -1 -2
BITMAP
1FC0
1000
1000
3000
3E00
2000
4000
4000
FE00
1000
2000
ENDCHAR
STARTCHAR 1EB9
ENCODING 7865
SWIDTH 555 0
DWIDTH 8 0
BBX 8 9 0 -2
BITMAP
1E
23
42
7E
80
80
FC
20
40
ENDCHAR
STARTCHAR 1EBC
ENCODING 7868
SWIDTH 555 0
DWIDTH 8 0
BBX 10 12 -1 0
BITMAP
0340
0540
0080
1FC0
1000
1000
3000
3E00
2000
4000
4000
FE00
ENDCHAR
STARTCHAR 1EBD
ENCODING 7869
SWIDTH 555 0
DWIDTH 8 0
BBX 8 9 0 0
BITMAP
1D
16
1E
23
42
7E
80
80
FC
ENDCHAR
STARTCHAR 1ECA
ENCODING 7882
SWIDTH 555 0
DWIDTH 8 0
BBX 6 11 1 -2
BITMAP
1C
08
10
10
10
20
20
60
E0
40
80
ENDCHAR
STARTCHAR 1ECB
ENCODING 7883
SWIDTH 555 0
DWIDTH 8 0
BBX 5 11 1 -2
BITMAP
08
00
30
10
10
20
20
60
E0
40
80
ENDCHAR
STARTCHAR 1ECC
ENCODING 7884
SWIDTH 555 0
DWIDTH 8 0
BBX 8 11 0 -2
BITMAP
1F
21
21
41
42
42
84
84
F8
20
40
ENDCHAR
STARTCHAR 1ECD
ENCODING 7885
SWIDTH 555 0
DWIDTH 8 0
BBX 8 9 0 -2
BITMAP
1E
23
42
42
84
84
F8
20
40
ENDCHAR
STARTCHAR 1EE4
ENCODING 7908
SWIDTH 555 0
DWIDTH 8 0
BBX 9 11 0 -2
BITMAP
3080
2100
2100
4300
4200
4200
8400
8400
F800
2000
4000
ENDCHAR
STARTCHAR 1EE5
ENCODING 7909
SWIDTH 555 0
DWIDTH 8 0
BBX 8 9 0 -2
BITMAP
21
43
42
42
84
84
FC
20
20
ENDCHAR
STARTCHAR 1EF8
ENCODING 7928
SWIDTH 555 0
DWIDTH 8 0
BBX 7 12 2 0
BITMAP
1A
2A
04
42
44
48
50
60
40
40
80
80
ENDCHAR
STARTCHAR 1EF9
ENCODING 7929
SWIDTH 555 0
DWIDTH 8 0
BBX 9 11 -1 -2
BITMAP
0E80
0B00
1080
2180
2100
2100
4200
4200
7E00
0400
F800
ENDCHAR
STARTCHAR 2000
ENCODING 8192
SWIDTH 555 0
DWIDTH 8 0
BBX 0 0 0 0
BITMAP
ENDCHAR
STARTCHAR 2001
ENCODING 8193
SWIDTH 555 0
DWIDTH 8 0
BBX 0 0 0 0
BITMAP
ENDCHAR
STARTCHAR 2002
ENCODING 8194
SWIDTH 555 0
DWIDTH 8 0
BBX 0 0 0 0
BITMAP
ENDCHAR
STARTCHAR 2003
ENCODING 8195
SWIDTH 555 0
DWIDTH 8 0
BBX 0 0 0 0
BITMAP
ENDCHAR
STARTCHAR 2004
ENCODING 8196
SWIDTH 555 0
DWIDTH 8 0
BBX 0 0 0 0
BITMAP
ENDCHAR
STARTCHAR 2005
ENCODING 8197
SWIDTH 555 0
DWIDTH 8 0
BBX 0 0 0 0
BITMAP
ENDCHAR
STARTCHAR 2006
ENCODING 8198
SWIDTH 555 0
DWIDTH 8 0
BBX 0 0 0 0
BITMAP
ENDCHAR
STARTCHAR 2007
ENCODING 8199
SWIDTH 555 0
DWIDTH 8 0
BBX 0 0 0 0
BITMAP
ENDCHAR
STARTCHAR 2008
ENCODING 8200
SWIDTH 555 0
DWIDTH 8 0
BBX 0 0 0 0
BITMAP
ENDCHAR
STARTCHAR 2009
ENCODING 8201
SWIDTH 555 0
DWIDTH 8 0
BBX 0 0 0 0
BITMAP
ENDCHAR
STARTCHAR 200A
ENCODING 8202
SWIDTH 555 0
DWIDTH 8 0
BBX 0 0 0 0
BITMAP
ENDCHAR
STARTCHAR 200B
ENCODING 8203
SWIDTH 555 0
DWIDTH 8 0
BBX 0 0 0 0
BITMAP
ENDCHAR
STARTCHAR 200C
ENCODING 8204
SWIDTH 555 0
DWIDTH 8 0
BBX 0 0 0 0
BITMAP
ENDCHAR
STARTCHAR 200D
ENCODING 8205
SWIDTH 555 0
DWIDTH 8 0
BBX 0 0 0 0
BITMAP
ENDCHAR
STARTCHAR 200E
ENCODING 8206
SWIDTH 555 0
DWIDTH 8 0
BBX 0 0 0 0
BITMAP
ENDCHAR
STARTCHAR 200F
ENCODING 8207
SWIDTH 555 0
DWIDTH 8 0
BBX 0 0 0 0
BITMAP
ENDCHAR
STARTCHAR 2010
ENCODING 8208
SWIDTH 555 0
DWIDTH 8 0
BBX 5 1 2 4
BITMAP
F8
ENDCHAR
STARTCHAR 2011
ENCODING 8209
SWIDTH 555 0
DWIDTH 8 0
BBX 5 1 2 4
BITMAP
F8
ENDCHAR
STARTCHAR 2012
ENCODING 8210
SWIDTH 555 0
DWIDTH 8 0
BBX 6 1 1 4
BITMAP
FC
ENDCHAR
STARTCHAR 2013
ENCODING 8211
SWIDTH 555 0
DWIDTH 8 0
BBX 6 1 1 4
BITMAP
FC
ENDCHAR
STARTCHAR 2014
ENCODING 8212
SWIDTH 555 0
DWIDTH 8 0
BBX 7 1 0 4
BITMAP
FE
ENDCHAR
STARTCHAR 2015
ENCODING 8213
SWIDTH 555 0
DWIDTH 8 0
BBX 7 1 0 4
BITMAP
FE
ENDCHAR
STARTCHAR 2016
ENCODING 8214
SWIDTH 555 0
DWIDTH 8 0
BBX 6 9 1 0
BITMAP
14
14
28
28
28
50
50
A0
A0
ENDCHAR
STARTCHAR 2017
ENCODING 8215
SWIDTH 555 0
DWIDTH 8 0
BBX 7 2 -2 -2
BITMAP
7E
FE
ENDCHAR
STARTCHAR 2018
ENCODING 8216
SWIDTH 555 0
DWIDTH 8 0
BBX 2 3 5 7
BITMAP
40
80
80
ENDCHAR
STARTCHAR 2019
ENCODING 8217
SWIDTH 555 0
DWIDTH 8 0
BBX 3 3 4 7
BITMAP
60
40
80
ENDCHAR
STARTCHAR 201A
ENCODING 8218
SWIDTH 555 0
DWIDTH 8 0
BBX 3 3 1 -1
BITMAP
60
40
80
ENDCHAR
STARTCHAR 201B
ENCODING 8219
SWIDTH 555 0
DWIDTH 8 0
BBX 1 2 5 7
BITMAP
80
80
ENDCHAR
STARTCHAR 201C
ENCODING 8220
SWIDTH 555 0
DWIDTH 8 0
BBX 6 3 3 7
BITMAP
6C
88
90
ENDCHAR
STARTCHAR 201D
ENCODING 8221
SWIDTH 555 0
DWIDTH 8 0
BBX 6 3 3 7
BITMAP
6C
48
90
ENDCHAR
STARTCHAR 201E
ENCODING 8222
SWIDTH 555 0
DWIDTH 8 0
BBX 5 3 0 -1
BITMAP
48
90
90
ENDCHAR
STARTCHAR 201F
ENCODING 8223
SWIDTH 555 0
DWIDTH 8 0
BBX 5 2 3 7
BITMAP
98
90
ENDCHAR
STARTCHAR 2020
ENCODING 8224
SWIDTH 555 0
DWIDTH 8 0
BBX 5 9 2 0
BITMAP
10
10
68
20
20
40
40
80
80
ENDCHAR
STARTCHAR 2021
ENCODING 8225
SWIDTH 555 0
DWIDTH 8 0
BBX 6 9 1 0
BITMAP
08
08
34
10
10
20
F8
40
40
ENDCHAR
STARTCHAR 2022
ENCODING 8226
SWIDTH 555 0
DWIDTH 8 0
BBX 3 3 3 3
BITMAP
E0
E0
80
ENDCHAR
STARTCHAR 2026
ENCODING 8230
SWIDTH 555 0
DWIDTH 8 0
BBX 6 2 0 0
BITMAP
B4
20
ENDCHAR
STARTCHAR 2030
ENCODING 8240
SWIDTH 555 0
DWIDTH 8 0
BBX 9 9 -1 0
BITMAP
0D80
1F00
0600
0400
0800
1000
3F00
5F00
9E00
ENDCHAR
STARTCHAR 2032
ENCODING 8242
SWIDTH 555 0
DWIDTH 8 0
BBX 2 3 5 7
BITMAP
C0
80
80
ENDCHAR
STARTCHAR 2033
ENCODING 8243
SWIDTH 555 0
DWIDTH 8 0
BBX 5 3 3 7
BITMAP
D8
90
90
ENDCHAR
STARTCHAR 2039
ENCODING 8249
SWIDTH 555 0
DWIDTH 8 0
BBX 6 7 1 0
BITMAP
0C
10
60
80
40
60
30
ENDCHAR
STARTCHAR 203A
ENCODING 8250
SWIDTH 555 0
DWIDTH 8 0
BBX 6 7 0 0
BITMAP
30
10
08
0C
18
60
80
ENDCHAR
STARTCHAR 203C
ENCODING 8252
SWIDTH 555 0
DWIDTH 8 0
BBX 7 8 1 0
BITMAP
32
24
24
4C
48
00
00
90
ENDCHAR
STARTCHAR 203E
ENCODING 8254
SWIDTH 555 0
DWIDTH 8 0
BBX 6 1 3 10
BITMAP
FC
ENDCHAR
STARTCHAR 2070
ENCODING 8304
SWIDTH 555 0
DWIDTH 8 0
BBX 5 5 3 6
BITMAP
30
48
C8
90
F0
ENDCHAR
STARTCHAR 2071
ENCODING 8305
SWIDTH 555 0
DWIDTH 8 0
BBX 4 6 3 6
BITMAP
10
00
20
20
20
E0
ENDCHAR
STARTCHAR 2074
ENCODING 8308
SWIDTH 555 0
DWIDTH 8 0
BBX 5 5 3 6
BITMAP
08
18
68
90
70
ENDCHAR
STARTCHAR 2075
ENCODING 8309
SWIDTH 555 0
DWIDTH 8 0
BBX 5 5 3 6
BITMAP
78
40
70
10
F0
ENDCHAR
STARTCHAR 2076
ENCODING 8310
SWIDTH 555 0
DWIDTH 8 0
BBX 5 5 3 6
BITMAP
38
40
70
90
F0
ENDCHAR
STARTCHAR 2077
ENCODING 8311
SWIDTH 555 0
DWIDTH 8 0
BBX 4 5 4 6
BITMAP
F0
90
20
40
80
ENDCHAR
STARTCHAR 2078
ENCODING 8312
SWIDTH 555 0
DWIDTH 8 0
BBX 5 5 3 6
BITMAP
38
48
78
90
F0
ENDCHAR
STARTCHAR 2079
ENCODING 8313
SWIDTH 555 0
DWIDTH 8 0
BBX 5 5 3 6
BITMAP
38
48
48
70
E0
ENDCHAR
STARTCHAR 207A
ENCODING 8314
SWIDTH 555 0
DWIDTH 8 0
BBX 3 3 4 7
BITMAP
40
E0
80
ENDCHAR
STARTCHAR 207B
ENCODING 8315
SWIDTH 555 0
DWIDTH 8 0
BBX 4 1 3 7
BITMAP
F0
ENDCHAR
STARTCHAR 207C
ENCODING 8316
SWIDTH 555 0
DWIDTH 8 0
BBX 5 3 3 7
BITMAP
F8
00
F0
ENDCHAR
STARTCHAR 207D
ENCODING 8317
SWIDTH 555 0
DWIDTH 8 0
BBX 3 5 4 6
BITMAP
20
40
80
80
80
ENDCHAR
STARTCHAR 207E
ENCODING 8318
SWIDTH 555 0
DWIDTH 8 0
BBX 3 5 4 6
BITMAP
40
20
20
40
80
ENDCHAR
STARTCHAR 207F
ENCODING 8319
SWIDTH 555 0
DWIDTH 8 0
BBX 6 4 2 6
BITMAP
78
44
48
88
ENDCHAR
STARTCHAR 2080
ENCODING 8320
SWIDTH 555 0
DWIDTH 8 0
BBX 5 5 0 -1
BITMAP
38
48
48
48
F0
ENDCHAR
STARTCHAR 2081
ENCODING 8321
SWIDTH 555 0
DWIDTH 8 0
BBX 4 5 0 -1
BITMAP
10
30
20
20
E0
ENDCHAR
STARTCHAR 2082
ENCODING 8322
SWIDTH 555 0
DWIDTH 8 0
BBX 6 5 0 -1
BITMAP
38
4C
10
60
F0
ENDCHAR
STARTCHAR 2083
ENCODING 8323
SWIDTH 555 0
DWIDTH 8 0
BBX 5 5 0 -1
BITMAP
38
08
18
08
F0
ENDCHAR
STARTCHAR 2084
ENCODING 8324
SWIDTH 555 0
DWIDTH 8 0
BBX 5 5 1 -1
BITMAP
18
30
D0
F0
20
ENDCHAR
STARTCHAR 2085
ENCODING 8325
SWIDTH 555 0
DWIDTH 8 0
BBX 4 5 1 -1
BITMAP
70
80
F0
10
E0
ENDCHAR
STARTCHAR 2086
ENCODING 8326
SWIDTH 555 0
DWIDTH 8 0
BBX 5 5 0 -1
BITMAP
38
40
78
C8
F0
ENDCHAR
STARTCHAR 2087
ENCODING 8327
SWIDTH 555 0
DWIDTH 8 0
BBX 4 5 2 -1
BITMAP
F0
20
40
80
80
ENDCHAR
STARTCHAR 2088
ENCODING 8328
SWIDTH 555 0
DWIDTH 8 0
BBX 5 5 0 -1
BITMAP
38
48
78
C8
F0
ENDCHAR
STARTCHAR 2089
ENCODING 8329
SWIDTH 555 0
DWIDTH 8 0
BBX 5 5 0 -1
BITMAP
38
48
78
08
F0
ENDCHAR
STARTCHAR 208A
ENCODING 8330
SWIDTH 555 0
DWIDTH 8 0
BBX 4 4 1 -1
BITMAP
20
70
C0
40
ENDCHAR
STARTCHAR 208B
ENCODING 8331
SWIDTH 555 0
DWIDTH 8 0
BBX 5 1 0 1
BITMAP
F8
ENDCHAR
STARTCHAR 208C
ENCODING 8332
SWIDTH 555 0
DWIDTH 8 0
BBX 5 3 0 0
BITMAP
78
00
F8
ENDCHAR
STARTCHAR 208D
ENCODING 8333
SWIDTH 555 0
DWIDTH 8 0
BBX 2 5 2 -1
BITMAP
40
80
80
80
80
ENDCHAR
STARTCHAR 208E
ENCODING 8334
SWIDTH 555 0
DWIDTH 8 0
BBX 3 5 1 -1
BITMAP
20
20
20
20
C0
ENDCHAR
STARTCHAR 2090
ENCODING 8336
SWIDTH 555 0
DWIDTH 8 0
BBX 5 4 0 -1
BITMAP
38
78
88
F0
ENDCHAR
STARTCHAR 2091
ENCODING 8337
SWIDTH 555 0
DWIDTH 8 0
BBX 5 4 0 -1
BITMAP
78
F8
80
F0
ENDCHAR
STARTCHAR 2092
ENCODING 8338
SWIDTH 555 0
DWIDTH 8 0
BBX 5 4 0 -1
BITMAP
78
88
88
F0
ENDCHAR
STARTCHAR 2093
ENCODING 8339
SWIDTH 555 0
DWIDTH 8 0
BBX 6 4 -1 0
BITMAP
2C
18
38
C8
ENDCHAR
STARTCHAR 2094
ENCODING 8340
SWIDTH 555 0
DWIDTH 8 0
BBX 5 4 0 -1
BITMAP
78
78
88
F0
ENDCHAR
STARTCHAR 2095
ENCODING 8341
SWIDTH 555 0
DWIDTH 8 0
BBX 5 6 0 -1
BITMAP
40
40
78
88
88
90
ENDCHAR
STARTCHAR 2096
ENCODING 8342
SWIDTH 555 0
DWIDTH 8 0
BBX 6 6 0 -1
BITMAP
20
20
5C
70
70
90
ENDCHAR
STARTCHAR 2097
ENCODING 8343
SWIDTH 555 0
DWIDTH 8 0
BBX 5 6 0 -1
BITMAP
18
10
10
20
20
E0
ENDCHAR
STARTCHAR 2098
ENCODING 8344
SWIDTH 555 0
DWIDTH 8 0
BBX 7 4 -1 -1
BITMAP
7E
52
92
94
ENDCHAR
STARTCHAR 209A
ENCODING 8346
SWIDTH 555 0
DWIDTH 8 0
BBX 6 6 -1 -3
BITMAP
3C
44
44
78
80
80
ENDCHAR
STARTCHAR 20A7
ENCODING 8359
SWIDTH 555 0
DWIDTH 8 0
BBX 8 9 -1 0
BITMAP
1E
12
22
26
7A
4F
44
84
86
ENDCHAR
STARTCHAR 20AA
ENCODING 8362
SWIDTH 555 0
DWIDTH 8 0
BBX 10 9 -1 0
BITMAP
1F40
1140
2A80
2A80
7A80
5500
5100
B300
BC00
ENDCHAR
STARTCHAR 20AC
ENCODING 8364
SWIDTH 555 0
DWIDTH 8 0
BBX 10 9 -1 0
BITMAP
0780
08C0
3000
3E00
2000
FC00
6000
3200
3C00
ENDCHAR
STARTCHAR 20AE
ENCODING 8366
SWIDTH 555 0
DWIDTH 8 0
BBX 7 9 2 0
BITMAP
7E
10
20
38
F8
C0
40
80
80
ENDCHAR
STARTCHAR 2102
ENCODING 8450
SWIDTH 555 0
DWIDTH 8 0
BBX 8 9 0 0
BITMAP
1F
29
30
50
50
60
A4
E4
F8
ENDCHAR
STARTCHAR 210E
ENCODING 8462
SWIDTH 555 0
DWIDTH 8 0
BBX 9 9 -1 0
BITMAP
1000
1000
1F00
3180
2100
2100
4200
4200
8200
ENDCHAR
STARTCHAR 210F
ENCODING 8463
SWIDTH 555 0
DWIDTH 8 0
BBX 9 9 -1 0
BITMAP
1800
3E00
1F00
3180
2100
2100
4200
4200
8200
ENDCHAR
STARTCHAR 2115
ENCODING 8469
SWIDTH 555 0
DWIDTH 8 0
BBX 10 9 -1 0
BITMAP
1040
1080
1880
3500
2B00
2700
4200
4200
8200
ENDCHAR
STARTCHAR 2116
ENCODING 8470
SWIDTH 555 0
DWIDTH 8 0
BBX 11 9 -2 0
BITMAP
1960
19E0
1AC0
3A00
2A00
2C00
4D80
4B80
8800
ENDCHAR
STARTCHAR 211A
ENCODING 8474
SWIDTH 555 0
DWIDTH 8 0
BBX 8 10 0 -1
BITMAP
1F
29
31
53
52
62
A4
FC
F8
0C
ENDCHAR
STARTCHAR 211D
ENCODING 8477
SWIDTH 555 0
DWIDTH 8 0
BBX 9 9 -1 0
BITMAP
1F80
1480
1880
2880
2F00
3400
5A00
6600
E200
ENDCHAR
STARTCHAR 2122
ENCODING 8482
SWIDTH 555 0
DWIDTH 8 0
BBX 7 3 2 6
BITMAP
FA
56
94
ENDCHAR
STARTCHAR 2124
ENCODING 8484
SWIDTH 555 0
DWIDTH 8 0
BBX 10 9 -1 0
BITMAP
0FC0
0080
0380
0500
0C00
3800
6000
4000
FE00
ENDCHAR
STARTCHAR 2126
ENCODING 8486
SWIDTH 555 0
DWIDTH 8 0
BBX 9 9 -1 0
BITMAP
0F80
1080
1080
2180
2100
2300
3600
2C00
EE00
ENDCHAR
STARTCHAR 2135
ENCODING 8501
SWIDTH 555 0
DWIDTH 8 0
BBX 9 9 -1 0
BITMAP
0880
0880
0880
1980
6E00
4400
4400
C400
4400
ENDCHAR
STARTCHAR 2190
ENCODING 8592
SWIDTH 555 0
DWIDTH 8 0
BBX 7 5 1 2
BITMAP
30
C0
FE
C0
40
ENDCHAR
STARTCHAR 2191
ENCODING 8593
SWIDTH 555 0
DWIDTH 8 0
BBX 6 9 2 0
BITMAP
38
78
A4
20
20
40
40
80
80
ENDCHAR
STARTCHAR 2192
ENCODING 8594
SWIDTH 555 0
DWIDTH 8 0
BBX 8 5 0 2
BITMAP
06
02
FF
04
18
ENDCHAR
STARTCHAR 2193
ENCODING 8595
SWIDTH 555 0
DWIDTH 8 0
BBX 6 9 0 0
BITMAP
04
04
08
08
08
10
DC
78
20
ENDCHAR
STARTCHAR 2194
ENCODING 8596
SWIDTH 555 0
DWIDTH 8 0
BBX 8 5 0 3
BITMAP
32
63
FF
46
68
ENDCHAR
STARTCHAR 2195
ENCODING 8597
SWIDTH 555 0
DWIDTH 8 0
BBX 8 9 0 0
BITMAP
0E
1E
29
08
08
10
DC
78
20
ENDCHAR
STARTCHAR 21A4
ENCODING 8612
SWIDTH 555 0
DWIDTH 8 0
BBX 7 5 1 2
BITMAP
32
C2
FE
C4
44
ENDCHAR
STARTCHAR 21A6
ENCODING 8614
SWIDTH 555 0
DWIDTH 8 0
BBX 8 6 0 2
BITMAP
04
46
43
FF
84
98
ENDCHAR
STARTCHAR 21A8
ENCODING 8616
SWIDTH 555 0
DWIDTH 8 0
BBX 9 9 -1 0
BITMAP
0700
0F00
1480
0400
0400
2B00
1C00
1800
FE00
ENDCHAR
STARTCHAR 21B2
ENCODING 8626
SWIDTH 555 0
DWIDTH 8 0
BBX 9 8 0 0
BITMAP
0080
0100
0100
0300
3200
DE00
E000
4000
ENDCHAR
STARTCHAR 21B3
ENCODING 8627
SWIDTH 555 0
DWIDTH 8 0
BBX 6 9 0 0
BITMAP
20
20
40
48
8C
84
7C
18
20
ENDCHAR
STARTCHAR 21B5
ENCODING 8629
SWIDTH 555 0
DWIDTH 8 0
BBX 8 7 0 0
BITMAP
01
01
02
32
DE
E0
40
ENDCHAR
STARTCHAR 21BB
ENCODING 8635
SWIDTH 555 0
DWIDTH 8 0
BBX 7 6 0 2
BITMAP
38
2A
4A
82
84
7C
ENDCHAR
STARTCHAR 21CB
ENCODING 8651
SWIDTH 555 0
DWIDTH 8 0
BBX 9 5 -1 3
BITMAP
3000
7F80
0000
FF00
0600
ENDCHAR
STARTCHAR 21CC
ENCODING 8652
SWIDTH 555 0
DWIDTH 8 0
BBX 8 7 0 1
BITMAP
02
03
FF
00
FE
40
40
ENDCHAR
STARTCHAR 21D0
ENCODING 8656
SWIDTH 555 0
DWIDTH 8 0
BBX 8 5 0 2
BITMAP
30
7F
C0
7E
60
ENDCHAR
STARTCHAR 21D1
ENCODING 8657
SWIDTH 555 0
DWIDTH 8 0
BBX 7 9 1 0
BITMAP
1C
3C
6E
28
28
50
50
A0
A0
ENDCHAR
STARTCHAR 21D2
ENCODING 8658
SWIDTH 555 0
DWIDTH 8 0
BBX 9 5 -1 2
BITMAP
0300
7F00
0180
FE00
0800
ENDCHAR
STARTCHAR 21D3
ENCODING 8659
SWIDTH 555 0
DWIDTH 8 0
BBX 7 9 0 0
BITMAP
0A
0A
14
14
14
AA
EC
78
20
ENDCHAR
STARTCHAR 21D4
ENCODING 8660
SWIDTH 555 0
DWIDTH 8 0
BBX 8 5 0 2
BITMAP
32
7F
C3
7E
68
ENDCHAR
STARTCHAR 21D5
ENCODING 8661
SWIDTH 555 0
DWIDTH 8 0
BBX 8 9 0 0
BITMAP
0E
1E
37
14
14
AA
EC
78
20
ENDCHAR
STARTCHAR 2200
ENCODING 8704
SWIDTH 555 0
DWIDTH 8 0
BBX 7 9 2 0
BITMAP
82
84
F8
88
90
A0
C0
C0
80
ENDCHAR
STARTCHAR 2203
ENCODING 8707
SWIDTH 555 0
DWIDTH 8 0
BBX 10 9 -1 0
BITMAP
0FC0
0080
0080
0100
3F00
0100
0200
0200
FE00
ENDCHAR
STARTCHAR 2204
ENCODING 8708
SWIDTH 555 0
DWIDTH 8 0
BBX 11 12 -2 -1
BITMAP
0020
0020
07E0
00C0
0140
0280
1F80
0880
1100
3100
7F00
C000
ENDCHAR
STARTCHAR 2205
ENCODING 8709
SWIDTH 555 0
DWIDTH 8 0
BBX 8 8 0 0
BITMAP
01
02
3E
4A
52
64
78
80
ENDCHAR
STARTCHAR 2206
ENCODING 8710
SWIDTH 555 0
DWIDTH 8 0
BBX 6 9 0 0
BITMAP
04
0C
14
14
24
44
84
84
FC
ENDCHAR
STARTCHAR 2207
ENCODING 8711
SWIDTH 555 0
DWIDTH 8 0
BBX 7 9 2 0
BITMAP
FE
84
88
88
90
A0
C0
C0
80
ENDCHAR
STARTCHAR 2208
ENCODING 8712
SWIDTH 555 0
DWIDTH 8 0
BBX 8 9 1 0
BITMAP
1F
60
40
C0
FC
80
80
80
78
ENDCHAR
STARTCHAR 2209
ENCODING 8713
SWIDTH 555 0
DWIDTH 8 0
BBX 11 12 -1 -1
BITMAP
0020
0040
0780
1900
1200
3200
3F00
2800
5000
7000
5E00
8000
ENDCHAR
STARTCHAR 220A
ENCODING 8714
SWIDTH 555 0
DWIDTH 8 0
BBX 7 6 1 2
BITMAP
3E
40
C0
FC
80
F8
ENDCHAR
STARTCHAR 220B
ENCODING 8715
SWIDTH 555 0
DWIDTH 8 0
BBX 9 9 -1 0
BITMAP
0F00
0080
0080
0080
3F00
0100
0200
0400
F800
ENDCHAR
STARTCHAR 220C
ENCODING 8716
SWIDTH 555 0
DWIDTH 8 0
BBX 9 12 -1 -1
BITMAP
0800
0800
0F00
0880
0880
0480
3F00
0900
0600
0400
FC00
0400
ENDCHAR
STARTCHAR 220D
ENCODING 8717
SWIDTH 555 0
DWIDTH 8 0
BBX 8 6 0 2
BITMAP
3E
02
01
7E
06
FC
ENDCHAR
STARTCHAR 2212
ENCODING 8722
SWIDTH 555 0
DWIDTH 8 0
BBX 6 1 1 4
BITMAP
FC
ENDCHAR
STARTCHAR 2213
ENCODING 8723
SWIDTH 555 0
DWIDTH 8 0
BBX 7 7 1 0
BITMAP
3E
10
10
20
F8
40
40
ENDCHAR
STARTCHAR 2214
ENCODING 8724
SWIDTH 555 0
DWIDTH 8 0
BBX 5 8 1 0
BITMAP
08
00
10
10
20
F8
40
40
ENDCHAR
STARTCHAR 2215
ENCODING 8725
SWIDTH 555 0
DWIDTH 8 0
BBX 8 5 0 2
BITMAP
03
0C
18
60
80
ENDCHAR
STARTCHAR 2216
ENCODING 8726
SWIDTH 555 0
DWIDTH 8 0
BBX 4 5 2 2
BITMAP
80
C0
60
20
10
ENDCHAR
STARTCHAR 2219
ENCODING 8729
SWIDTH 555 0
DWIDTH 8 0
BBX 3 2 3 4
BITMAP
E0
C0
ENDCHAR
STARTCHAR 221A
ENCODING 8730
SWIDTH 555 0
DWIDTH 8 0
BBX 9 11 1 0
BITMAP
0180
0300
0200
0200
0400
0400
8400
8800
4800
7000
3000
ENDCHAR
STARTCHAR 221E
ENCODING 8734
SWIDTH 555 0
DWIDTH 8 0
BBX 8 4 0 3
BITMAP
3F
49
C9
FE
ENDCHAR
STARTCHAR 221F
ENCODING 8735
SWIDTH 555 0
DWIDTH 8 0
BBX 6 5 0 2
BITMAP
20
40
40
40
FC
ENDCHAR
STARTCHAR 2225
ENCODING 8741
SWIDTH 555 0
DWIDTH 8 0
BBX 6 9 1 0
BITMAP
14
14
28
28
28
50
50
A0
A0
ENDCHAR
STARTCHAR 2227
ENCODING 8743
SWIDTH 555 0
DWIDTH 8 0
BBX 6 7 0 0
BITMAP
08
08
18
24
C4
84
04
ENDCHAR
STARTCHAR 2228
ENCODING 8744
SWIDTH 555 0
DWIDTH 8 0
BBX 5 7 2 0
BITMAP
80
88
90
90
A0
C0
80
ENDCHAR
STARTCHAR 2229
ENCODING 8745
SWIDTH 555 0
DWIDTH 8 0
BBX 8 7 -1 0
BITMAP
0F
31
21
21
42
42
82
ENDCHAR
STARTCHAR 222A
ENCODING 8746
SWIDTH 555 0
DWIDTH 8 0
BBX 8 7 0 0
BITMAP
21
42
42
42
84
C8
70
ENDCHAR
STARTCHAR 2248
ENCODING 8776
SWIDTH 555 0
DWIDTH 8 0
BBX 8 4 0 3
BITMAP
3B
2E
00
FE
ENDCHAR
STARTCHAR 2260
ENCODING 8800
SWIDTH 555 0
DWIDTH 8 0
BBX 8 5 0 2
BITMAP
7F
0C
18
FE
80
ENDCHAR
STARTCHAR 2261
ENCODING 8801
SWIDTH 555 0
DWIDTH 8 0
BBX 8 6 0 2
BITMAP
3F
00
00
7E
00
FC
ENDCHAR
STARTCHAR 2264
ENCODING 8804
SWIDTH 555 0
DWIDTH 8 0
BBX 9 9 -1 0
BITMAP
0180
0600
0800
1800
0800
0C00
0600
0000
FE00
ENDCHAR
STARTCHAR 2265
ENCODING 8805
SWIDTH 555 0
DWIDTH 8 0
BBX 8 9 -1 0
BITMAP
04
06
03
01
06
18
30
00
FE
ENDCHAR
STARTCHAR 226A
ENCODING 8810
SWIDTH 555 0
DWIDTH 8 0
BBX 10 8 0 1
BITMAP
06C0
0D80
3200
4C00
D800
4800
2400
3600
ENDCHAR
STARTCHAR 226B
ENCODING 8811
SWIDTH 555 0
DWIDTH 8 0
BBX 9 8 -1 1
BITMAP
1200
1200
0900
0480
0480
1B00
6400
9800
ENDCHAR
STARTCHAR 2282
ENCODING 8834
SWIDTH 555 0
DWIDTH 8 0
BBX 8 6 0 2
BITMAP
1F
60
40
80
80
7C
ENDCHAR
STARTCHAR 2283
ENCODING 8835
SWIDTH 555 0
DWIDTH 8 0
BBX 9 6 -1 2
BITMAP
1F00
0180
0100
0100
0300
FC00
ENDCHAR
STARTCHAR 2286
ENCODING 8838
SWIDTH 555 0
DWIDTH 8 0
BBX 10 8 -1 1
BITMAP
07C0
1800
2000
2000
2000
2000
1E00
FE00
ENDCHAR
STARTCHAR 2287
ENCODING 8839
SWIDTH 555 0
DWIDTH 8 0
BBX 9 8 -1 1
BITMAP
1F00
0180
0080
0180
0100
0600
7800
FE00
ENDCHAR
STARTCHAR 22A5
ENCODING 8869
SWIDTH 555 0
DWIDTH 8 0
BBX 7 7 -1 0
BITMAP
04
04
04
08
08
18
FE
ENDCHAR
STARTCHAR 22C2
ENCODING 8898
SWIDTH 555 0
DWIDTH 8 0
BBX 9 9 -1 0
BITMAP
0F80
1080
1080
2180
2100
2100
4200
4200
8200
ENDCHAR
STARTCHAR 22C3
ENCODING 8899
SWIDTH 555 0
DWIDTH 8 0
BBX 9 9 0 0
BITMAP
3080
2100
2100
4300
4200
4200
8400
C800
7000
ENDCHAR
STARTCHAR 2300
ENCODING 8960
SWIDTH 555 0
DWIDTH 8 0
BBX 8 8 0 0
BITMAP
01
02
3E
4A
52
64
78
80
ENDCHAR
STARTCHAR 2302
ENCODING 8962
SWIDTH 555 0
DWIDTH 8 0
BBX 9 7 -1 0
BITMAP
0E00
1300
2180
4100
4100
8100
FE00
ENDCHAR
STARTCHAR 2308
ENCODING 8968
SWIDTH 555 0
DWIDTH 8 0
BBX 7 9 0 0
BITMAP
1E
10
10
20
20
20
40
40
C0
ENDCHAR
STARTCHAR 2309
ENCODING 8969
SWIDTH 555 0
DWIDTH 8 0
BBX 4 9 3 0
BITMAP
70
10
20
20
20
40
40
80
80
ENDCHAR
STARTCHAR 230A
ENCODING 8970
SWIDTH 555 0
DWIDTH 8 0
BBX 5 9 0 0
BITMAP
18
10
10
20
20
20
40
40
F0
ENDCHAR
STARTCHAR 230B
ENCODING 8971
SWIDTH 555 0
DWIDTH 8 0
BBX 7 9 0 0
BITMAP
02
02
04
04
04
08
08
10
F0
ENDCHAR
STARTCHAR 2310
ENCODING 8976
SWIDTH 555 0
DWIDTH 8 0
BBX 7 4 1 3
BITMAP
7E
80
80
80
ENDCHAR
STARTCHAR 2319
ENCODING 8985
SWIDTH 555 0
DWIDTH 8 0
BBX 6 4 1 3
BITMAP
40
80
80
FC
ENDCHAR
STARTCHAR 2320
ENCODING 8992
SWIDTH 555 0
DWIDTH 8 0
BBX 7 12 1 -3
BITMAP
0E
08
10
10
10
20
20
40
40
40
80
80
ENDCHAR
STARTCHAR 2321
ENCODING 8993
SWIDTH 555 0
DWIDTH 8 0
BBX 7 12 0 0
BITMAP
02
02
04
04
04
08
08
08
10
10
A0
E0
ENDCHAR
STARTCHAR 239B
ENCODING 9115
SWIDTH 555 0
DWIDTH 8 0
BBX 10 14 -1 -2
BITMAP
0040
0080
0300
0400
0800
0800
1000
3000
2000
2000
4000
4000
4000
8000
ENDCHAR
STARTCHAR 239C
ENCODING 9116
SWIDTH 555 0
DWIDTH 8 0
BBX 6 14 -1 -2
BITMAP
04
04
08
08
08
10
10
30
20
20
40
40
40
80
ENDCHAR
STARTCHAR 239D
ENCODING 9117
SWIDTH 555 0
DWIDTH 8 0
BBX 3 14 2 -2
BITMAP
20
20
40
40
40
80
80
80
80
80
80
80
80
C0
ENDCHAR
STARTCHAR 239E
ENCODING 9118
SWIDTH 555 0
DWIDTH 8 0
BBX 4 14 3 -2
BITMAP
40
20
10
10
10
10
10
10
20
20
40
40
40
80
ENDCHAR
STARTCHAR 239F
ENCODING 9119
SWIDTH 555 0
DWIDTH 8 0
BBX 6 14 3 -2
BITMAP
04
04
08
08
08
10
10
10
20
20
40
40
40
80
ENDCHAR
STARTCHAR 23A0
ENCODING 9120
SWIDTH 555 0
DWIDTH 8 0
BBX 9 14 0 -2
BITMAP
0080
0080
0100
0100
0100
0200
0200
0400
0400
0800
0800
3000
4000
8000
ENDCHAR
STARTCHAR 23A1
ENCODING 9121
SWIDTH 555 0
DWIDTH 8 0
BBX 10 14 -1 -2
BITMAP
07C0
0400
0800
0800
0800
1000
1000
3000
2000
2000
4000
4000
4000
8000
ENDCHAR
STARTCHAR 23A2
ENCODING 9122
SWIDTH 555 0
DWIDTH 8 0
BBX 6 14 -1 -2
BITMAP
04
04
08
08
08
10
10
30
20
20
40
40
40
80
ENDCHAR
STARTCHAR 23A3
ENCODING 9123
SWIDTH 555 0
DWIDTH 8 0
BBX 6 14 -1 -2
BITMAP
04
04
08
08
08
10
10
30
20
20
40
40
40
F8
ENDCHAR
STARTCHAR 23A4
ENCODING 9124
SWIDTH 555 0
DWIDTH 8 0
BBX 6 14 3 -2
BITMAP
7C
04
08
08
08
10
10
10
20
20
40
40
40
80
ENDCHAR
STARTCHAR 23A5
ENCODING 9125
SWIDTH 555 0
DWIDTH 8 0
BBX 6 14 3 -2
BITMAP
04
04
08
08
08
10
10
10
20
20
40
40
40
80
ENDCHAR
STARTCHAR 23A6
ENCODING 9126
SWIDTH 555 0
DWIDTH 8 0
BBX 10 14 -1 -2
BITMAP
0040
0040
0080
0080
0080
0100
0100
0100
0200
0200
0400
0400
0400
F800
ENDCHAR
STARTCHAR 23A7
ENCODING 9127
SWIDTH 555 0
DWIDTH 8 0
BBX 10 14 0 -2
BITMAP
01C0
0600
0800
0800
0800
1000
1000
1000
2000
2000
4000
4000
4000
8000
ENDCHAR
STARTCHAR 23A8
ENCODING 9128
SWIDTH 555 0
DWIDTH 8 0
BBX 6 14 0 -2
BITMAP
04
04
08
08
08
10
30
E0
20
20
40
40
40
80
ENDCHAR
STARTCHAR 23A9
ENCODING 9129
SWIDTH 555 0
DWIDTH 8 0
BBX 5 14 1 -2
BITMAP
08
08
10
10
10
20
20
20
40
40
80
80
80
F0
ENDCHAR
STARTCHAR 23AB
ENCODING 9131
SWIDTH 555 0
DWIDTH 8 0
BBX 5 14 2 -2
BITMAP
70
08
08
08
10
10
20
20
20
40
40
40
80
80
ENDCHAR
STARTCHAR 23AC
ENCODING 9132
SWIDTH 555 0
DWIDTH 8 0
BBX 6 14 2 -2
BITMAP
04
08
08
08
10
10
10
1C
20
40
40
40
80
80
ENDCHAR
STARTCHAR 23AD
ENCODING 9133
SWIDTH 555 0
DWIDTH 8 0
BBX 11 14 -3 -2
BITMAP
0020
0040
0040
0040
0080
0080
0100
0100
0100
0200
0200
0200
0400
F800
ENDCHAR
STARTCHAR 23AE
ENCODING 9134
SWIDTH 555 0
DWIDTH 8 0
BBX 6 14 1 -2
BITMAP
04
04
08
08
08
10
10
10
20
20
40
40
40
80
ENDCHAR
STARTCHAR 23AF
ENCODING 9135
SWIDTH 555 0
DWIDTH 8 0
BBX 8 1 0 4
BITMAP
FF
ENDCHAR
STARTCHAR 23BA
ENCODING 9146
SWIDTH 555 0
DWIDTH 8 0
BBX 8 1 3 11
BITMAP
FF
ENDCHAR
STARTCHAR 23BB
ENCODING 9147
SWIDTH 555 0
DWIDTH 8 0
BBX 8 1 1 7
BITMAP
FF
ENDCHAR
STARTCHAR 23BC
ENCODING 9148
SWIDTH 555 0
DWIDTH 8 0
BBX 8 1 -1 1
BITMAP
FF
ENDCHAR
STARTCHAR 23BD
ENCODING 9149
SWIDTH 555 0
DWIDTH 8 0
BBX 9 1 -3 -2
BITMAP
FF80
ENDCHAR
STARTCHAR 23D0
ENCODING 9168
SWIDTH 555 0
DWIDTH 8 0
BBX 6 14 1 -2
BITMAP
04
04
08
08
08
10
10
10
20
20
40
40
40
80
ENDCHAR
STARTCHAR 23FB
ENCODING 9211
SWIDTH 555 0
DWIDTH 8 0
BBX 8 8 0 1
BITMAP
18
18
5A
DB
99
C1
43
7E
ENDCHAR
STARTCHAR 23FC
ENCODING 9212
SWIDTH 555 0
DWIDTH 8 0
BBX 8 7 0 1
BITMAP
7E
C3
D9
99
DB
66
3C
ENDCHAR
STARTCHAR 23FD
ENCODING 9213
SWIDTH 555 0
DWIDTH 8 0
BBX 3 16 3 -3
BITMAP
C0
E0
E0
E0
E0
E0
E0
E0
E0
E0
E0
E0
E0
E0
E0
C0
ENDCHAR
STARTCHAR 23FE
ENCODING 9214
SWIDTH 555 0
DWIDTH 8 0
BBX 7 9 0 1
BITMAP
20
60
E0
E0
E0
E0
70
38
1E
ENDCHAR
STARTCHAR 2409
ENCODING 9225
SWIDTH 555 0
DWIDTH 8 0
BBX 6 9 1 0
BITMAP
48
78
90
90
00
3C
10
20
20
ENDCHAR
STARTCHAR 240A
ENCODING 9226
SWIDTH 555 0
DWIDTH 8 0
BBX 6 9 1 0
BITMAP
40
40
80
F0
00
3C
70
40
40
ENDCHAR
STARTCHAR 240B
ENCODING 9227
SWIDTH 555 0
DWIDTH 8 0
BBX 6 9 1 0
BITMAP
48
48
D0
60
00
3C
10
20
20
ENDCHAR
STARTCHAR 240C
ENCODING 9228
SWIDTH 555 0
DWIDTH 8 0
BBX 6 9 1 0
BITMAP
78
40
A0
80
00
3C
70
40
40
ENDCHAR
STARTCHAR 240D
ENCODING 9229
SWIDTH 555 0
DWIDTH 8 0
BBX 6 9 1 0
BITMAP
78
40
80
70
00
3C
78
70
58
ENDCHAR
STARTCHAR 2424
ENCODING 9252
SWIDTH 555 0
DWIDTH 8 0
BBX 5 9 1 0
BITMAP
48
68
90
90
00
20
40
40
78
ENDCHAR
STARTCHAR 2500
ENCODING 9472
SWIDTH 555 0
DWIDTH 8 0
BBX 8 1 0 4
BITMAP
FF
ENDCHAR
STARTCHAR 2501
ENCODING 9473
SWIDTH 555 0
DWIDTH 8 0
BBX 8 2 0 4
BITMAP
FF
FF
ENDCHAR
STARTCHAR 2502
ENCODING 9474
SWIDTH 555 0
DWIDTH 8 0
BBX 1 16 4 -3
BITMAP
80
80
80
80
80
80
80
80
80
80
80
80
80
80
80
80
ENDCHAR
STARTCHAR 2503
ENCODING 9475
SWIDTH 555 0
DWIDTH 8 0
BBX 2 16 3 -3
BITMAP
C0
C0
C0
C0
C0
C0
C0
C0
C0
C0
C0
C0
C0
C0
C0
C0
ENDCHAR
STARTCHAR 2504
ENCODING 9476
SWIDTH 555 0
DWIDTH 8 0
BBX 8 1 0 4
BITMAP
DB
ENDCHAR
STARTCHAR 2505
ENCODING 9477
SWIDTH 555 0
DWIDTH 8 0
BBX 8 2 0 4
BITMAP
DB
DB
ENDCHAR
STARTCHAR 2506
ENCODING 9478
SWIDTH 555 0
DWIDTH 8 0
BBX 1 14 4 -2
BITMAP
80
80
80
80
00
80
80
80
80
00
80
80
80
80
ENDCHAR
STARTCHAR 2507
ENCODING 9479
SWIDTH 555 0
DWIDTH 8 0
BBX 2 14 3 -2
BITMAP
C0
C0
C0
C0
00
C0
C0
C0
C0
00
C0
C0
C0
C0
ENDCHAR
STARTCHAR 2508
ENCODING 9480
SWIDTH 555 0
DWIDTH 8 0
BBX 8 1 0 4
BITMAP
FF
ENDCHAR
STARTCHAR 2509
ENCODING 9481
SWIDTH 555 0
DWIDTH 8 0
BBX 8 2 0 4
BITMAP
FF
FF
ENDCHAR
STARTCHAR 250A
ENCODING 9482
SWIDTH 555 0
DWIDTH 8 0
BBX 1 14 4 -2
BITMAP
80
80
80
00
80
80
80
00
80
80
00
00
80
80
ENDCHAR
STARTCHAR 250B
ENCODING 9483
SWIDTH 555 0
DWIDTH 8 0
BBX 2 14 3 -2
BITMAP
C0
C0
C0
00
C0
C0
C0
00
C0
C0
00
00
C0
C0
ENDCHAR
STARTCHAR 250C
ENCODING 9484
SWIDTH 555 0
DWIDTH 8 0
BBX 4 8 4 -3
BITMAP
F0
80
80
80
80
80
80
80
ENDCHAR
STARTCHAR 250D
ENCODING 9485
SWIDTH 555 0
DWIDTH 8 0
BBX 4 9 4 -3
BITMAP
F0
F0
80
80
80
80
80
80
80
ENDCHAR
STARTCHAR 250E
ENCODING 9486
SWIDTH 555 0
DWIDTH 8 0
BBX 5 8 3 -3
BITMAP
F8
C0
C0
C0
C0
C0
C0
C0
ENDCHAR
STARTCHAR 250F
ENCODING 9487
SWIDTH 555 0
DWIDTH 8 0
BBX 5 9 3 -3
BITMAP
F8
F8
C0
C0
C0
C0
C0
C0
C0
ENDCHAR
STARTCHAR 2510
ENCODING 9488
SWIDTH 555 0
DWIDTH 8 0
BBX 5 8 0 -3
BITMAP
F8
08
08
08
08
08
08
08
ENDCHAR
STARTCHAR 2511
ENCODING 9489
SWIDTH 555 0
DWIDTH 8 0
BBX 5 9 0 -3
BITMAP
F8
F8
08
08
08
08
08
08
08
ENDCHAR
STARTCHAR 2512
ENCODING 9490
SWIDTH 555 0
DWIDTH 8 0
BBX 5 8 0 -3
BITMAP
F8
18
18
18
18
18
18
18
ENDCHAR
STARTCHAR 2513
ENCODING 9491
SWIDTH 555 0
DWIDTH 8 0
BBX 5 9 0 -3
BITMAP
F8
F8
18
18
18
18
18
18
18
ENDCHAR
STARTCHAR 2514
ENCODING 9492
SWIDTH 555 0
DWIDTH 8 0
BBX 4 9 4 4
BITMAP
80
80
80
80
80
80
80
80
F0
ENDCHAR
STARTCHAR 2515
ENCODING 9493
SWIDTH 555 0
DWIDTH 8 0
BBX 4 9 4 4
BITMAP
80
80
80
80
80
80
80
F0
F0
ENDCHAR
STARTCHAR 2516
ENCODING 9494
SWIDTH 555 0
DWIDTH 8 0
BBX 5 9 3 4
BITMAP
C0
C0
C0
C0
C0
C0
C0
C0
F8
ENDCHAR
STARTCHAR 2517
ENCODING 9495
SWIDTH 555 0
DWIDTH 8 0
BBX 5 9 3 4
BITMAP
C0
C0
C0
C0
C0
C0
C0
F8
F8
ENDCHAR
STARTCHAR 2518
ENCODING 9496
SWIDTH 555 0
DWIDTH 8 0
BBX 5 9 0 4
BITMAP
08
08
08
08
08
08
08
08
F8
ENDCHAR
STARTCHAR 2519
ENCODING 9497
SWIDTH 555 0
DWIDTH 8 0
BBX 5 9 0 4
BITMAP
08
08
08
08
08
08
08
F8
F8
ENDCHAR
STARTCHAR 251A
ENCODING 9498
SWIDTH 555 0
DWIDTH 8 0
BBX 5 9 0 4
BITMAP
18
18
18
18
18
18
18
18
F8
ENDCHAR
STARTCHAR 251B
ENCODING 9499
SWIDTH 555 0
DWIDTH 8 0
BBX 5 9 0 4
BITMAP
18
18
18
18
18
18
18
F8
F8
ENDCHAR
STARTCHAR 251C
ENCODING 9500
SWIDTH 555 0
DWIDTH 8 0
BBX 4 16 4 -3
BITMAP
80
80
80
80
80
80
80
80
F0
80
80
80
80
80
80
80
ENDCHAR
STARTCHAR 251D
ENCODING 9501
SWIDTH 555 0
DWIDTH 8 0
BBX 4 16 4 -3
BITMAP
80
80
80
80
80
80
80
F0
F0
80
80
80
80
80
80
80
ENDCHAR
STARTCHAR 251E
ENCODING 9502
SWIDTH 555 0
DWIDTH 8 0
BBX 5 16 3 -3
BITMAP
C0
C0
C0
C0
C0
C0
C0
C0
F8
40
40
40
40
40
40
40
ENDCHAR
STARTCHAR 251F
ENCODING 9503
SWIDTH 555 0
DWIDTH 8 0
BBX 5 16 3 -3
BITMAP
40
40
40
40
40
40
40
40
F8
C0
C0
C0
C0
C0
C0
C0
ENDCHAR
STARTCHAR 2520
ENCODING 9504
SWIDTH 555 0
DWIDTH 8 0
BBX 5 16 3 -3
BITMAP
C0
C0
C0
C0
C0
C0
C0
C0
F8
C0
C0
C0
C0
C0
C0
C0
ENDCHAR
STARTCHAR 2521
ENCODING 9505
SWIDTH 555 0
DWIDTH 8 0
BBX 5 16 3 -3
BITMAP
C0
C0
C0
C0
C0
C0
C0
F8
F8
40
40
40
40
40
40
40
ENDCHAR
STARTCHAR 2522
ENCODING 9506
SWIDTH 555 0
DWIDTH 8 0
BBX 5 16 3 -3
BITMAP
40
40
40
40
40
40
40
F8
F8
C0
C0
C0
C0
C0
C0
C0
ENDCHAR
STARTCHAR 2523
ENCODING 9507
SWIDTH 555 0
DWIDTH 8 0
BBX 5 16 3 -3
BITMAP
C0
C0
C0
C0
C0
C0
C0
F8
F8
C0
C0
C0
C0
C0
C0
C0
ENDCHAR
STARTCHAR 2524
ENCODING 9508
SWIDTH 555 0
DWIDTH 8 0
BBX 5 16 0 -3
BITMAP
08
08
08
08
08
08
08
08
F8
08
08
08
08
08
08
08
ENDCHAR
STARTCHAR 2525
ENCODING 9509
SWIDTH 555 0
DWIDTH 8 0
BBX 5 16 0 -3
BITMAP
08
08
08
08
08
08
08
F8
F8
08
08
08
08
08
08
08
ENDCHAR
STARTCHAR 2526
ENCODING 9510
SWIDTH 555 0
DWIDTH 8 0
BBX 5 16 0 -3
BITMAP
18
18
18
18
18
18
18
18
F8
08
08
08
08
08
08
08
ENDCHAR
STARTCHAR 2527
ENCODING 9511
SWIDTH 555 0
DWIDTH 8 0
BBX 5 16 0 -3
BITMAP
08
08
08
08
08
08
08
08
F8
18
18
18
18
18
18
18
ENDCHAR
STARTCHAR 2528
ENCODING 9512
SWIDTH 555 0
DWIDTH 8 0
BBX 5 16 0 -3
BITMAP
18
18
18
18
18
18
18
18
F8
18
18
18
18
18
18
18
ENDCHAR
STARTCHAR 2529
ENCODING 9513
SWIDTH 555 0
DWIDTH 8 0
BBX 5 16 0 -3
BITMAP
18
18
18
18
18
18
18
F8
F8
08
08
08
08
08
08
08
ENDCHAR
STARTCHAR 252A
ENCODING 9514
SWIDTH 555 0
DWIDTH 8 0
BBX 5 16 0 -3
BITMAP
08
08
08
08
08
08
08
F8
F8
18
18
18
18
18
18
18
ENDCHAR
STARTCHAR 252B
ENCODING 9515
SWIDTH 555 0
DWIDTH 8 0
BBX 5 16 0 -3
BITMAP
18
18
18
18
18
18
18
F8
F8
18
18
18
18
18
18
18
ENDCHAR
STARTCHAR 252C
ENCODING 9516
SWIDTH 555 0
DWIDTH 8 0
BBX 8 8 0 -3
BITMAP
FF
08
08
08
08
08
08
08
ENDCHAR
STARTCHAR 252D
ENCODING 9517
SWIDTH 555 0
DWIDTH 8 0
BBX 8 9 0 -3
BITMAP
F8
FF
08
08
08
08
08
08
08
ENDCHAR
STARTCHAR 252E
ENCODING 9518
SWIDTH 555 0
DWIDTH 8 0
BBX 8 9 0 -3
BITMAP
0F
FF
08
08
08
08
08
08
08
ENDCHAR
STARTCHAR 252F
ENCODING 9519
SWIDTH 555 0
DWIDTH 8 0
BBX 8 9 0 -3
BITMAP
FF
FF
08
08
08
08
08
08
08
ENDCHAR
STARTCHAR 2530
ENCODING 9520
SWIDTH 555 0
DWIDTH 8 0
BBX 8 8 0 -3
BITMAP
FF
18
18
18
18
18
18
18
ENDCHAR
STARTCHAR 2531
ENCODING 9521
SWIDTH 555 0
DWIDTH 8 0
BBX 8 9 0 -3
BITMAP
F8
FF
18
18
18
18
18
18
18
ENDCHAR
STARTCHAR 2532
ENCODING 9522
SWIDTH 555 0
DWIDTH 8 0
BBX 8 9 0 -3
BITMAP
1F
FF
18
18
18
18
18
18
18
ENDCHAR
STARTCHAR 2533
ENCODING 9523
SWIDTH 555 0
DWIDTH 8 0
BBX 8 9 0 -3
BITMAP
FF
FF
18
18
18
18
18
18
18
ENDCHAR
STARTCHAR 2534
ENCODING 9524
SWIDTH 555 0
DWIDTH 8 0
BBX 8 9 0 4
BITMAP
08
08
08
08
08
08
08
08
FF
ENDCHAR
STARTCHAR 2535
ENCODING 9525
SWIDTH 555 0
DWIDTH 8 0
BBX 8 9 0 4
BITMAP
08
08
08
08
08
08
08
F8
FF
ENDCHAR
STARTCHAR 2536
ENCODING 9526
SWIDTH 555 0
DWIDTH 8 0
BBX 8 9 0 4
BITMAP
08
08
08
08
08
08
08
0F
FF
ENDCHAR
STARTCHAR 2537
ENCODING 9527
SWIDTH 555 0
DWIDTH 8 0
BBX 8 9 0 4
BITMAP
08
08
08
08
08
08
08
FF
FF
ENDCHAR
STARTCHAR 2538
ENCODING 9528
SWIDTH 555 0
DWIDTH 8 0
BBX 8 9 0 4
BITMAP
18
18
18
18
18
18
18
18
FF
ENDCHAR
STARTCHAR 2539
ENCODING 9529
SWIDTH 555 0
DWIDTH 8 0
BBX 8 9 0 4
BITMAP
18
18
18
18
18
18
18
F8
FF
ENDCHAR
STARTCHAR 253A
ENCODING 9530
SWIDTH 555 0
DWIDTH 8 0
BBX 8 9 0 4
BITMAP
18
18
18
18
18
18
18
1F
FF
ENDCHAR
STARTCHAR 253B
ENCODING 9531
SWIDTH 555 0
DWIDTH 8 0
BBX 8 9 0 4
BITMAP
18
18
18
18
18
18
18
FF
FF
ENDCHAR
STARTCHAR 253C
ENCODING 9532
SWIDTH 555 0
DWIDTH 8 0
BBX 8 16 0 -3
BITMAP
08
08
08
08
08
08
08
08
FF
08
08
08
08
08
08
08
ENDCHAR
STARTCHAR 253D
ENCODING 9533
SWIDTH 555 0
DWIDTH 8 0
BBX 8 16 0 -3
BITMAP
08
08
08
08
08
08
08
F8
FF
08
08
08
08
08
08
08
ENDCHAR
STARTCHAR 253E
ENCODING 9534
SWIDTH 555 0
DWIDTH 8 0
BBX 8 16 0 -3
BITMAP
08
08
08
08
08
08
08
0F
FF
08
08
08
08
08
08
08
ENDCHAR
STARTCHAR 253F
ENCODING 9535
SWIDTH 555 0
DWIDTH 8 0
BBX 8 16 0 -3
BITMAP
08
08
08
08
08
08
08
FF
FF
08
08
08
08
08
08
08
ENDCHAR
STARTCHAR 2540
ENCODING 9536
SWIDTH 555 0
DWIDTH 8 0
BBX 8 16 0 -3
BITMAP
18
18
18
18
18
18
18
18
FF
08
08
08
08
08
08
08
ENDCHAR
STARTCHAR 2541
ENCODING 9537
SWIDTH 555 0
DWIDTH 8 0
BBX 8 16 0 -3
BITMAP
08
08
08
08
08
08
08
08
FF
18
18
18
18
18
18
18
ENDCHAR
STARTCHAR 2542
ENCODING 9538
SWIDTH 555 0
DWIDTH 8 0
BBX 8 16 0 -3
BITMAP
18
18
18
18
18
18
18
18
FF
18
18
18
18
18
18
18
ENDCHAR
STARTCHAR 2543
ENCODING 9539
SWIDTH 555 0
DWIDTH 8 0
BBX 8 16 0 -3
BITMAP
18
18
18
18
18
18
18
F8
FF
08
08
08
08
08
08
08
ENDCHAR
STARTCHAR 2544
ENCODING 9540
SWIDTH 555 0
DWIDTH 8 0
BBX 8 16 0 -3
BITMAP
18
18
18
18
18
18
18
1F
FF
08
08
08
08
08
08
08
ENDCHAR
STARTCHAR 2545
ENCODING 9541
SWIDTH 555 0
DWIDTH 8 0
BBX 8 16 0 -3
BITMAP
08
08
08
08
08
08
08
F8
FF
18
18
18
18
18
18
18
ENDCHAR
STARTCHAR 2546
ENCODING 9542
SWIDTH 555 0
DWIDTH 8 0
BBX 8 16 0 -3
BITMAP
08
08
08
08
08
08
08
1F
FF
18
18
18
18
18
18
18
ENDCHAR
STARTCHAR 2547
ENCODING 9543
SWIDTH 555 0
DWIDTH 8 0
BBX 8 16 0 -3
BITMAP
18
18
18
18
18
18
18
FF
FF
08
08
08
08
08
08
08
ENDCHAR
STARTCHAR 2548
ENCODING 9544
SWIDTH 555 0
DWIDTH 8 0
BBX 8 16 0 -3
BITMAP
08
08
08
08
08
08
08
FF
FF
18
18
18
18
18
18
18
ENDCHAR
STARTCHAR 2549
ENCODING 9545
SWIDTH 555 0
DWIDTH 8 0
BBX 8 16 0 -3
BITMAP
18
18
18
18
18
18
18
F8
FF
18
18
18
18
18
18
18
ENDCHAR
STARTCHAR 254A
ENCODING 9546
SWIDTH 555 0
DWIDTH 8 0
BBX 8 16 0 -3
BITMAP
18
18
18
18
18
18
18
1F
FF
18
18
18
18
18
18
18
ENDCHAR
STARTCHAR 254B
ENCODING 9547
SWIDTH 555 0
DWIDTH 8 0
BBX 8 16 0 -3
BITMAP
18
18
18
18
18
18
18
FF
FF
18
18
18
18
18
18
18
ENDCHAR
STARTCHAR 254C
ENCODING 9548
SWIDTH 555 0
DWIDTH 8 0
BBX 8 1 0 4
BITMAP
FF
ENDCHAR
STARTCHAR 254D
ENCODING 9549
SWIDTH 555 0
DWIDTH 8 0
BBX 8 2 0 4
BITMAP
FF
FF
ENDCHAR
STARTCHAR 254E
ENCODING 9550
SWIDTH 555 0
DWIDTH 8 0
BBX 1 13 4 -2
BITMAP
80
80
80
80
80
00
00
80
80
80
80
80
80
ENDCHAR
STARTCHAR 254F
ENCODING 9551
SWIDTH 555 0
DWIDTH 8 0
BBX 2 13 3 -2
BITMAP
C0
C0
C0
C0
C0
00
00
C0
C0
C0
C0
C0
C0
ENDCHAR
STARTCHAR 2550
ENCODING 9552
SWIDTH 555 0
DWIDTH 8 0
BBX 8 3 0 3
BITMAP
FF
00
FF
ENDCHAR
STARTCHAR 2551
ENCODING 9553
SWIDTH 555 0
DWIDTH 8 0
BBX 3 16 3 -3
BITMAP
A0
A0
A0
A0
A0
A0
A0
A0
A0
A0
A0
A0
A0
A0
A0
A0
ENDCHAR
STARTCHAR 2552
ENCODING 9554
SWIDTH 555 0
DWIDTH 8 0
BBX 4 9 4 -3
BITMAP
F0
80
F0
80
80
80
80
80
80
ENDCHAR
STARTCHAR 2553
ENCODING 9555
SWIDTH 555 0
DWIDTH 8 0
BBX 5 8 3 -3
BITMAP
F8
A0
A0
A0
A0
A0
A0
A0
ENDCHAR
STARTCHAR 2554
ENCODING 9556
SWIDTH 555 0
DWIDTH 8 0
BBX 5 9 3 -3
BITMAP
F8
80
B8
A0
A0
A0
A0
A0
A0
ENDCHAR
STARTCHAR 2555
ENCODING 9557
SWIDTH 555 0
DWIDTH 8 0
BBX 5 9 0 -3
BITMAP
F8
08
F8
08
08
08
08
08
08
ENDCHAR
STARTCHAR 2556
ENCODING 9558
SWIDTH 555 0
DWIDTH 8 0
BBX 6 8 0 -3
BITMAP
FC
14
14
14
14
14
14
14
ENDCHAR
STARTCHAR 2557
ENCODING 9559
SWIDTH 555 0
DWIDTH 8 0
BBX 6 9 0 -3
BITMAP
FC
04
F4
14
14
14
14
14
14
ENDCHAR
STARTCHAR 2558
ENCODING 9560
SWIDTH 555 0
DWIDTH 8 0
BBX 4 10 4 3
BITMAP
80
80
80
80
80
80
80
F0
80
F0
ENDCHAR
STARTCHAR 2559
ENCODING 9561
SWIDTH 555 0
DWIDTH 8 0
BBX 5 9 3 4
BITMAP
A0
A0
A0
A0
A0
A0
A0
A0
F8
ENDCHAR
STARTCHAR 255A
ENCODING 9562
SWIDTH 555 0
DWIDTH 8 0
BBX 5 10 3 3
BITMAP
A0
A0
A0
A0
A0
A0
A0
B8
80
F8
ENDCHAR
STARTCHAR 255B
ENCODING 9563
SWIDTH 555 0
DWIDTH 8 0
BBX 5 10 0 3
BITMAP
08
08
08
08
08
08
08
F8
08
F8
ENDCHAR
STARTCHAR 255C
ENCODING 9564
SWIDTH 555 0
DWIDTH 8 0
BBX 6 9 0 4
BITMAP
14
14
14
14
14
14
14
14
FC
ENDCHAR
STARTCHAR 255D
ENCODING 9565
SWIDTH 555 0
DWIDTH 8 0
BBX 6 10 0 3
BITMAP
14
14
14
14
14
14
14
F4
04
FC
ENDCHAR
STARTCHAR 255E
ENCODING 9566
SWIDTH 555 0
DWIDTH 8 0
BBX 4 16 4 -3
BITMAP
80
80
80
80
80
80
80
F0
80
F0
80
80
80
80
80
80
ENDCHAR
STARTCHAR 255F
ENCODING 9567
SWIDTH 555 0
DWIDTH 8 0
BBX 5 16 3 -3
BITMAP
A0
A0
A0
A0
A0
A0
A0
A0
B8
A0
A0
A0
A0
A0
A0
A0
ENDCHAR
STARTCHAR 2560
ENCODING 9568
SWIDTH 555 0
DWIDTH 8 0
BBX 5 16 3 -3
BITMAP
A0
A0
A0
A0
A0
A0
A0
B8
80
B8
A0
A0
A0
A0
A0
A0
ENDCHAR
STARTCHAR 2561
ENCODING 9569
SWIDTH 555 0
DWIDTH 8 0
BBX 5 16 0 -3
BITMAP
08
08
08
08
08
08
08
F8
08
F8
08
08
08
08
08
08
ENDCHAR
STARTCHAR 2562
ENCODING 9570
SWIDTH 555 0
DWIDTH 8 0
BBX 6 16 0 -3
BITMAP
14
14
14
14
14
14
14
14
F4
14
14
14
14
14
14
14
ENDCHAR
STARTCHAR 2563
ENCODING 9571
SWIDTH 555 0
DWIDTH 8 0
BBX 6 16 0 -3
BITMAP
14
14
14
14
14
14
14
F4
04
F4
14
14
14
14
14
14
ENDCHAR
STARTCHAR 2564
ENCODING 9572
SWIDTH 555 0
DWIDTH 8 0
BBX 8 9 0 -3
BITMAP
FF
00
FF
08
08
08
08
08
08
ENDCHAR
STARTCHAR 2565
ENCODING 9573
SWIDTH 555 0
DWIDTH 8 0
BBX 8 8 0 -3
BITMAP
FF
14
14
14
14
14
14
14
ENDCHAR
STARTCHAR 2566
ENCODING 9574
SWIDTH 555 0
DWIDTH 8 0
BBX 8 9 0 -3
BITMAP
FF
00
F7
14
14
14
14
14
14
ENDCHAR
STARTCHAR 2567
ENCODING 9575
SWIDTH 555 0
DWIDTH 8 0
BBX 8 10 0 3
BITMAP
08
08
08
08
08
08
08
FF
00
FF
ENDCHAR
STARTCHAR 2568
ENCODING 9576
SWIDTH 555 0
DWIDTH 8 0
BBX 8 9 0 4
BITMAP
14
14
14
14
14
14
14
14
FF
ENDCHAR
STARTCHAR 2569
ENCODING 9577
SWIDTH 555 0
DWIDTH 8 0
BBX 8 10 0 3
BITMAP
14
14
14
14
14
14
14
F7
00
FF
ENDCHAR
STARTCHAR 256A
ENCODING 9578
SWIDTH 555 0
DWIDTH 8 0
BBX 8 16 0 -3
BITMAP
08
08
08
08
08
08
08
FF
08
FF
08
08
08
08
08
08
ENDCHAR
STARTCHAR 256B
ENCODING 9579
SWIDTH 555 0
DWIDTH 8 0
BBX 8 16 0 -3
BITMAP
14
14
14
14
14
14
14
14
FF
14
14
14
14
14
14
14
ENDCHAR
STARTCHAR 256C
ENCODING 9580
SWIDTH 555 0
DWIDTH 8 0
BBX 8 16 0 -3
BITMAP
14
14
14
14
14
14
14
F7
00
F7
14
14
14
14
14
14
ENDCHAR
STARTCHAR 256D
ENCODING 9581
SWIDTH 555 0
DWIDTH 8 0
BBX 4 8 4 -3
BITMAP
F0
80
80
80
80
80
80
80
ENDCHAR
STARTCHAR 256E
ENCODING 9582
SWIDTH 555 0
DWIDTH 8 0
BBX 5 8 0 -3
BITMAP
F0
18
08
08
08
08
08
08
ENDCHAR
STARTCHAR 256F
ENCODING 9583
SWIDTH 555 0
DWIDTH 8 0
BBX 5 9 0 4
BITMAP
08
08
08
08
08
08
08
10
E0
ENDCHAR
STARTCHAR 2570
ENCODING 9584
SWIDTH 555 0
DWIDTH 8 0
BBX 4 9 4 4
BITMAP
80
80
80
80
80
80
80
80
70
ENDCHAR
STARTCHAR 2571
ENCODING 9585
SWIDTH 555 0
DWIDTH 8 0
BBX 8 16 0 -3
BITMAP
01
01
02
02
04
04
08
08
10
10
10
20
20
40
40
80
ENDCHAR
STARTCHAR 2572
ENCODING 9586
SWIDTH 555 0
DWIDTH 8 0
BBX 8 16 0 -3
BITMAP
80
C0
40
40
20
20
10
10
08
08
04
04
02
02
03
01
ENDCHAR
STARTCHAR 2573
ENCODING 9587
SWIDTH 555 0
DWIDTH 8 0
BBX 8 16 0 -3
BITMAP
81
C1
42
42
24
24
18
18
18
18
14
24
22
42
43
81
ENDCHAR
STARTCHAR 2574
ENCODING 9588
SWIDTH 555 0
DWIDTH 8 0
BBX 4 1 0 4
BITMAP
F0
ENDCHAR
STARTCHAR 2575
ENCODING 9589
SWIDTH 555 0
DWIDTH 8 0
BBX 1 8 4 5
BITMAP
80
80
80
80
80
80
80
80
ENDCHAR
STARTCHAR 2576
ENCODING 9590
SWIDTH 555 0
DWIDTH 8 0
BBX 4 1 4 4
BITMAP
F0
ENDCHAR
STARTCHAR 2577
ENCODING 9591
SWIDTH 555 0
DWIDTH 8 0
BBX 1 8 4 -3
BITMAP
80
80
80
80
80
80
80
80
ENDCHAR
STARTCHAR 2578
ENCODING 9592
SWIDTH 555 0
DWIDTH 8 0
BBX 4 2 0 4
BITMAP
F0
F0
ENDCHAR
STARTCHAR 2579
ENCODING 9593
SWIDTH 555 0
DWIDTH 8 0
BBX 2 8 3 5
BITMAP
C0
C0
C0
C0
C0
C0
C0
C0
ENDCHAR
STARTCHAR 257A
ENCODING 9594
SWIDTH 555 0
DWIDTH 8 0
BBX 4 2 4 4
BITMAP
F0
F0
ENDCHAR
STARTCHAR 257B
ENCODING 9595
SWIDTH 555 0
DWIDTH 8 0
BBX 2 8 3 -3
BITMAP
C0
C0
C0
C0
C0
C0
C0
C0
ENDCHAR
STARTCHAR 257C
ENCODING 9596
SWIDTH 555 0
DWIDTH 8 0
BBX 8 2 0 4
BITMAP
0F
FF
ENDCHAR
STARTCHAR 257D
ENCODING 9597
SWIDTH 555 0
DWIDTH 8 0
BBX 2 16 3 -3
BITMAP
40
40
40
40
40
40
40
40
C0
C0
C0
C0
C0
C0
C0
C0
ENDCHAR
STARTCHAR 257E
ENCODING 9598
SWIDTH 555 0
DWIDTH 8 0
BBX 8 2 0 4
BITMAP
F0
FF
ENDCHAR
STARTCHAR 257F
ENCODING 9599
SWIDTH 555 0
DWIDTH 8 0
BBX 2 16 3 -3
BITMAP
C0
C0
C0
C0
C0
C0
C0
C0
40
40
40
40
40
40
40
40
ENDCHAR
STARTCHAR 2580
ENCODING 9600
SWIDTH 555 0
DWIDTH 8 0
BBX 8 8 0 5
BITMAP
FF
FF
FF
FF
FF
FF
FF
FF
ENDCHAR
STARTCHAR 2581
ENCODING 9601
SWIDTH 555 0
DWIDTH 8 0
BBX 8 2 0 -3
BITMAP
FF
FF
ENDCHAR
STARTCHAR 2582
ENCODING 9602
SWIDTH 555 0
DWIDTH 8 0
BBX 8 4 0 -3
BITMAP
FF
FF
FF
FF
ENDCHAR
STARTCHAR 2583
ENCODING 9603
SWIDTH 555 0
DWIDTH 8 0
BBX 8 6 0 -3
BITMAP
FF
FF
FF
FF
FF
FF
ENDCHAR
STARTCHAR 2584
ENCODING 9604
SWIDTH 555 0
DWIDTH 8 0
BBX 8 8 0 -3
BITMAP
FF
FF
FF
FF
FF
FF
FF
FF
ENDCHAR
STARTCHAR 2585
ENCODING 9605
SWIDTH 555 0
DWIDTH 8 0
BBX 8 10 0 -3
BITMAP
FF
FF
FF
FF
FF
FF
FF
FF
FF
FF
ENDCHAR
STARTCHAR 2586
ENCODING 9606
SWIDTH 555 0
DWIDTH 8 0
BBX 8 12 0 -3
BITMAP
FF
FF
FF
FF
FF
FF
FF
FF
FF
FF
FF
FF
ENDCHAR
STARTCHAR 2587
ENCODING 9607
SWIDTH 555 0
DWIDTH 8 0
BBX 8 13 0 -3
BITMAP
FF
FF
FF
FF
FF
FF
FF
FF
FF
FF
FF
FF
FF
ENDCHAR
STARTCHAR 2588
ENCODING 9608
SWIDTH 555 0
DWIDTH 8 0
BBX 8 16 0 -3
BITMAP
FF
FF
FF
FF
FF
FF
FF
FF
FF
FF
FF
FF
FF
FF
FF
FF
ENDCHAR
STARTCHAR 2589
ENCODING 9609
SWIDTH 555 0
DWIDTH 8 0
BBX 7 16 0 -3
BITMAP
FE
FE
FE
FE
FE
FE
FE
FE
FE
FE
FE
FE
FE
FE
FE
FE
ENDCHAR
STARTCHAR 258A
ENCODING 9610
SWIDTH 555 0
DWIDTH 8 0
BBX 6 16 0 -3
BITMAP
FC
FC
FC
FC
FC
FC
FC
FC
FC
FC
FC
FC
FC
FC
FC
FC
ENDCHAR
STARTCHAR 258B
ENCODING 9611
SWIDTH 555 0
DWIDTH 8 0
BBX 5 16 0 -3
BITMAP
F8
F8
F8
F8
F8
F8
F8
F8
F8
F8
F8
F8
F8
F8
F8
F8
ENDCHAR
STARTCHAR 258C
ENCODING 9612
SWIDTH 555 0
DWIDTH 8 0
BBX 4 16 0 -3
BITMAP
F0
F0
F0
F0
F0
F0
F0
F0
F0
F0
F0
F0
F0
F0
F0
F0
ENDCHAR
STARTCHAR 258D
ENCODING 9613
SWIDTH 555 0
DWIDTH 8 0
BBX 3 16 0 -3
BITMAP
E0
E0
E0
E0
E0
E0
E0
E0
E0
E0
E0
E0
E0
E0
E0
E0
ENDCHAR
STARTCHAR 258E
ENCODING 9614
SWIDTH 555 0
DWIDTH 8 0
BBX 2 16 0 -3
BITMAP
C0
C0
C0
C0
C0
C0
C0
C0
C0
C0
C0
C0
C0
C0
C0
C0
ENDCHAR
STARTCHAR 258F
ENCODING 9615
SWIDTH 555 0
DWIDTH 8 0
BBX 1 16 0 -3
BITMAP
80
80
80
80
80
80
80
80
80
80
80
80
80
80
80
80
ENDCHAR
STARTCHAR 2590
ENCODING 9616
SWIDTH 555 0
DWIDTH 8 0
BBX 4 16 4 -3
BITMAP
F0
F0
F0
F0
F0
F0
F0
F0
F0
F0
F0
F0
F0
F0
F0
F0
ENDCHAR
STARTCHAR 2591
ENCODING 9617
SWIDTH 555 0
DWIDTH 8 0
BBX 7 16 0 -3
BITMAP
88
88
22
22
88
88
22
22
88
88
00
22
00
88
00
22
ENDCHAR
STARTCHAR 2592
ENCODING 9618
SWIDTH 555 0
DWIDTH 8 0
BBX 8 16 0 -3
BITMAP
96
96
69
96
96
69
69
96
69
69
96
69
69
96
96
69
ENDCHAR
STARTCHAR 2593
ENCODING 9619
SWIDTH 555 0
DWIDTH 8 0
BBX 8 16 0 -3
BITMAP
77
77
DD
DD
77
77
DD
DD
FF
77
FF
DD
FF
77
FF
DD
ENDCHAR
STARTCHAR 2594
ENCODING 9620
SWIDTH 555 0
DWIDTH 8 0
BBX 8 3 0 10
BITMAP
FF
FF
FF
ENDCHAR
STARTCHAR 2595
ENCODING 9621
SWIDTH 555 0
DWIDTH 8 0
BBX 1 16 7 -3
BITMAP
80
80
80
80
80
80
80
80
80
80
80
80
80
80
80
80
ENDCHAR
STARTCHAR 2596
ENCODING 9622
SWIDTH 555 0
DWIDTH 8 0
BBX 4 8 0 -3
BITMAP
F0
F0
F0
F0
F0
F0
F0
F0
ENDCHAR
STARTCHAR 2597
ENCODING 9623
SWIDTH 555 0
DWIDTH 8 0
BBX 4 8 4 -3
BITMAP
F0
F0
F0
F0
F0
F0
F0
F0
ENDCHAR
STARTCHAR 2598
ENCODING 9624
SWIDTH 555 0
DWIDTH 8 0
BBX 4 8 0 5
BITMAP
F0
F0
F0
F0
F0
F0
F0
F0
ENDCHAR
STARTCHAR 2599
ENCODING 9625
SWIDTH 555 0
DWIDTH 8 0
BBX 8 16 0 -3
BITMAP
F0
F0
F0
F0
F0
F0
F0
F0
FF
FF
FF
FF
FF
FF
FF
FF
ENDCHAR
STARTCHAR 259A
ENCODING 9626
SWIDTH 555 0
DWIDTH 8 0
BBX 8 16 0 -3
BITMAP
F0
F0
F0
F0
F0
F0
F0
F0
0F
0F
0F
0F
0F
0F
0F
0F
ENDCHAR
STARTCHAR 259B
ENCODING 9627
SWIDTH 555 0
DWIDTH 8 0
BBX 8 16 0 -3
BITMAP
FF
FF
FF
FF
FF
FF
FF
FF
F0
F0
F0
F0
F0
F0
F0
F0
ENDCHAR
STARTCHAR 259C
ENCODING 9628
SWIDTH 555 0
DWIDTH 8 0
BBX 8 16 0 -3
BITMAP
FF
FF
FF
FF
FF
FF
FF
FF
0F
0F
0F
0F
0F
0F
0F
0F
ENDCHAR
STARTCHAR 259D
ENCODING 9629
SWIDTH 555 0
DWIDTH 8 0
BBX 4 8 4 5
BITMAP
F0
F0
F0
F0
F0
F0
F0
F0
ENDCHAR
STARTCHAR 259E
ENCODING 9630
SWIDTH 555 0
DWIDTH 8 0
BBX 8 16 0 -3
BITMAP
0F
0F
0F
0F
0F
0F
0F
0F
F0
F0
F0
F0
F0
F0
F0
F0
ENDCHAR
STARTCHAR 259F
ENCODING 9631
SWIDTH 555 0
DWIDTH 8 0
BBX 8 16 0 -3
BITMAP
0F
0F
0F
0F
0F
0F
0F
0F
FF
FF
FF
FF
FF
FF
FF
FF
ENDCHAR
STARTCHAR 25A0
ENCODING 9632
SWIDTH 555 0
DWIDTH 8 0
BBX 6 5 1 2
BITMAP
7C
78
F8
F8
F0
ENDCHAR
STARTCHAR 25AC
ENCODING 9644
SWIDTH 555 0
DWIDTH 8 0
BBX 8 4 -1 0
BITMAP
7F
7E
FE
FE
ENDCHAR
STARTCHAR 25AE
ENCODING 9646
SWIDTH 555 0
DWIDTH 8 0
BBX 10 9 -1 0
BITMAP
1FC0
1F80
1F80
3F00
3F00
3F00
7E00
7E00
FE00
ENDCHAR
STARTCHAR 25B2
ENCODING 9650
SWIDTH 555 0
DWIDTH 8 0
BBX 8 7 -1 1
BITMAP
04
0E
0E
1E
3E
7E
FF
ENDCHAR
STARTCHAR 25B6
ENCODING 9654
SWIDTH 555 0
DWIDTH 8 0
BBX 9 6 -1 2
BITMAP
3800
3E00
7F00
7F80
7800
E000
ENDCHAR
STARTCHAR 25BA
ENCODING 9658
SWIDTH 555 0
DWIDTH 8 0
BBX 9 6 -1 2
BITMAP
3800
3E00
7F00
7F80
7800
E000
ENDCHAR
STARTCHAR 25BC
ENCODING 9660
SWIDTH 555 0
DWIDTH 8 0
BBX 8 7 1 1
BITMAP
FF
7E
7C
78
70
60
40
ENDCHAR
STARTCHAR 25C0
ENCODING 9664
SWIDTH 555 0
DWIDTH 8 0
BBX 8 6 1 2
BITMAP
03
1F
FF
FE
3E
0C
ENDCHAR
STARTCHAR 25C4
ENCODING 9668
SWIDTH 555 0
DWIDTH 8 0
BBX 8 6 1 2
BITMAP
03
1F
FF
FE
3E
0C
ENDCHAR
STARTCHAR 25C6
ENCODING 9670
SWIDTH 555 0
DWIDTH 8 0
BBX 7 6 1 2
BITMAP
18
3C
FE
FE
F8
70
ENDCHAR
STARTCHAR 25CA
ENCODING 9674
SWIDTH 555 0
DWIDTH 8 0
BBX 7 6 1 2
BITMAP
18
2C
C6
86
C8
70
ENDCHAR
STARTCHAR 25CB
ENCODING 9675
SWIDTH 555 0
DWIDTH 8 0
BBX 3 3 3 3
BITMAP
E0
A0
C0
ENDCHAR
STARTCHAR 25CF
ENCODING 9679
SWIDTH 555 0
DWIDTH 8 0
BBX 3 3 3 3
BITMAP
E0
E0
80
ENDCHAR
STARTCHAR 25D8
ENCODING 9688
SWIDTH 555 0
DWIDTH 8 0
BBX 13 14 -2 -2
BITMAP
07F8
0FF0
0FF0
1FF0
1FE0
1FE0
38E0
38C0
3BC0
7F80
7F80
FF80
FF00
FF00
ENDCHAR
STARTCHAR 25D9
ENCODING 9689
SWIDTH 555 0
DWIDTH 8 0
BBX 13 14 -2 -2
BITMAP
07F8
0FF0
0FF0
1FF0
1FE0
1FE0
38E0
3AC0
3BC0
7F80
7F80
FF80
FF00
FF00
ENDCHAR
STARTCHAR 2630
ENCODING 9776
SWIDTH 555 0
DWIDTH 8 0
BBX 8 6 0 2
BITMAP
FF
FF
00
FF
00
FF
ENDCHAR
STARTCHAR 263A
ENCODING 9786
SWIDTH 555 0
DWIDTH 8 0
BBX 10 9 -1 0
BITMAP
1FC0
1040
2B80
2080
4080
5D00
4100
C300
7C00
ENDCHAR
STARTCHAR 263B
ENCODING 9787
SWIDTH 555 0
DWIDTH 8 0
BBX 10 9 -1 0
BITMAP
1FC0
1FC0
3480
3F80
7F80
6300
7F00
FF00
7C00
ENDCHAR
STARTCHAR 263C
ENCODING 9788
SWIDTH 555 0
DWIDTH 8 0
BBX 8 8 0 1
BITMAP
04
24
3B
1C
76
7C
94
20
ENDCHAR
STARTCHAR 2640
ENCODING 9792
SWIDTH 555 0
DWIDTH 8 0
BBX 8 9 0 0
BITMAP
1F
21
21
23
3C
10
FC
20
20
ENDCHAR
STARTCHAR 2642
ENCODING 9794
SWIDTH 555 0
DWIDTH 8 0
BBX 10 9 -1 0
BITMAP
03C0
01C0
0680
1E00
6300
4200
4200
C400
7800
ENDCHAR
STARTCHAR 2660
ENCODING 9824
SWIDTH 555 0
DWIDTH 8 0
BBX 8 9 0 0
BITMAP
04
1E
3F
7F
FF
F6
10
10
70
ENDCHAR
STARTCHAR 2663
ENCODING 9827
SWIDTH 555 0
DWIDTH 8 0
BBX 8 9 0 0
BITMAP
0E
0E
0C
2A
7F
FE
EC
10
70
ENDCHAR
STARTCHAR 2665
ENCODING 9829
SWIDTH 555 0
DWIDTH 8 0
BBX 8 6 0 2
BITMAP
76
89
81
81
42
3C
ENDCHAR
STARTCHAR 2666
ENCODING 9830
SWIDTH 555 0
DWIDTH 8 0
BBX 7 6 1 2
BITMAP
18
3C
FE
FE
F8
70
ENDCHAR
STARTCHAR 266A
ENCODING 9834
SWIDTH 555 0
DWIDTH 8 0
BBX 10 9 -1 0
BITMAP
0FC0
0880
1F80
1000
1000
2000
2000
4000
C000
ENDCHAR
STARTCHAR 266B
ENCODING 9835
SWIDTH 555 0
DWIDTH 8 0
BBX 11 9 -2 0
BITMAP
0FE0
0820
0FC0
1840
1040
1080
2080
2180
C000
ENDCHAR
STARTCHAR 26A1
ENCODING 9889
SWIDTH 555 0
DWIDTH 8 0
BBX 8 9 0 0
BITMAP
0E
1C
24
47
83
76
28
30
20
ENDCHAR
STARTCHAR 2713
ENCODING 10003
SWIDTH 555 0
DWIDTH 8 0
BBX 10 9 0 0
BITMAP
0040
0080
0100
0200
8400
4800
5000
6000
4000
ENDCHAR
STARTCHAR 2714
ENCODING 10004
SWIDTH 555 0
DWIDTH 8 0
BBX 10 9 0 0
BITMAP
00C0
0180
0300
0600
8C00
D800
F000
E000
C000
ENDCHAR
STARTCHAR 2717
ENCODING 10007
SWIDTH 555 0
DWIDTH 8 0
BBX 8 8 0 0
BITMAP
01
22
14
08
18
24
40
80
ENDCHAR
STARTCHAR 2718
ENCODING 10008
SWIDTH 555 0
DWIDTH 8 0
BBX 9 9 -1 0
BITMAP
0180
1900
0E00
0600
0A00
1300
2000
4000
8000
ENDCHAR
STARTCHAR 276C
ENCODING 10092
SWIDTH 555 0
DWIDTH 8 0
BBX 4 10 2 0
BITMAP
10
30
60
40
C0
C0
40
60
20
30
ENDCHAR
STARTCHAR 276D
ENCODING 10093
SWIDTH 555 0
DWIDTH 8 0
BBX 4 10 2 0
BITMAP
C0
40
60
20
30
10
30
60
40
C0
ENDCHAR
STARTCHAR 276E
ENCODING 10094
SWIDTH 555 0
DWIDTH 8 0
BBX 6 10 1 0
BITMAP
0C
18
30
70
60
E0
60
30
38
1C
ENDCHAR
STARTCHAR 276F
ENCODING 10095
SWIDTH 555 0
DWIDTH 8 0
BBX 6 10 1 0
BITMAP
E0
60
30
38
1C
1C
18
30
70
60
ENDCHAR
STARTCHAR 2770
ENCODING 10096
SWIDTH 555 0
DWIDTH 8 0
BBX 6 11 1 -1
BITMAP
1C
38
38
70
E0
E0
70
70
38
38
1C
ENDCHAR
STARTCHAR 2771
ENCODING 10097
SWIDTH 555 0
DWIDTH 8 0
BBX 6 11 1 -1
BITMAP
E0
70
38
38
1C
1C
38
38
70
70
E0
ENDCHAR
STARTCHAR 27E8
ENCODING 10216
SWIDTH 555 0
DWIDTH 8 0
BBX 4 9 3 0
BITMAP
10
20
40
80
80
80
80
80
80
ENDCHAR
STARTCHAR 27E9
ENCODING 10217
SWIDTH 555 0
DWIDTH 8 0
BBX 5 9 1 0
BITMAP
10
10
08
08
08
10
20
40
80
ENDCHAR
STARTCHAR 27EA
ENCODING 10218
SWIDTH 555 0
DWIDTH 8 0
BBX 8 9 1 0
BITMAP
11
22
44
88
90
90
90
88
48
ENDCHAR
STARTCHAR 27EB
ENCODING 10219
SWIDTH 555 0
DWIDTH 8 0
BBX 7 8 0 0
BITMAP
12
12
12
12
12
24
48
90
ENDCHAR
STARTCHAR 2800
ENCODING 10240
SWIDTH 555 0
DWIDTH 8 0
BBX 0 0 0 0
BITMAP
ENDCHAR
STARTCHAR 2801
ENCODING 10241
SWIDTH 555 0
DWIDTH 8 0
BBX 1 2 4 9
BITMAP
80
80
ENDCHAR
STARTCHAR 2802
ENCODING 10242
SWIDTH 555 0
DWIDTH 8 0
BBX 1 1 2 6
BITMAP
80
ENDCHAR
STARTCHAR 2803
ENCODING 10243
SWIDTH 555 0
DWIDTH 8 0
BBX 3 5 2 6
BITMAP
20
20
00
00
80
ENDCHAR
STARTCHAR 2804
ENCODING 10244
SWIDTH 555 0
DWIDTH 8 0
BBX 1 2 1 2
BITMAP
80
80
ENDCHAR
STARTCHAR 2805
ENCODING 10245
SWIDTH 555 0
DWIDTH 8 0
BBX 4 9 1 2
BITMAP
10
10
00
00
00
00
00
80
80
ENDCHAR
STARTCHAR 2806
ENCODING 10246
SWIDTH 555 0
DWIDTH 8 0
BBX 2 5 1 2
BITMAP
40
00
00
80
80
ENDCHAR
STARTCHAR 2807
ENCODING 10247
SWIDTH 555 0
DWIDTH 8 0
BBX 4 9 1 2
BITMAP
10
10
00
00
40
00
00
80
80
ENDCHAR
STARTCHAR 2808
ENCODING 10248
SWIDTH 555 0
DWIDTH 8 0
BBX 1 2 8 9
BITMAP
80
80
ENDCHAR
STARTCHAR 2809
ENCODING 10249
SWIDTH 555 0
DWIDTH 8 0
BBX 5 2 4 9
BITMAP
88
88
ENDCHAR
STARTCHAR 280A
ENCODING 10250
SWIDTH 555 0
DWIDTH 8 0
BBX 7 5 2 6
BITMAP
02
02
00
00
80
ENDCHAR
STARTCHAR 280B
ENCODING 10251
SWIDTH 555 0
DWIDTH 8 0
BBX 7 5 2 6
BITMAP
22
22
00
00
80
ENDCHAR
STARTCHAR 280C
ENCODING 10252
SWIDTH 555 0
DWIDTH 8 0
BBX 8 9 1 2
BITMAP
01
01
00
00
00
00
00
80
80
ENDCHAR
STARTCHAR 280D
ENCODING 10253
SWIDTH 555 0
DWIDTH 8 0
BBX 8 9 1 2
BITMAP
11
11
00
00
00
00
00
80
80
ENDCHAR
STARTCHAR 280E
ENCODING 10254
SWIDTH 555 0
DWIDTH 8 0
BBX 8 9 1 2
BITMAP
01
01
00
00
40
00
00
80
80
ENDCHAR
STARTCHAR 280F
ENCODING 10255
SWIDTH 555 0
DWIDTH 8 0
BBX 8 9 1 2
BITMAP
11
11
00
00
40
00
00
80
80
ENDCHAR
STARTCHAR 2810
ENCODING 10256
SWIDTH 555 0
DWIDTH 8 0
BBX 1 1 6 6
BITMAP
80
ENDCHAR
STARTCHAR 2811
ENCODING 10257
SWIDTH 555 0
DWIDTH 8 0
BBX 3 5 4 6
BITMAP
80
80
00
00
20
ENDCHAR
STARTCHAR 2812
ENCODING 10258
SWIDTH 555 0
DWIDTH 8 0
BBX 5 1 2 6
BITMAP
88
ENDCHAR
STARTCHAR 2813
ENCODING 10259
SWIDTH 555 0
DWIDTH 8 0
BBX 5 5 2 6
BITMAP
20
20
00
00
88
ENDCHAR
STARTCHAR 2814
ENCODING 10260
SWIDTH 555 0
DWIDTH 8 0
BBX 6 5 1 2
BITMAP
04
00
00
80
80
ENDCHAR
STARTCHAR 2815
ENCODING 10261
SWIDTH 555 0
DWIDTH 8 0
BBX 6 9 1 2
BITMAP
10
10
00
00
04
00
00
80
80
ENDCHAR
STARTCHAR 2816
ENCODING 10262
SWIDTH 555 0
DWIDTH 8 0
BBX 6 5 1 2
BITMAP
44
00
00
80
80
ENDCHAR
STARTCHAR 2817
ENCODING 10263
SWIDTH 555 0
DWIDTH 8 0
BBX 6 9 1 2
BITMAP
10
10
00
00
44
00
00
80
80
ENDCHAR
STARTCHAR 2818
ENCODING 10264
SWIDTH 555 0
DWIDTH 8 0
BBX 3 5 6 6
BITMAP
20
20
00
00
80
ENDCHAR
STARTCHAR 2819
ENCODING 10265
SWIDTH 555 0
DWIDTH 8 0
BBX 5 5 4 6
BITMAP
88
88
00
00
20
ENDCHAR
STARTCHAR 281A
ENCODING 10266
SWIDTH 555 0
DWIDTH 8 0
BBX 7 5 2 6
BITMAP
02
02
00
00
88
ENDCHAR
STARTCHAR 281B
ENCODING 10267
SWIDTH 555 0
DWIDTH 8 0
BBX 7 5 2 6
BITMAP
22
22
00
00
88
ENDCHAR
STARTCHAR 281C
ENCODING 10268
SWIDTH 555 0
DWIDTH 8 0
BBX 8 9 1 2
BITMAP
01
01
00
00
04
00
00
80
80
ENDCHAR
STARTCHAR 281D
ENCODING 10269
SWIDTH 555 0
DWIDTH 8 0
BBX 8 9 1 2
BITMAP
11
11
00
00
04
00
00
80
80
ENDCHAR
STARTCHAR 281E
ENCODING 10270
SWIDTH 555 0
DWIDTH 8 0
BBX 8 9 1 2
BITMAP
01
01
00
00
44
00
00
80
80
ENDCHAR
STARTCHAR 281F
ENCODING 10271
SWIDTH 555 0
DWIDTH 8 0
BBX 8 9 1 2
BITMAP
11
11
00
00
44
00
00
80
80
ENDCHAR
STARTCHAR 2820
ENCODING 10272
SWIDTH 555 0
DWIDTH 8 0
BBX 1 2 5 2
BITMAP
80
80
ENDCHAR
STARTCHAR 2821
ENCODING 10273
SWIDTH 555 0
DWIDTH 8 0
BBX 2 9 4 2
BITMAP
80
80
00
00
00
00
00
40
40
ENDCHAR
STARTCHAR 2822
ENCODING 10274
SWIDTH 555 0
DWIDTH 8 0
BBX 4 5 2 2
BITMAP
80
00
00
10
10
ENDCHAR
STARTCHAR 2823
ENCODING 10275
SWIDTH 555 0
DWIDTH 8 0
BBX 4 9 2 2
BITMAP
20
20
00
00
80
00
00
10
10
ENDCHAR
STARTCHAR 2824
ENCODING 10276
SWIDTH 555 0
DWIDTH 8 0
BBX 5 2 1 2
BITMAP
88
88
ENDCHAR
STARTCHAR 2825
ENCODING 10277
SWIDTH 555 0
DWIDTH 8 0
BBX 5 9 1 2
BITMAP
10
10
00
00
00
00
00
88
88
ENDCHAR
STARTCHAR 2826
ENCODING 10278
SWIDTH 555 0
DWIDTH 8 0
BBX 5 5 1 2
BITMAP
40
00
00
88
88
ENDCHAR
STARTCHAR 2827
ENCODING 10279
SWIDTH 555 0
DWIDTH 8 0
BBX 5 9 1 2
BITMAP
10
10
00
00
40
00
00
88
88
ENDCHAR
STARTCHAR 2828
ENCODING 10280
SWIDTH 555 0
DWIDTH 8 0
BBX 4 9 5 2
BITMAP
10
10
00
00
00
00
00
80
80
ENDCHAR
STARTCHAR 2829
ENCODING 10281
SWIDTH 555 0
DWIDTH 8 0
BBX 5 9 4 2
BITMAP
88
88
00
00
00
00
00
40
40
ENDCHAR
STARTCHAR 282A
ENCODING 10282
SWIDTH 555 0
DWIDTH 8 0
BBX 7 9 2 2
BITMAP
02
02
00
00
80
00
00
10
10
ENDCHAR
STARTCHAR 282B
ENCODING 10283
SWIDTH 555 0
DWIDTH 8 0
BBX 7 9 2 2
BITMAP
22
22
00
00
80
00
00
10
10
ENDCHAR
STARTCHAR 282C
ENCODING 10284
SWIDTH 555 0
DWIDTH 8 0
BBX 8 9 1 2
BITMAP
01
01
00
00
00
00
00
88
88
ENDCHAR
STARTCHAR 282D
ENCODING 10285
SWIDTH 555 0
DWIDTH 8 0
BBX 8 9 1 2
BITMAP
11
11
00
00
00
00
00
88
88
ENDCHAR
STARTCHAR 282E
ENCODING 10286
SWIDTH 555 0
DWIDTH 8 0
BBX 8 9 1 2
BITMAP
01
01
00
00
40
00
00
88
88
ENDCHAR
STARTCHAR 282F
ENCODING 10287
SWIDTH 555 0
DWIDTH 8 0
BBX 8 9 1 2
BITMAP
11
11
00
00
40
00
00
88
88
ENDCHAR
STARTCHAR 2830
ENCODING 10288
SWIDTH 555 0
DWIDTH 8 0
BBX 2 5 5 2
BITMAP
40
00
00
80
80
ENDCHAR
STARTCHAR 2831
ENCODING 10289
SWIDTH 555 0
DWIDTH 8 0
BBX 3 9 4 2
BITMAP
80
80
00
00
20
00
00
40
40
ENDCHAR
STARTCHAR 2832
ENCODING 10290
SWIDTH 555 0
DWIDTH 8 0
BBX 5 5 2 2
BITMAP
88
00
00
10
10
ENDCHAR
STARTCHAR 2833
ENCODING 10291
SWIDTH 555 0
DWIDTH 8 0
BBX 5 9 2 2
BITMAP
20
20
00
00
88
00
00
10
10
ENDCHAR
STARTCHAR 2834
ENCODING 10292
SWIDTH 555 0
DWIDTH 8 0
BBX 6 5 1 2
BITMAP
04
00
00
88
88
ENDCHAR
STARTCHAR 2835
ENCODING 10293
SWIDTH 555 0
DWIDTH 8 0
BBX 6 9 1 2
BITMAP
10
10
00
00
04
00
00
88
88
ENDCHAR
STARTCHAR 2836
ENCODING 10294
SWIDTH 555 0
DWIDTH 8 0
BBX 6 5 1 2
BITMAP
44
00
00
88
88
ENDCHAR
STARTCHAR 2837
ENCODING 10295
SWIDTH 555 0
DWIDTH 8 0
BBX 6 9 1 2
BITMAP
10
10
00
00
44
00
00
88
88
ENDCHAR
STARTCHAR 2838
ENCODING 10296
SWIDTH 555 0
DWIDTH 8 0
BBX 4 9 5 2
BITMAP
10
10
00
00
40
00
00
80
80
ENDCHAR
STARTCHAR 2839
ENCODING 10297
SWIDTH 555 0
DWIDTH 8 0
BBX 5 9 4 2
BITMAP
88
88
00
00
20
00
00
40
40
ENDCHAR
STARTCHAR 283A
ENCODING 10298
SWIDTH 555 0
DWIDTH 8 0
BBX 7 9 2 2
BITMAP
02
02
00
00
88
00
00
10
10
ENDCHAR
STARTCHAR 283B
ENCODING 10299
SWIDTH 555 0
DWIDTH 8 0
BBX 7 9 2 2
BITMAP
22
22
00
00
88
00
00
10
10
ENDCHAR
STARTCHAR 283C
ENCODING 10300
SWIDTH 555 0
DWIDTH 8 0
BBX 8 9 1 2
BITMAP
01
01
00
00
04
00
00
88
88
ENDCHAR
STARTCHAR 283D
ENCODING 10301
SWIDTH 555 0
DWIDTH 8 0
BBX 8 9 1 2
BITMAP
11
11
00
00
04
00
00
88
88
ENDCHAR
STARTCHAR 283E
ENCODING 10302
SWIDTH 555 0
DWIDTH 8 0
BBX 8 9 1 2
BITMAP
01
01
00
00
44
00
00
88
88
ENDCHAR
STARTCHAR 283F
ENCODING 10303
SWIDTH 555 0
DWIDTH 8 0
BBX 8 9 1 2
BITMAP
11
11
00
00
44
00
00
88
88
ENDCHAR
STARTCHAR 2840
ENCODING 10304
SWIDTH 555 0
DWIDTH 8 0
BBX 2 2 -1 -2
BITMAP
C0
80
ENDCHAR
STARTCHAR 2841
ENCODING 10305
SWIDTH 555 0
DWIDTH 8 0
BBX 6 13 -1 -2
BITMAP
04
04
00
00
00
00
00
00
00
00
00
C0
80
ENDCHAR
STARTCHAR 2842
ENCODING 10306
SWIDTH 555 0
DWIDTH 8 0
BBX 4 9 -1 -2
BITMAP
10
00
00
00
00
00
00
C0
80
ENDCHAR
STARTCHAR 2843
ENCODING 10307
SWIDTH 555 0
DWIDTH 8 0
BBX 6 13 -1 -2
BITMAP
04
04
00
00
10
00
00
00
00
00
00
C0
80
ENDCHAR
STARTCHAR 2844
ENCODING 10308
SWIDTH 555 0
DWIDTH 8 0
BBX 3 6 -1 -2
BITMAP
20
20
00
00
C0
80
ENDCHAR
STARTCHAR 2845
ENCODING 10309
SWIDTH 555 0
DWIDTH 8 0
BBX 6 13 -1 -2
BITMAP
04
04
00
00
00
00
00
20
20
00
00
C0
80
ENDCHAR
STARTCHAR 2846
ENCODING 10310
SWIDTH 555 0
DWIDTH 8 0
BBX 4 9 -1 -2
BITMAP
10
00
00
20
20
00
00
C0
80
ENDCHAR
STARTCHAR 2847
ENCODING 10311
SWIDTH 555 0
DWIDTH 8 0
BBX 6 13 -1 -2
BITMAP
04
04
00
00
10
00
00
20
20
00
00
C0
80
ENDCHAR
STARTCHAR 2848
ENCODING 10312
SWIDTH 555 0
DWIDTH 8 0
BBX 10 13 -1 -2
BITMAP
0040
0040
0000
0000
0000
0000
0000
0000
0000
0000
0000
C000
8000
ENDCHAR
STARTCHAR 2849
ENCODING 10313
SWIDTH 555 0
DWIDTH 8 0
BBX 10 13 -1 -2
BITMAP
0440
0440
0000
0000
0000
0000
0000
0000
0000
0000
0000
C000
8000
ENDCHAR
STARTCHAR 284A
ENCODING 10314
SWIDTH 555 0
DWIDTH 8 0
BBX 10 13 -1 -2
BITMAP
0040
0040
0000
0000
1000
0000
0000
0000
0000
0000
0000
C000
8000
ENDCHAR
STARTCHAR 284B
ENCODING 10315
SWIDTH 555 0
DWIDTH 8 0
BBX 10 13 -1 -2
BITMAP
0440
0440
0000
0000
1000
0000
0000
0000
0000
0000
0000
C000
8000
ENDCHAR
STARTCHAR 284C
ENCODING 10316
SWIDTH 555 0
DWIDTH 8 0
BBX 10 13 -1 -2
BITMAP
0040
0040
0000
0000
0000
0000
0000
2000
2000
0000
0000
C000
8000
ENDCHAR
STARTCHAR 284D
ENCODING 10317
SWIDTH 555 0
DWIDTH 8 0
BBX 10 13 -1 -2
BITMAP
0440
0440
0000
0000
0000
0000
0000
2000
2000
0000
0000
C000
8000
ENDCHAR
STARTCHAR 284E
ENCODING 10318
SWIDTH 555 0
DWIDTH 8 0
BBX 10 13 -1 -2
BITMAP
0040
0040
0000
0000
1000
0000
0000
2000
2000
0000
0000
C000
8000
ENDCHAR
STARTCHAR 284F
ENCODING 10319
SWIDTH 555 0
DWIDTH 8 0
BBX 10 13 -1 -2
BITMAP
0440
0440
0000
0000
1000
0000
0000
2000
2000
0000
0000
C000
8000
ENDCHAR
STARTCHAR 2850
ENCODING 10320
SWIDTH 555 0
DWIDTH 8 0
BBX 8 9 -1 -2
BITMAP
01
00
00
00
00
00
00
C0
80
ENDCHAR
STARTCHAR 2851
ENCODING 10321
SWIDTH 555 0
DWIDTH 8 0
BBX 8 13 -1 -2
BITMAP
04
04
00
00
01
00
00
00
00
00
00
C0
80
ENDCHAR
STARTCHAR 2852
ENCODING 10322
SWIDTH 555 0
DWIDTH 8 0
BBX 8 9 -1 -2
BITMAP
11
00
00
00
00
00
00
C0
80
ENDCHAR
STARTCHAR 2853
ENCODING 10323
SWIDTH 555 0
DWIDTH 8 0
BBX 8 13 -1 -2
BITMAP
04
04
00
00
11
00
00
00
00
00
00
C0
80
ENDCHAR
STARTCHAR 2854
ENCODING 10324
SWIDTH 555 0
DWIDTH 8 0
BBX 8 9 -1 -2
BITMAP
01
00
00
20
20
00
00
C0
80
ENDCHAR
STARTCHAR 2855
ENCODING 10325
SWIDTH 555 0
DWIDTH 8 0
BBX 8 13 -1 -2
BITMAP
04
04
00
00
01
00
00
20
20
00
00
C0
80
ENDCHAR
STARTCHAR 2856
ENCODING 10326
SWIDTH 555 0
DWIDTH 8 0
BBX 8 9 -1 -2
BITMAP
11
00
00
20
20
00
00
C0
80
ENDCHAR
STARTCHAR 2857
ENCODING 10327
SWIDTH 555 0
DWIDTH 8 0
BBX 8 13 -1 -2
BITMAP
04
04
00
00
11
00
00
20
20
00
00
C0
80
ENDCHAR
STARTCHAR 2858
ENCODING 10328
SWIDTH 555 0
DWIDTH 8 0
BBX 10 13 -1 -2
BITMAP
0040
0040
0000
0000
0100
0000
0000
0000
0000
0000
0000
C000
8000
ENDCHAR
STARTCHAR 2859
ENCODING 10329
SWIDTH 555 0
DWIDTH 8 0
BBX 10 13 -1 -2
BITMAP
0440
0440
0000
0000
0100
0000
0000
0000
0000
0000
0000
C000
8000
ENDCHAR
STARTCHAR 285A
ENCODING 10330
SWIDTH 555 0
DWIDTH 8 0
BBX 10 13 -1 -2
BITMAP
0040
0040
0000
0000
1100
0000
0000
0000
0000
0000
0000
C000
8000
ENDCHAR
STARTCHAR 285B
ENCODING 10331
SWIDTH 555 0
DWIDTH 8 0
BBX 10 13 -1 -2
BITMAP
0440
0440
0000
0000
1100
0000
0000
0000
0000
0000
0000
C000
8000
ENDCHAR
STARTCHAR 285C
ENCODING 10332
SWIDTH 555 0
DWIDTH 8 0
BBX 10 13 -1 -2
BITMAP
0040
0040
0000
0000
0100
0000
0000
2000
2000
0000
0000
C000
8000
ENDCHAR
STARTCHAR 285D
ENCODING 10333
SWIDTH 555 0
DWIDTH 8 0
BBX 10 13 -1 -2
BITMAP
0440
0440
0000
0000
0100
0000
0000
2000
2000
0000
0000
C000
8000
ENDCHAR
STARTCHAR 285E
ENCODING 10334
SWIDTH 555 0
DWIDTH 8 0
BBX 10 13 -1 -2
BITMAP
0040
0040
0000
0000
1100
0000
0000
2000
2000
0000
0000
C000
8000
ENDCHAR
STARTCHAR 285F
ENCODING 10335
SWIDTH 555 0
DWIDTH 8 0
BBX 10 13 -1 -2
BITMAP
0440
0440
0000
0000
1100
0000
0000
2000
2000
0000
0000
C000
8000
ENDCHAR
STARTCHAR 2860
ENCODING 10336
SWIDTH 555 0
DWIDTH 8 0
BBX 7 6 -1 -2
BITMAP
02
02
00
00
C0
80
ENDCHAR
STARTCHAR 2861
ENCODING 10337
SWIDTH 555 0
DWIDTH 8 0
BBX 7 13 -1 -2
BITMAP
04
04
00
00
00
00
00
02
02
00
00
C0
80
ENDCHAR
STARTCHAR 2862
ENCODING 10338
SWIDTH 555 0
DWIDTH 8 0
BBX 7 9 -1 -2
BITMAP
10
00
00
02
02
00
00
C0
80
ENDCHAR
STARTCHAR 2863
ENCODING 10339
SWIDTH 555 0
DWIDTH 8 0
BBX 7 13 -1 -2
BITMAP
04
04
00
00
10
00
00
02
02
00
00
C0
80
ENDCHAR
STARTCHAR 2864
ENCODING 10340
SWIDTH 555 0
DWIDTH 8 0
BBX 7 6 -1 -2
BITMAP
22
22
00
00
C0
80
ENDCHAR
STARTCHAR 2865
ENCODING 10341
SWIDTH 555 0
DWIDTH 8 0
BBX 7 13 -1 -2
BITMAP
04
04
00
00
00
00
00
22
22
00
00
C0
80
ENDCHAR
STARTCHAR 2866
ENCODING 10342
SWIDTH 555 0
DWIDTH 8 0
BBX 7 9 -1 -2
BITMAP
10
00
00
22
22
00
00
C0
80
ENDCHAR
STARTCHAR 2867
ENCODING 10343
SWIDTH 555 0
DWIDTH 8 0
BBX 7 13 -1 -2
BITMAP
04
04
00
00
10
00
00
22
22
00
00
C0
80
ENDCHAR
STARTCHAR 2868
ENCODING 10344
SWIDTH 555 0
DWIDTH 8 0
BBX 10 13 -1 -2
BITMAP
0040
0040
0000
0000
0000
0000
0000
0200
0200
0000
0000
C000
8000
ENDCHAR
STARTCHAR 2869
ENCODING 10345
SWIDTH 555 0
DWIDTH 8 0
BBX 10 13 -1 -2
BITMAP
0440
0440
0000
0000
0000
0000
0000
0200
0200
0000
0000
C000
8000
ENDCHAR
STARTCHAR 286A
ENCODING 10346
SWIDTH 555 0
DWIDTH 8 0
BBX 10 13 -1 -2
BITMAP
0040
0040
0000
0000
1000
0000
0000
0200
0200
0000
0000
C000
8000
ENDCHAR
STARTCHAR 286B
ENCODING 10347
SWIDTH 555 0
DWIDTH 8 0
BBX 10 13 -1 -2
BITMAP
0440
0440
0000
0000
1000
0000
0000
0200
0200
0000
0000
C000
8000
ENDCHAR
STARTCHAR 286C
ENCODING 10348
SWIDTH 555 0
DWIDTH 8 0
BBX 10 13 -1 -2
BITMAP
0040
0040
0000
0000
0000
0000
0000
2200
2200
0000
0000
C000
8000
ENDCHAR
STARTCHAR 286D
ENCODING 10349
SWIDTH 555 0
DWIDTH 8 0
BBX 10 13 -1 -2
BITMAP
0440
0440
0000
0000
0000
0000
0000
2200
2200
0000
0000
C000
8000
ENDCHAR
STARTCHAR 286E
ENCODING 10350
SWIDTH 555 0
DWIDTH 8 0
BBX 10 13 -1 -2
BITMAP
0040
0040
0000
0000
1000
0000
0000
2200
2200
0000
0000
C000
8000
ENDCHAR
STARTCHAR 286F
ENCODING 10351
SWIDTH 555 0
DWIDTH 8 0
BBX 10 13 -1 -2
BITMAP
0440
0440
0000
0000
1000
0000
0000
2200
2200
0000
0000
C000
8000
ENDCHAR
STARTCHAR 2870
ENCODING 10352
SWIDTH 555 0
DWIDTH 8 0
BBX 8 9 -1 -2
BITMAP
01
00
00
02
02
00
00
C0
80
ENDCHAR
STARTCHAR 2871
ENCODING 10353
SWIDTH 555 0
DWIDTH 8 0
BBX 8 13 -1 -2
BITMAP
04
04
00
00
01
00
00
02
02
00
00
C0
80
ENDCHAR
STARTCHAR 2872
ENCODING 10354
SWIDTH 555 0
DWIDTH 8 0
BBX 8 9 -1 -2
BITMAP
11
00
00
02
02
00
00
C0
80
ENDCHAR
STARTCHAR 2873
ENCODING 10355
SWIDTH 555 0
DWIDTH 8 0
BBX 8 13 -1 -2
BITMAP
04
04
00
00
11
00
00
02
02
00
00
C0
80
ENDCHAR
STARTCHAR 2874
ENCODING 10356
SWIDTH 555 0
DWIDTH 8 0
BBX 8 9 -1 -2
BITMAP
01
00
00
22
22
00
00
C0
80
ENDCHAR
STARTCHAR 2875
ENCODING 10357
SWIDTH 555 0
DWIDTH 8 0
BBX 8 13 -1 -2
BITMAP
04
04
00
00
01
00
00
22
22
00
00
C0
80
ENDCHAR
STARTCHAR 2876
ENCODING 10358
SWIDTH 555 0
DWIDTH 8 0
BBX 8 9 -1 -2
BITMAP
11
00
00
22
22
00
00
C0
80
ENDCHAR
STARTCHAR 2877
ENCODING 10359
SWIDTH 555 0
DWIDTH 8 0
BBX 8 13 -1 -2
BITMAP
04
04
00
00
11
00
00
22
22
00
00
C0
80
ENDCHAR
STARTCHAR 2878
ENCODING 10360
SWIDTH 555 0
DWIDTH 8 0
BBX 10 13 -1 -2
BITMAP
0040
0040
0000
0000
0100
0000
0000
0200
0200
0000
0000
C000
8000
ENDCHAR
STARTCHAR 2879
ENCODING 10361
SWIDTH 555 0
DWIDTH 8 0
BBX 10 13 -1 -2
BITMAP
0440
0440
0000
0000
0100
0000
0000
0200
0200
0000
0000
C000
8000
ENDCHAR
STARTCHAR 287A
ENCODING 10362
SWIDTH 555 0
DWIDTH 8 0
BBX 10 13 -1 -2
BITMAP
0040
0040
0000
0000
1100
0000
0000
0200
0200
0000
0000
C000
8000
ENDCHAR
STARTCHAR 287B
ENCODING 10363
SWIDTH 555 0
DWIDTH 8 0
BBX 10 13 -1 -2
BITMAP
0440
0440
0000
0000
1100
0000
0000
0200
0200
0000
0000
C000
8000
ENDCHAR
STARTCHAR 287C
ENCODING 10364
SWIDTH 555 0
DWIDTH 8 0
BBX 10 13 -1 -2
BITMAP
0040
0040
0000
0000
0100
0000
0000
2200
2200
0000
0000
C000
8000
ENDCHAR
STARTCHAR 287D
ENCODING 10365
SWIDTH 555 0
DWIDTH 8 0
BBX 10 13 -1 -2
BITMAP
0440
0440
0000
0000
0100
0000
0000
2200
2200
0000
0000
C000
8000
ENDCHAR
STARTCHAR 287E
ENCODING 10366
SWIDTH 555 0
DWIDTH 8 0
BBX 10 13 -1 -2
BITMAP
0040
0040
0000
0000
1100
0000
0000
2200
2200
0000
0000
C000
8000
ENDCHAR
STARTCHAR 287F
ENCODING 10367
SWIDTH 555 0
DWIDTH 8 0
BBX 10 13 -1 -2
BITMAP
0440
0440
0000
0000
1100
0000
0000
2200
2200
0000
0000
C000
8000
ENDCHAR
STARTCHAR 2880
ENCODING 10368
SWIDTH 555 0
DWIDTH 8 0
BBX 1 1 4 -2
BITMAP
80
ENDCHAR
STARTCHAR 2881
ENCODING 10369
SWIDTH 555 0
DWIDTH 8 0
BBX 1 12 4 -2
BITMAP
80
80
00
00
00
00
00
00
00
00
00
80
ENDCHAR
STARTCHAR 2882
ENCODING 10370
SWIDTH 555 0
DWIDTH 8 0
BBX 3 8 2 -2
BITMAP
80
00
00
00
00
00
00
20
ENDCHAR
STARTCHAR 2883
ENCODING 10371
SWIDTH 555 0
DWIDTH 8 0
BBX 3 12 2 -2
BITMAP
20
20
00
00
80
00
00
00
00
00
00
20
ENDCHAR
STARTCHAR 2884
ENCODING 10372
SWIDTH 555 0
DWIDTH 8 0
BBX 4 5 1 -2
BITMAP
80
80
00
00
10
ENDCHAR
STARTCHAR 2885
ENCODING 10373
SWIDTH 555 0
DWIDTH 8 0
BBX 4 12 1 -2
BITMAP
10
10
00
00
00
00
00
80
80
00
00
10
ENDCHAR
STARTCHAR 2886
ENCODING 10374
SWIDTH 555 0
DWIDTH 8 0
BBX 4 8 1 -2
BITMAP
40
00
00
80
80
00
00
10
ENDCHAR
STARTCHAR 2887
ENCODING 10375
SWIDTH 555 0
DWIDTH 8 0
BBX 4 12 1 -2
BITMAP
10
10
00
00
40
00
00
80
80
00
00
10
ENDCHAR
STARTCHAR 2888
ENCODING 10376
SWIDTH 555 0
DWIDTH 8 0
BBX 5 12 4 -2
BITMAP
08
08
00
00
00
00
00
00
00
00
00
80
ENDCHAR
STARTCHAR 2889
ENCODING 10377
SWIDTH 555 0
DWIDTH 8 0
BBX 5 12 4 -2
BITMAP
88
88
00
00
00
00
00
00
00
00
00
80
ENDCHAR
STARTCHAR 288A
ENCODING 10378
SWIDTH 555 0
DWIDTH 8 0
BBX 7 12 2 -2
BITMAP
02
02
00
00
80
00
00
00
00
00
00
20
ENDCHAR
STARTCHAR 288B
ENCODING 10379
SWIDTH 555 0
DWIDTH 8 0
BBX 7 12 2 -2
BITMAP
22
22
00
00
80
00
00
00
00
00
00
20
ENDCHAR
STARTCHAR 288C
ENCODING 10380
SWIDTH 555 0
DWIDTH 8 0
BBX 8 12 1 -2
BITMAP
01
01
00
00
00
00
00
80
80
00
00
10
ENDCHAR
STARTCHAR 288D
ENCODING 10381
SWIDTH 555 0
DWIDTH 8 0
BBX 8 12 1 -2
BITMAP
11
11
00
00
00
00
00
80
80
00
00
10
ENDCHAR
STARTCHAR 288E
ENCODING 10382
SWIDTH 555 0
DWIDTH 8 0
BBX 8 12 1 -2
BITMAP
01
01
00
00
40
00
00
80
80
00
00
10
ENDCHAR
STARTCHAR 288F
ENCODING 10383
SWIDTH 555 0
DWIDTH 8 0
BBX 8 12 1 -2
BITMAP
11
11
00
00
40
00
00
80
80
00
00
10
ENDCHAR
STARTCHAR 2890
ENCODING 10384
SWIDTH 555 0
DWIDTH 8 0
BBX 3 8 4 -2
BITMAP
20
00
00
00
00
00
00
80
ENDCHAR
STARTCHAR 2891
ENCODING 10385
SWIDTH 555 0
DWIDTH 8 0
BBX 3 12 4 -2
BITMAP
80
80
00
00
20
00
00
00
00
00
00
80
ENDCHAR
STARTCHAR 2892
ENCODING 10386
SWIDTH 555 0
DWIDTH 8 0
BBX 5 8 2 -2
BITMAP
88
00
00
00
00
00
00
20
ENDCHAR
STARTCHAR 2893
ENCODING 10387
SWIDTH 555 0
DWIDTH 8 0
BBX 5 12 2 -2
BITMAP
20
20
00
00
88
00
00
00
00
00
00
20
ENDCHAR
STARTCHAR 2894
ENCODING 10388
SWIDTH 555 0
DWIDTH 8 0
BBX 6 8 1 -2
BITMAP
04
00
00
80
80
00
00
10
ENDCHAR
STARTCHAR 2895
ENCODING 10389
SWIDTH 555 0
DWIDTH 8 0
BBX 6 12 1 -2
BITMAP
10
10
00
00
04
00
00
80
80
00
00
10
ENDCHAR
STARTCHAR 2896
ENCODING 10390
SWIDTH 555 0
DWIDTH 8 0
BBX 6 8 1 -2
BITMAP
44
00
00
80
80
00
00
10
ENDCHAR
STARTCHAR 2897
ENCODING 10391
SWIDTH 555 0
DWIDTH 8 0
BBX 6 12 1 -2
BITMAP
10
10
00
00
44
00
00
80
80
00
00
10
ENDCHAR
STARTCHAR 2898
ENCODING 10392
SWIDTH 555 0
DWIDTH 8 0
BBX 5 12 4 -2
BITMAP
08
08
00
00
20
00
00
00
00
00
00
80
ENDCHAR
STARTCHAR 2899
ENCODING 10393
SWIDTH 555 0
DWIDTH 8 0
BBX 5 12 4 -2
BITMAP
88
88
00
00
20
00
00
00
00
00
00
80
ENDCHAR
STARTCHAR 289A
ENCODING 10394
SWIDTH 555 0
DWIDTH 8 0
BBX 7 12 2 -2
BITMAP
02
02
00
00
88
00
00
00
00
00
00
20
ENDCHAR
STARTCHAR 289B
ENCODING 10395
SWIDTH 555 0
DWIDTH 8 0
BBX 7 12 2 -2
BITMAP
22
22
00
00
88
00
00
00
00
00
00
20
ENDCHAR
STARTCHAR 289C
ENCODING 10396
SWIDTH 555 0
DWIDTH 8 0
BBX 8 12 1 -2
BITMAP
01
01
00
00
04
00
00
80
80
00
00
10
ENDCHAR
STARTCHAR 289D
ENCODING 10397
SWIDTH 555 0
DWIDTH 8 0
BBX 8 12 1 -2
BITMAP
11
11
00
00
04
00
00
80
80
00
00
10
ENDCHAR
STARTCHAR 289E
ENCODING 10398
SWIDTH 555 0
DWIDTH 8 0
BBX 8 12 1 -2
BITMAP
01
01
00
00
44
00
00
80
80
00
00
10
ENDCHAR
STARTCHAR 289F
ENCODING 10399
SWIDTH 555 0
DWIDTH 8 0
BBX 8 12 1 -2
BITMAP
11
11
00
00
44
00
00
80
80
00
00
10
ENDCHAR
STARTCHAR 28A0
ENCODING 10400
SWIDTH 555 0
DWIDTH 8 0
BBX 2 5 4 -2
BITMAP
40
40
00
00
80
ENDCHAR
STARTCHAR 28A1
ENCODING 10401
SWIDTH 555 0
DWIDTH 8 0
BBX 2 12 4 -2
BITMAP
80
80
00
00
00
00
00
40
40
00
00
80
ENDCHAR
STARTCHAR 28A2
ENCODING 10402
SWIDTH 555 0
DWIDTH 8 0
BBX 4 8 2 -2
BITMAP
80
00
00
10
10
00
00
20
ENDCHAR
STARTCHAR 28A3
ENCODING 10403
SWIDTH 555 0
DWIDTH 8 0
BBX 4 12 2 -2
BITMAP
20
20
00
00
80
00
00
10
10
00
00
20
ENDCHAR
STARTCHAR 28A4
ENCODING 10404
SWIDTH 555 0
DWIDTH 8 0
BBX 5 5 1 -2
BITMAP
88
88
00
00
10
ENDCHAR
STARTCHAR 28A5
ENCODING 10405
SWIDTH 555 0
DWIDTH 8 0
BBX 5 12 1 -2
BITMAP
10
10
00
00
00
00
00
88
88
00
00
10
ENDCHAR
STARTCHAR 28A6
ENCODING 10406
SWIDTH 555 0
DWIDTH 8 0
BBX 5 8 1 -2
BITMAP
40
00
00
88
88
00
00
10
ENDCHAR
STARTCHAR 28A7
ENCODING 10407
SWIDTH 555 0
DWIDTH 8 0
BBX 5 12 1 -2
BITMAP
10
10
00
00
40
00
00
88
88
00
00
10
ENDCHAR
STARTCHAR 28A8
ENCODING 10408
SWIDTH 555 0
DWIDTH 8 0
BBX 5 12 4 -2
BITMAP
08
08
00
00
00
00
00
40
40
00
00
80
ENDCHAR
STARTCHAR 28A9
ENCODING 10409
SWIDTH 555 0
DWIDTH 8 0
BBX 5 12 4 -2
BITMAP
88
88
00
00
00
00
00
40
40
00
00
80
ENDCHAR
STARTCHAR 28AA
ENCODING 10410
SWIDTH 555 0
DWIDTH 8 0
BBX 7 12 2 -2
BITMAP
02
02
00
00
80
00
00
10
10
00
00
20
ENDCHAR
STARTCHAR 28AB
ENCODING 10411
SWIDTH 555 0
DWIDTH 8 0
BBX 7 12 2 -2
BITMAP
22
22
00
00
80
00
00
10
10
00
00
20
ENDCHAR
STARTCHAR 28AC
ENCODING 10412
SWIDTH 555 0
DWIDTH 8 0
BBX 8 12 1 -2
BITMAP
01
01
00
00
00
00
00
88
88
00
00
10
ENDCHAR
STARTCHAR 28AD
ENCODING 10413
SWIDTH 555 0
DWIDTH 8 0
BBX 8 12 1 -2
BITMAP
11
11
00
00
00
00
00
88
88
00
00
10
ENDCHAR
STARTCHAR 28AE
ENCODING 10414
SWIDTH 555 0
DWIDTH 8 0
BBX 8 12 1 -2
BITMAP
01
01
00
00
40
00
00
88
88
00
00
10
ENDCHAR
STARTCHAR 28AF
ENCODING 10415
SWIDTH 555 0
DWIDTH 8 0
BBX 8 12 1 -2
BITMAP
11
11
00
00
40
00
00
88
88
00
00
10
ENDCHAR
STARTCHAR 28B0
ENCODING 10416
SWIDTH 555 0
DWIDTH 8 0
BBX 3 8 4 -2
BITMAP
20
00
00
40
40
00
00
80
ENDCHAR
STARTCHAR 28B1
ENCODING 10417
SWIDTH 555 0
DWIDTH 8 0
BBX 3 12 4 -2
BITMAP
80
80
00
00
20
00
00
40
40
00
00
80
ENDCHAR
STARTCHAR 28B2
ENCODING 10418
SWIDTH 555 0
DWIDTH 8 0
BBX 5 8 2 -2
BITMAP
88
00
00
10
10
00
00
20
ENDCHAR
STARTCHAR 28B3
ENCODING 10419
SWIDTH 555 0
DWIDTH 8 0
BBX 5 12 2 -2
BITMAP
20
20
00
00
88
00
00
10
10
00
00
20
ENDCHAR
STARTCHAR 28B4
ENCODING 10420
SWIDTH 555 0
DWIDTH 8 0
BBX 6 8 1 -2
BITMAP
04
00
00
88
88
00
00
10
ENDCHAR
STARTCHAR 28B5
ENCODING 10421
SWIDTH 555 0
DWIDTH 8 0
BBX 6 12 1 -2
BITMAP
10
10
00
00
04
00
00
88
88
00
00
10
ENDCHAR
STARTCHAR 28B6
ENCODING 10422
SWIDTH 555 0
DWIDTH 8 0
BBX 6 8 1 -2
BITMAP
44
00
00
88
88
00
00
10
ENDCHAR
STARTCHAR 28B7
ENCODING 10423
SWIDTH 555 0
DWIDTH 8 0
BBX 6 12 1 -2
BITMAP
10
10
00
00
44
00
00
88
88
00
00
10
ENDCHAR
STARTCHAR 28B8
ENCODING 10424
SWIDTH 555 0
DWIDTH 8 0
BBX 5 12 4 -2
BITMAP
08
08
00
00
20
00
00
40
40
00
00
80
ENDCHAR
STARTCHAR 28B9
ENCODING 10425
SWIDTH 555 0
DWIDTH 8 0
BBX 5 12 4 -2
BITMAP
88
88
00
00
20
00
00
40
40
00
00
80
ENDCHAR
STARTCHAR 28BA
ENCODING 10426
SWIDTH 555 0
DWIDTH 8 0
BBX 7 12 2 -2
BITMAP
02
02
00
00
88
00
00
10
10
00
00
20
ENDCHAR
STARTCHAR 28BB
ENCODING 10427
SWIDTH 555 0
DWIDTH 8 0
BBX 7 12 2 -2
BITMAP
22
22
00
00
88
00
00
10
10
00
00
20
ENDCHAR
STARTCHAR 28BC
ENCODING 10428
SWIDTH 555 0
DWIDTH 8 0
BBX 8 12 1 -2
BITMAP
01
01
00
00
04
00
00
88
88
00
00
10
ENDCHAR
STARTCHAR 28BD
ENCODING 10429
SWIDTH 555 0
DWIDTH 8 0
BBX 8 12 1 -2
BITMAP
11
11
00
00
04
00
00
88
88
00
00
10
ENDCHAR
STARTCHAR 28BE
ENCODING 10430
SWIDTH 555 0
DWIDTH 8 0
BBX 8 12 1 -2
BITMAP
01
01
00
00
44
00
00
88
88
00
00
10
ENDCHAR
STARTCHAR 28BF
ENCODING 10431
SWIDTH 555 0
DWIDTH 8 0
BBX 8 12 1 -2
BITMAP
11
11
00
00
44
00
00
88
88
00
00
10
ENDCHAR
STARTCHAR 28C0
ENCODING 10432
SWIDTH 555 0
DWIDTH 8 0
BBX 6 2 -1 -2
BITMAP
C4
80
ENDCHAR
STARTCHAR 28C1
ENCODING 10433
SWIDTH 555 0
DWIDTH 8 0
BBX 6 13 -1 -2
BITMAP
04
04
00
00
00
00
00
00
00
00
00
C4
80
ENDCHAR
STARTCHAR 28C2
ENCODING 10434
SWIDTH 555 0
DWIDTH 8 0
BBX 6 9 -1 -2
BITMAP
10
00
00
00
00
00
00
C4
80
ENDCHAR
STARTCHAR 28C3
ENCODING 10435
SWIDTH 555 0
DWIDTH 8 0
BBX 6 13 -1 -2
BITMAP
04
04
00
00
10
00
00
00
00
00
00
C4
80
ENDCHAR
STARTCHAR 28C4
ENCODING 10436
SWIDTH 555 0
DWIDTH 8 0
BBX 6 6 -1 -2
BITMAP
20
20
00
00
C4
80
ENDCHAR
STARTCHAR 28C5
ENCODING 10437
SWIDTH 555 0
DWIDTH 8 0
BBX 6 13 -1 -2
BITMAP
04
04
00
00
00
00
00
20
20
00
00
C4
80
ENDCHAR
STARTCHAR 28C6
ENCODING 10438
SWIDTH 555 0
DWIDTH 8 0
BBX 6 9 -1 -2
BITMAP
10
00
00
20
20
00
00
C4
80
ENDCHAR
STARTCHAR 28C7
ENCODING 10439
SWIDTH 555 0
DWIDTH 8 0
BBX 6 13 -1 -2
BITMAP
04
04
00
00
10
00
00
20
20
00
00
C4
80
ENDCHAR
STARTCHAR 28C8
ENCODING 10440
SWIDTH 555 0
DWIDTH 8 0
BBX 10 13 -1 -2
BITMAP
0040
0040
0000
0000
0000
0000
0000
0000
0000
0000
0000
C400
8000
ENDCHAR
STARTCHAR 28C9
ENCODING 10441
SWIDTH 555 0
DWIDTH 8 0
BBX 10 13 -1 -2
BITMAP
0440
0440
0000
0000
0000
0000
0000
0000
0000
0000
0000
C400
8000
ENDCHAR
STARTCHAR 28CA
ENCODING 10442
SWIDTH 555 0
DWIDTH 8 0
BBX 10 13 -1 -2
BITMAP
0040
0040
0000
0000
1000
0000
0000
0000
0000
0000
0000
C400
8000
ENDCHAR
STARTCHAR 28CB
ENCODING 10443
SWIDTH 555 0
DWIDTH 8 0
BBX 10 13 -1 -2
BITMAP
0440
0440
0000
0000
1000
0000
0000
0000
0000
0000
0000
C400
8000
ENDCHAR
STARTCHAR 28CC
ENCODING 10444
SWIDTH 555 0
DWIDTH 8 0
BBX 10 13 -1 -2
BITMAP
0040
0040
0000
0000
0000
0000
0000
2000
2000
0000
0000
C400
8000
ENDCHAR
STARTCHAR 28CD
ENCODING 10445
SWIDTH 555 0
DWIDTH 8 0
BBX 10 13 -1 -2
BITMAP
0440
0440
0000
0000
0000
0000
0000
2000
2000
0000
0000
C400
8000
ENDCHAR
STARTCHAR 28CE
ENCODING 10446
SWIDTH 555 0
DWIDTH 8 0
BBX 10 13 -1 -2
BITMAP
0040
0040
0000
0000
1000
0000
0000
2000
2000
0000
0000
C400
8000
ENDCHAR
STARTCHAR 28CF
ENCODING 10447
SWIDTH 555 0
DWIDTH 8 0
BBX 10 13 -1 -2
BITMAP
0440
0440
0000
0000
1000
0000
0000
2000
2000
0000
0000
C400
8000
ENDCHAR
STARTCHAR 28D0
ENCODING 10448
SWIDTH 555 0
DWIDTH 8 0
BBX 8 9 -1 -2
BITMAP
01
00
00
00
00
00
00
C4
80
ENDCHAR
STARTCHAR 28D1
ENCODING 10449
SWIDTH 555 0
DWIDTH 8 0
BBX 8 13 -1 -2
BITMAP
04
04
00
00
01
00
00
00
00
00
00
C4
80
ENDCHAR
STARTCHAR 28D2
ENCODING 10450
SWIDTH 555 0
DWIDTH 8 0
BBX 8 9 -1 -2
BITMAP
11
00
00
00
00
00
00
C4
80
ENDCHAR
STARTCHAR 28D3
ENCODING 10451
SWIDTH 555 0
DWIDTH 8 0
BBX 8 13 -1 -2
BITMAP
04
04
00
00
11
00
00
00
00
00
00
C4
80
ENDCHAR
STARTCHAR 28D4
ENCODING 10452
SWIDTH 555 0
DWIDTH 8 0
BBX 8 9 -1 -2
BITMAP
01
00
00
20
20
00
00
C4
80
ENDCHAR
STARTCHAR 28D5
ENCODING 10453
SWIDTH 555 0
DWIDTH 8 0
BBX 8 13 -1 -2
BITMAP
04
04
00
00
01
00
00
20
20
00
00
C4
80
ENDCHAR
STARTCHAR 28D6
ENCODING 10454
SWIDTH 555 0
DWIDTH 8 0
BBX 8 9 -1 -2
BITMAP
11
00
00
20
20
00
00
C4
80
ENDCHAR
STARTCHAR 28D7
ENCODING 10455
SWIDTH 555 0
DWIDTH 8 0
BBX 8 13 -1 -2
BITMAP
04
04
00
00
11
00
00
20
20
00
00
C4
80
ENDCHAR
STARTCHAR 28D8
ENCODING 10456
SWIDTH 555 0
DWIDTH 8 0
BBX 10 13 -1 -2
BITMAP
0040
0040
0000
0000
0100
0000
0000
0000
0000
0000
0000
C400
8000
ENDCHAR
STARTCHAR 28D9
ENCODING 10457
SWIDTH 555 0
DWIDTH 8 0
BBX 10 13 -1 -2
BITMAP
0440
0440
0000
0000
0100
0000
0000
0000
0000
0000
0000
C400
8000
ENDCHAR
STARTCHAR 28DA
ENCODING 10458
SWIDTH 555 0
DWIDTH 8 0
BBX 10 13 -1 -2
BITMAP
0040
0040
0000
0000
1100
0000
0000
0000
0000
0000
0000
C400
8000
ENDCHAR
STARTCHAR 28DB
ENCODING 10459
SWIDTH 555 0
DWIDTH 8 0
BBX 10 13 -1 -2
BITMAP
0440
0440
0000
0000
1100
0000
0000
0000
0000
0000
0000
C400
8000
ENDCHAR
STARTCHAR 28DC
ENCODING 10460
SWIDTH 555 0
DWIDTH 8 0
BBX 10 13 -1 -2
BITMAP
0040
0040
0000
0000
0100
0000
0000
2000
2000
0000
0000
C400
8000
ENDCHAR
STARTCHAR 28DD
ENCODING 10461
SWIDTH 555 0
DWIDTH 8 0
BBX 10 13 -1 -2
BITMAP
0440
0440
0000
0000
0100
0000
0000
2000
2000
0000
0000
C400
8000
ENDCHAR
STARTCHAR 28DE
ENCODING 10462
SWIDTH 555 0
DWIDTH 8 0
BBX 10 13 -1 -2
BITMAP
0040
0040
0000
0000
1100
0000
0000
2000
2000
0000
0000
C400
8000
ENDCHAR
STARTCHAR 28DF
ENCODING 10463
SWIDTH 555 0
DWIDTH 8 0
BBX 10 13 -1 -2
BITMAP
0440
0440
0000
0000
1100
0000
0000
2000
2000
0000
0000
C400
8000
ENDCHAR
STARTCHAR 28E0
ENCODING 10464
SWIDTH 555 0
DWIDTH 8 0
BBX 7 6 -1 -2
BITMAP
02
02
00
00
C4
80
ENDCHAR
STARTCHAR 28E1
ENCODING 10465
SWIDTH 555 0
DWIDTH 8 0
BBX 7 13 -1 -2
BITMAP
04
04
00
00
00
00
00
02
02
00
00
C4
80
ENDCHAR
STARTCHAR 28E2
ENCODING 10466
SWIDTH 555 0
DWIDTH 8 0
BBX 7 9 -1 -2
BITMAP
10
00
00
02
02
00
00
C4
80
ENDCHAR
STARTCHAR 28E3
ENCODING 10467
SWIDTH 555 0
DWIDTH 8 0
BBX 7 13 -1 -2
BITMAP
04
04
00
00
10
00
00
02
02
00
00
C4
80
ENDCHAR
STARTCHAR 28E4
ENCODING 10468
SWIDTH 555 0
DWIDTH 8 0
BBX 7 6 -1 -2
BITMAP
22
22
00
00
C4
80
ENDCHAR
STARTCHAR 28E5
ENCODING 10469
SWIDTH 555 0
DWIDTH 8 0
BBX 7 13 -1 -2
BITMAP
04
04
00
00
00
00
00
22
22
00
00
C4
80
ENDCHAR
STARTCHAR 28E6
ENCODING 10470
SWIDTH 555 0
DWIDTH 8 0
BBX 7 9 -1 -2
BITMAP
10
00
00
22
22
00
00
C4
80
ENDCHAR
STARTCHAR 28E7
ENCODING 10471
SWIDTH 555 0
DWIDTH 8 0
BBX 7 13 -1 -2
BITMAP
04
04
00
00
10
00
00
22
22
00
00
C4
80
ENDCHAR
STARTCHAR 28E8
ENCODING 10472
SWIDTH 555 0
DWIDTH 8 0
BBX 10 13 -1 -2
BITMAP
0040
0040
0000
0000
0000
0000
0000
0200
0200
0000
0000
C400
8000
ENDCHAR
STARTCHAR 28E9
ENCODING 10473
SWIDTH 555 0
DWIDTH 8 0
BBX 10 13 -1 -2
BITMAP
0440
0440
0000
0000
0000
0000
0000
0200
0200
0000
0000
C400
8000
ENDCHAR
STARTCHAR 28EA
ENCODING 10474
SWIDTH 555 0
DWIDTH 8 0
BBX 10 13 -1 -2
BITMAP
0040
0040
0000
0000
1000
0000
0000
0200
0200
0000
0000
C400
8000
ENDCHAR
STARTCHAR 28EB
ENCODING 10475
SWIDTH 555 0
DWIDTH 8 0
BBX 10 13 -1 -2
BITMAP
0440
0440
0000
0000
1000
0000
0000
0200
0200
0000
0000
C400
8000
ENDCHAR
STARTCHAR 28EC
ENCODING 10476
SWIDTH 555 0
DWIDTH 8 0
BBX 10 13 -1 -2
BITMAP
0040
0040
0000
0000
0000
0000
0000
2200
2200
0000
0000
C400
8000
ENDCHAR
STARTCHAR 28ED
ENCODING 10477
SWIDTH 555 0
DWIDTH 8 0
BBX 10 13 -1 -2
BITMAP
0440
0440
0000
0000
0000
0000
0000
2200
2200
0000
0000
C400
8000
ENDCHAR
STARTCHAR 28EE
ENCODING 10478
SWIDTH 555 0
DWIDTH 8 0
BBX 10 13 -1 -2
BITMAP
0040
0040
0000
0000
1000
0000
0000
2200
2200
0000
0000
C400
8000
ENDCHAR
STARTCHAR 28EF
ENCODING 10479
SWIDTH 555 0
DWIDTH 8 0
BBX 10 13 -1 -2
BITMAP
0440
0440
0000
0000
1000
0000
0000
2200
2200
0000
0000
C400
8000
ENDCHAR
STARTCHAR 28F0
ENCODING 10480
SWIDTH 555 0
DWIDTH 8 0
BBX 8 9 -1 -2
BITMAP
01
00
00
02
02
00
00
C4
80
ENDCHAR
STARTCHAR 28F1
ENCODING 10481
SWIDTH 555 0
DWIDTH 8 0
BBX 8 13 -1 -2
BITMAP
04
04
00
00
01
00
00
02
02
00
00
C4
80
ENDCHAR
STARTCHAR 28F2
ENCODING 10482
SWIDTH 555 0
DWIDTH 8 0
BBX 8 9 -1 -2
BITMAP
11
00
00
02
02
00
00
C4
80
ENDCHAR
STARTCHAR 28F3
ENCODING 10483
SWIDTH 555 0
DWIDTH 8 0
BBX 8 13 -1 -2
BITMAP
04
04
00
00
11
00
00
02
02
00
00
C4
80
ENDCHAR
STARTCHAR 28F4
ENCODING 10484
SWIDTH 555 0
DWIDTH 8 0
BBX 8 9 -1 -2
BITMAP
01
00
00
22
22
00
00
C4
80
ENDCHAR
STARTCHAR 28F5
ENCODING 10485
SWIDTH 555 0
DWIDTH 8 0
BBX 8 13 -1 -2
BITMAP
04
04
00
00
01
00
00
22
22
00
00
C4
80
ENDCHAR
STARTCHAR 28F6
ENCODING 10486
SWIDTH 555 0
DWIDTH 8 0
BBX 8 9 -1 -2
BITMAP
11
00
00
22
22
00
00
C4
80
ENDCHAR
STARTCHAR 28F7
ENCODING 10487
SWIDTH 555 0
DWIDTH 8 0
BBX 8 13 -1 -2
BITMAP
04
04
00
00
11
00
00
22
22
00
00
C4
80
ENDCHAR
STARTCHAR 28F8
ENCODING 10488
SWIDTH 555 0
DWIDTH 8 0
BBX 10 13 -1 -2
BITMAP
0040
0040
0000
0000
0100
0000
0000
0200
0200
0000
0000
C400
8000
ENDCHAR
STARTCHAR 28F9
ENCODING 10489
SWIDTH 555 0
DWIDTH 8 0
BBX 10 13 -1 -2
BITMAP
0440
0440
0000
0000
0100
0000
0000
0200
0200
0000
0000
C400
8000
ENDCHAR
STARTCHAR 28FA
ENCODING 10490
SWIDTH 555 0
DWIDTH 8 0
BBX 10 13 -1 -2
BITMAP
0040
0040
0000
0000
1100
0000
0000
0200
0200
0000
0000
C400
8000
ENDCHAR
STARTCHAR 28FB
ENCODING 10491
SWIDTH 555 0
DWIDTH 8 0
BBX 10 13 -1 -2
BITMAP
0440
0440
0000
0000
1100
0000
0000
0200
0200
0000
0000
C400
8000
ENDCHAR
STARTCHAR 28FC
ENCODING 10492
SWIDTH 555 0
DWIDTH 8 0
BBX 10 13 -1 -2
BITMAP
0040
0040
0000
0000
0100
0000
0000
2200
2200
0000
0000
C400
8000
ENDCHAR
STARTCHAR 28FD
ENCODING 10493
SWIDTH 555 0
DWIDTH 8 0
BBX 10 13 -1 -2
BITMAP
0440
0440
0000
0000
0100
0000
0000
2200
2200
0000
0000
C400
8000
ENDCHAR
STARTCHAR 28FE
ENCODING 10494
SWIDTH 555 0
DWIDTH 8 0
BBX 10 13 -1 -2
BITMAP
0040
0040
0000
0000
1100
0000
0000
2200
2200
0000
0000
C400
8000
ENDCHAR
STARTCHAR 28FF
ENCODING 10495
SWIDTH 555 0
DWIDTH 8 0
BBX 10 13 -1 -2
BITMAP
0440
0440
0000
0000
1100
0000
0000
2200
2200
0000
0000
C400
8000
ENDCHAR
STARTCHAR 2B58
ENCODING 11096
SWIDTH 555 0
DWIDTH 8 0
BBX 8 7 0 1
BITMAP
7E
C3
C1
81
C3
66
3C
ENDCHAR
STARTCHAR 2E2C
ENCODING 11820
SWIDTH 555 0
DWIDTH 8 0
BBX 8 6 0 0
BITMAP
21
42
00
00
00
84
ENDCHAR
STARTCHAR E000
ENCODING 57344
SWIDTH 555 0
DWIDTH 8 0
BBX 8 6 0 2
BITMAP
22
FB
FF
22
22
42
ENDCHAR
STARTCHAR E001
ENCODING 57345
SWIDTH 555 0
DWIDTH 8 0
BBX 8 8 0 1
BITMAP
10
76
7E
F9
FD
FD
7F
3C
ENDCHAR
STARTCHAR E002
ENCODING 57346
SWIDTH 555 0
DWIDTH 8 0
BBX 8 8 0 1
BITMAP
10
76
7E
81
81
81
43
3C
ENDCHAR
STARTCHAR E003
ENCODING 57347
SWIDTH 555 0
DWIDTH 8 0
BBX 8 8 0 1
BITMAP
10
76
7E
FF
EF
FF
7F
3C
ENDCHAR
STARTCHAR E004
ENCODING 57348
SWIDTH 555 0
DWIDTH 8 0
BBX 8 8 0 1
BITMAP
10
76
7E
81
81
FF
7F
3C
ENDCHAR
STARTCHAR E005
ENCODING 57349
SWIDTH 555 0
DWIDTH 8 0
BBX 8 7 0 1
BITMAP
30
20
FC
FF
FF
F8
30
ENDCHAR
STARTCHAR E006
ENCODING 57350
SWIDTH 555 0
DWIDTH 8 0
BBX 8 8 0 1
BITMAP
10
3F
7F
1F
12
10
74
FC
ENDCHAR
STARTCHAR E007
ENCODING 57351
SWIDTH 555 0
DWIDTH 8 0
BBX 8 8 0 1
BITMAP
60
F0
D0
FC
FF
7E
3E
18
ENDCHAR
STARTCHAR E008
ENCODING 57352
SWIDTH 555 0
DWIDTH 8 0
BBX 8 8 0 1
BITMAP
10
76
76
F7
DF
DF
76
34
ENDCHAR
STARTCHAR E009
ENCODING 57353
SWIDTH 555 0
DWIDTH 8 0
BBX 6 16 1 -3
BITMAP
FC
7C
7C
78
78
78
78
78
78
78
30
00
30
78
78
38
ENDCHAR
STARTCHAR E00A
ENCODING 57354
SWIDTH 555 0
DWIDTH 8 0
BBX 8 13 0 -2
BITMAP
78
78
78
F1
FF
FE
FC
1C
18
18
10
30
20
ENDCHAR
STARTCHAR E0A0
ENCODING 57504
SWIDTH 555 0
DWIDTH 8 0
BBX 8 16 0 -3
BITMAP
E0
E0
E4
EE
FF
E4
E4
E4
CC
18
70
60
E0
E0
E0
E0
ENDCHAR
STARTCHAR E0A1
ENCODING 57505
SWIDTH 555 0
DWIDTH 8 0
BBX 6 16 1 -3
BITMAP
80
80
80
80
80
80
80
F8
00
64
74
74
5C
5C
6C
6C
ENDCHAR
STARTCHAR E0A2
ENCODING 57506
SWIDTH 555 0
DWIDTH 8 0
BBX 8 14 0 -2
BITMAP
1C
26
62
62
62
62
FF
E7
E7
F7
F7
F7
FF
FF
ENDCHAR
STARTCHAR E0A3
ENCODING 57507
SWIDTH 555 0
DWIDTH 8 0
BBX 8 16 0 -3
BITMAP
FC
FC
C0
C0
C0
C0
C0
FC
00
33
3B
3B
2F
27
27
23
ENDCHAR
STARTCHAR E0B0
ENCODING 57520
SWIDTH 555 0
DWIDTH 8 0
BBX 8 15 0 -2
BITMAP
80
C0
E0
F0
F8
FC
FE
FF
FE
FC
F8
F0
E0
C0
80
ENDCHAR
STARTCHAR E0B1
ENCODING 57521
SWIDTH 555 0
DWIDTH 8 0
BBX 8 15 0 -2
BITMAP
C0
60
30
18
0C
06
02
01
02
04
08
10
20
40
80
ENDCHAR
STARTCHAR E0B2
ENCODING 57522
SWIDTH 555 0
DWIDTH 8 0
BBX 8 15 0 -2
BITMAP
01
03
07
0F
1F
3F
7F
FF
7F
3F
1F
07
03
01
01
ENDCHAR
STARTCHAR E0B3
ENCODING 57523
SWIDTH 555 0
DWIDTH 8 0
BBX 8 16 0 -3
BITMAP
01
03
06
0C
08
10
20
40
C0
60
30
10
08
04
02
01
ENDCHAR
STARTCHAR E0B4
ENCODING 57524
SWIDTH 555 0
DWIDTH 8 0
BBX 8 16 0 -3
BITMAP
C0
F0
FC
FE
FE
FF
FF
FF
FF
FF
FF
FE
FE
FC
F8
E0
ENDCHAR
STARTCHAR E0B5
ENCODING 57525
SWIDTH 555 0
DWIDTH 8 0
BBX 8 16 0 -3
BITMAP
C0
30
08
04
06
03
03
03
01
03
03
02
06
0C
18
60
ENDCHAR
STARTCHAR E0B6
ENCODING 57526
SWIDTH 555 0
DWIDTH 8 0
BBX 8 16 0 -3
BITMAP
01
0F
1F
3F
7F
FF
FF
FF
FF
FF
FF
7F
7F
3F
1F
07
ENDCHAR
STARTCHAR E0B7
ENCODING 57527
SWIDTH 555 0
DWIDTH 8 0
BBX 8 16 0 -3
BITMAP
03
0C
10
20
60
40
C0
C0
C0
C0
C0
40
60
30
08
06
ENDCHAR
STARTCHAR E0B8
ENCODING 57528
SWIDTH 555 0
DWIDTH 8 0
BBX 8 15 0 -2
BITMAP
80
80
C0
C0
E0
E0
F0
F0
F8
F8
FC
FC
FE
FE
FF
ENDCHAR
STARTCHAR E0B9
ENCODING 57529
SWIDTH 555 0
DWIDTH 8 0
BBX 8 15 0 -2
BITMAP
80
80
40
40
20
20
10
10
08
08
04
04
02
02
01
ENDCHAR
STARTCHAR E0BA
ENCODING 57530
SWIDTH 555 0
DWIDTH 8 0
BBX 8 15 0 -2
BITMAP
01
01
01
03
03
07
07
0F
1F
1F
3F
3F
7F
7F
FF
ENDCHAR
STARTCHAR E0BB
ENCODING 57531
SWIDTH 555 0
DWIDTH 8 0
BBX 8 15 0 -2
BITMAP
01
02
02
04
04
08
08
10
10
20
20
40
40
80
80
ENDCHAR
STARTCHAR E0BC
ENCODING 57532
SWIDTH 555 0
DWIDTH 8 0
BBX 8 15 0 -3
BITMAP
FF
FF
FE
FC
FC
F8
F8
F0
F0
E0
E0
C0
C0
80
80
ENDCHAR
STARTCHAR E0BD
ENCODING 57533
SWIDTH 555 0
DWIDTH 8 0
BBX 8 15 0 -2
BITMAP
01
02
02
04
04
08
08
10
10
20
20
40
40
80
80
ENDCHAR
STARTCHAR E0BE
ENCODING 57534
SWIDTH 555 0
DWIDTH 8 0
BBX 8 15 0 -3
BITMAP
FF
7F
7F
3F
3F
1F
1F
0F
0F
07
07
03
03
01
01
ENDCHAR
STARTCHAR E0BF
ENCODING 57535
SWIDTH 555 0
DWIDTH 8 0
BBX 8 15 0 -2
BITMAP
80
80
40
40
20
20
10
10
08
08
04
04
02
02
01
ENDCHAR
STARTCHAR E0C0
ENCODING 57536
SWIDTH 555 0
DWIDTH 8 0
BBX 7 16 0 -3
BITMAP
40
80
A0
E4
EE
F8
F8
F8
F0
F0
EC
E0
B0
80
C0
80
ENDCHAR
STARTCHAR E0C1
ENCODING 57537
SWIDTH 555 0
DWIDTH 8 0
BBX 8 15 0 -2
BITMAP
C0
F0
64
1A
07
08
0C
10
0A
1C
20
F0
40
40
80
ENDCHAR
STARTCHAR E0C2
ENCODING 57538
SWIDTH 555 0
DWIDTH 8 0
BBX 7 16 1 -3
BITMAP
04
0A
0A
4E
EE
3E
1E
3E
1E
1E
6E
0E
1A
02
06
02
ENDCHAR
STARTCHAR E0C3
ENCODING 57539
SWIDTH 555 0
DWIDTH 8 0
BBX 7 15 1 -2
BITMAP
06
1C
50
B0
C0
20
20
20
20
50
30
1C
04
04
02
ENDCHAR
STARTCHAR E0C4
ENCODING 57540
SWIDTH 555 0
DWIDTH 8 0
BBX 8 15 0 -3
BITMAP
FF
F7
F5
F8
E8
E8
FC
F8
00
CE
FC
FC
E0
00
F0
ENDCHAR
STARTCHAR E0C5
ENCODING 57541
SWIDTH 555 0
DWIDTH 8 0
BBX 8 15 0 -3
BITMAP
BF
AF
AF
3F
37
17
7F
3F
00
F3
7F
77
0F
00
1B
ENDCHAR
STARTCHAR E0C6
ENCODING 57542
SWIDTH 555 0
DWIDTH 8 0
BBX 8 15 0 -3
BITMAP
BE
0E
AA
AA
BF
BB
88
88
06
AA
04
B8
08
A3
A1
ENDCHAR
STARTCHAR E0C7
ENCODING 57543
SWIDTH 555 0
DWIDTH 8 0
BBX 8 15 0 -3
BITMAP
7D
38
5D
5D
AD
AD
19
19
20
65
20
1D
18
85
85
ENDCHAR
STARTCHAR E0C8
ENCODING 57544
SWIDTH 555 0
DWIDTH 8 0
BBX 8 16 0 -3
BITMAP
80
E0
F8
C4
E0
F0
80
E0
F0
F8
FF
C0
F0
F0
C0
C0
ENDCHAR
STARTCHAR E0CA
ENCODING 57546
SWIDTH 555 0
DWIDTH 8 0
BBX 8 16 0 -3
BITMAP
01
07
1F
05
07
0F
01
07
0F
0F
FF
21
07
0F
03
03
ENDCHAR
STARTCHAR E0CC
ENCODING 57548
SWIDTH 555 0
DWIDTH 8 0
BBX 8 16 0 -3
BITMAP
C0
E0
E0
E0
E0
E6
CF
0F
0F
0F
CE
E6
E0
E0
E0
C0
ENDCHAR
STARTCHAR E0CD
ENCODING 57549
SWIDTH 555 0
DWIDTH 8 0
BBX 8 16 0 -3
BITMAP
C0
A0
A0
A0
A0
AE
D1
11
11
D1
AA
A6
A0
A0
A0
E0
ENDCHAR
STARTCHAR E0CE
ENCODING 57550
SWIDTH 555 0
DWIDTH 8 0
BBX 8 7 0 1
BITMAP
3C
76
EF
0F
F6
7E
38
ENDCHAR
STARTCHAR E0CF
ENCODING 57551
SWIDTH 555 0
DWIDTH 8 0
BBX 8 8 0 1
BITMAP
18
66
99
E7
FF
FF
7E
18
ENDCHAR
STARTCHAR E0D0
ENCODING 57552
SWIDTH 555 0
DWIDTH 8 0
BBX 8 8 0 1
BITMAP
46
B9
B9
66
00
EF
99
E7
ENDCHAR
STARTCHAR E0D1
ENCODING 57553
SWIDTH 555 0
DWIDTH 8 0
BBX 8 10 0 0
BITMAP
FC
FF
FF
FF
FC
FC
FF
FF
FF
FC
ENDCHAR
STARTCHAR E0D2
ENCODING 57554
SWIDTH 555 0
DWIDTH 8 0
BBX 8 16 0 -3
BITMAP
FF
FE
FC
FC
F8
F0
E0
E0
00
E0
F0
F0
F8
FC
FE
FF
ENDCHAR
STARTCHAR E0D4
ENCODING 57556
SWIDTH 555 0
DWIDTH 8 0
BBX 8 16 0 -3
BITMAP
FF
7F
3F
1F
1F
0F
07
03
00
07
0F
0F
1F
3F
7F
FF
ENDCHAR
STARTCHAR E200
ENCODING 57856
SWIDTH 555 0
DWIDTH 8 0
BBX 8 12 0 -1
BITMAP
02
07
0F
1C
38
F0
F0
78
3C
1E
0F
03
ENDCHAR
STARTCHAR E201
ENCODING 57857
SWIDTH 555 0
DWIDTH 8 0
BBX 8 6 0 2
BITMAP
18
3E
7F
FF
40
10
ENDCHAR
STARTCHAR E202
ENCODING 57858
SWIDTH 555 0
DWIDTH 8 0
BBX 6 16 1 -3
BITMAP
30
30
30
38
78
7C
FC
FC
FC
FC
FC
7C
78
7C
FC
78
ENDCHAR
STARTCHAR E203
ENCODING 57859
SWIDTH 555 0
DWIDTH 8 0
BBX 8 4 0 3
BITMAP
7E
7E
BF
BF
ENDCHAR
STARTCHAR E204
ENCODING 57860
SWIDTH 555 0
DWIDTH 8 0
BBX 8 7 0 1
BITMAP
28
00
FF
FF
7E
1C
FF
ENDCHAR
STARTCHAR E205
ENCODING 57861
SWIDTH 555 0
DWIDTH 8 0
BBX 8 8 0 1
BITMAP
C0
C0
20
20
18
08
06
03
ENDCHAR
STARTCHAR E206
ENCODING 57862
SWIDTH 555 0
DWIDTH 8 0
BBX 8 7 0 1
BITMAP
76
81
81
81
81
82
6C
ENDCHAR
STARTCHAR E207
ENCODING 57863
SWIDTH 555 0
DWIDTH 8 0
BBX 8 9 0 0
BITMAP
1E
5F
3F
1F
1F
1E
FC
80
40
ENDCHAR
STARTCHAR E208
ENCODING 57864
SWIDTH 555 0
DWIDTH 8 0
BBX 8 7 0 1
BITMAP
18
3C
7F
FF
00
18
10
ENDCHAR
STARTCHAR E209
ENCODING 57865
SWIDTH 555 0
DWIDTH 8 0
BBX 8 7 0 1
BITMAP
E0
FC
1F
1C
1C
1A
28
ENDCHAR
STARTCHAR E20A
ENCODING 57866
SWIDTH 555 0
DWIDTH 8 0
BBX 6 16 1 -3
BITMAP
30
48
48
48
48
48
58
58
58
58
58
58
BC
FC
B4
78
ENDCHAR
STARTCHAR E20B
ENCODING 57867
SWIDTH 555 0
DWIDTH 8 0
BBX 6 16 1 -3
BITMAP
30
48
48
58
58
58
58
58
58
58
58
58
BC
FC
B4
78
ENDCHAR
STARTCHAR E20C
ENCODING 57868
SWIDTH 555 0
DWIDTH 8 0
BBX 6 16 1 -3
BITMAP
30
48
48
48
48
48
48
48
48
48
58
58
BC
FC
B4
78
ENDCHAR
STARTCHAR E20D
ENCODING 57869
SWIDTH 555 0
DWIDTH 8 0
BBX 8 7 0 1
BITMAP
C1
26
18
18
24
42
81
ENDCHAR
STARTCHAR E20E
ENCODING 57870
SWIDTH 555 0
DWIDTH 8 0
BBX 8 9 0 0
BITMAP
3C
3E
3E
00
FF
7E
3C
3C
3C
ENDCHAR
STARTCHAR E20F
ENCODING 57871
SWIDTH 555 0
DWIDTH 8 0
BBX 8 7 0 1
BITMAP
33
B4
78
1C
6E
E7
C3
ENDCHAR
STARTCHAR E210
ENCODING 57872
SWIDTH 555 0
DWIDTH 8 0
BBX 8 9 0 0
BITMAP
7E
FF
FF
FF
7E
67
66
62
24
ENDCHAR
STARTCHAR E211
ENCODING 57873
SWIDTH 555 0
DWIDTH 8 0
BBX 8 6 0 2
BITMAP
42
BD
5B
08
18
08
ENDCHAR
STARTCHAR E212
ENCODING 57874
SWIDTH 555 0
DWIDTH 8 0
BBX 8 7 0 1
BITMAP
FF
FF
9B
A5
FF
7F
08
ENDCHAR
STARTCHAR E213
ENCODING 57875
SWIDTH 555 0
DWIDTH 8 0
BBX 8 14 0 -2
BITMAP
10
38
10
38
78
FC
B3
B0
38
3C
6C
64
C6
C6
ENDCHAR
STARTCHAR E214
ENCODING 57876
SWIDTH 555 0
DWIDTH 8 0
BBX 8 6 0 1
BITMAP
18
7E
7E
FF
7E
7E
ENDCHAR
STARTCHAR E215
ENCODING 57877
SWIDTH 555 0
DWIDTH 8 0
BBX 8 7 0 1
BITMAP
3E
7F
E3
D3
E7
7E
18
ENDCHAR
STARTCHAR E216
ENCODING 57878
SWIDTH 555 0
DWIDTH 8 0
BBX 8 11 0 -1
BITMAP
03
06
06
0C
1C
18
30
30
60
C0
40
ENDCHAR
STARTCHAR E217
ENCODING 57879
SWIDTH 555 0
DWIDTH 8 0
BBX 8 6 0 2
BITMAP
01
0F
77
EE
5E
36
ENDCHAR
STARTCHAR E218
ENCODING 57880
SWIDTH 555 0
DWIDTH 8 0
BBX 8 6 0 2
BITMAP
24
FF
FF
3C
3C
3C
ENDCHAR
STARTCHAR E219
ENCODING 57881
SWIDTH 555 0
DWIDTH 8 0
BBX 8 4 0 3
BITMAP
30
FA
6F
FF
ENDCHAR
STARTCHAR E21A
ENCODING 57882
SWIDTH 555 0
DWIDTH 8 0
BBX 8 7 0 1
BITMAP
A0
60
30
18
0A
1F
18
ENDCHAR
STARTCHAR E21B
ENCODING 57883
SWIDTH 555 0
DWIDTH 8 0
BBX 8 7 0 1
BITMAP
80
C0
F0
F8
5C
FE
FF
ENDCHAR
STARTCHAR E21C
ENCODING 57884
SWIDTH 555 0
DWIDTH 8 0
BBX 8 8 0 1
BITMAP
38
7E
7F
FF
BF
60
18
18
ENDCHAR
STARTCHAR E21D
ENCODING 57885
SWIDTH 555 0
DWIDTH 8 0
BBX 8 6 0 2
BITMAP
10
68
9C
BE
7F
FF
ENDCHAR
STARTCHAR E21E
ENCODING 57886
SWIDTH 555 0
DWIDTH 8 0
BBX 8 6 0 2
BITMAP
7E
BD
E7
66
34
18
ENDCHAR
STARTCHAR E21F
ENCODING 57887
SWIDTH 555 0
DWIDTH 8 0
BBX 8 6 0 1
BITMAP
06
0F
0E
3C
78
F0
ENDCHAR
STARTCHAR E220
ENCODING 57888
SWIDTH 555 0
DWIDTH 8 0
BBX 8 7 0 1
BITMAP
3C
7E
BF
10
10
50
30
ENDCHAR
STARTCHAR E221
ENCODING 57889
SWIDTH 555 0
DWIDTH 8 0
BBX 8 14 0 -2
BITMAP
1C
6E
DF
9F
9F
9F
FF
81
81
81
81
C1
63
3C
ENDCHAR
STARTCHAR E222
ENCODING 57890
SWIDTH 555 0
DWIDTH 8 0
BBX 8 10 0 0
BITMAP
18
18
3C
6C
CC
80
80
4F
7E
7E
ENDCHAR
STARTCHAR E223
ENCODING 57891
SWIDTH 555 0
DWIDTH 8 0
BBX 8 16 0 -3
BITMAP
08
18
18
3C
3E
7F
FF
7E
7E
1E
7E
1E
7E
7E
7E
7E
ENDCHAR
STARTCHAR E224
ENCODING 57892
SWIDTH 555 0
DWIDTH 8 0
BBX 8 2 0 4
BITMAP
FF
FF
ENDCHAR
STARTCHAR E225
ENCODING 57893
SWIDTH 555 0
DWIDTH 8 0
BBX 8 6 0 2
BITMAP
18
18
08
1C
3C
C3
ENDCHAR
STARTCHAR E226
ENCODING 57894
SWIDTH 555 0
DWIDTH 8 0
BBX 8 5 0 2
BITMAP
C0
DC
BF
7F
FF
ENDCHAR
STARTCHAR E227
ENCODING 57895
SWIDTH 555 0
DWIDTH 8 0
BBX 8 8 0 1
BITMAP
18
7E
FF
FF
18
18
3C
3C
ENDCHAR
STARTCHAR E228
ENCODING 57896
SWIDTH 555 0
DWIDTH 8 0
BBX 8 2 0 4
BITMAP
3C
FF
ENDCHAR
STARTCHAR E229
ENCODING 57897
SWIDTH 555 0
DWIDTH 8 0
BBX 8 4 0 3
BITMAP
04
02
A1
8E
ENDCHAR
STARTCHAR E22A
ENCODING 57898
SWIDTH 555 0
DWIDTH 8 0
BBX 8 2 0 4
BITMAP
FF
FF
ENDCHAR
STARTCHAR E22B
ENCODING 57899
SWIDTH 555 0
DWIDTH 8 0
BBX 8 7 0 1
BITMAP
7E
FB
BD
FF
FE
70
38
ENDCHAR
STARTCHAR E22C
ENCODING 57900
SWIDTH 555 0
DWIDTH 8 0
BBX 8 7 0 1
BITMAP
7F
A4
24
24
34
67
22
ENDCHAR
STARTCHAR E22D
ENCODING 57901
SWIDTH 555 0
DWIDTH 8 0
BBX 8 7 0 1
BITMAP
38
44
42
61
89
BE
C0
ENDCHAR
STARTCHAR E22E
ENCODING 57902
SWIDTH 555 0
DWIDTH 8 0
BBX 8 4 0 3
BITMAP
1C
FF
B7
78
ENDCHAR
STARTCHAR E22F
ENCODING 57903
SWIDTH 555 0
DWIDTH 8 0
BBX 8 7 0 1
BITMAP
E0
F3
75
16
08
08
08
ENDCHAR
STARTCHAR E230
ENCODING 57904
SWIDTH 555 0
DWIDTH 8 0
BBX 8 5 0 3
BITMAP
1C
14
14
D7
16
ENDCHAR
STARTCHAR E231
ENCODING 57905
SWIDTH 555 0
DWIDTH 8 0
BBX 8 8 0 1
BITMAP
18
3C
5A
5A
3D
E3
3C
C3
ENDCHAR
STARTCHAR E232
ENCODING 57906
SWIDTH 555 0
DWIDTH 8 0
BBX 8 7 0 1
BITMAP
38
7E
7E
3D
FC
3C
3C
ENDCHAR
STARTCHAR E233
ENCODING 57907
SWIDTH 555 0
DWIDTH 8 0
BBX 8 16 0 -3
BITMAP
18
7E
7E
7F
FF
FF
FF
FF
FF
FF
00
18
18
18
18
18
ENDCHAR
STARTCHAR E234
ENCODING 57908
SWIDTH 555 0
DWIDTH 8 0
BBX 8 5 0 3
BITMAP
18
5C
AF
2C
08
ENDCHAR
STARTCHAR E235
ENCODING 57909
SWIDTH 555 0
DWIDTH 8 0
BBX 8 7 0 1
BITMAP
3C
7E
FF
FF
FF
3C
1C
ENDCHAR
STARTCHAR E236
ENCODING 57910
SWIDTH 555 0
DWIDTH 8 0
BBX 8 7 0 1
BITMAP
7E
E3
DB
DB
C3
7A
3C
ENDCHAR
STARTCHAR E237
ENCODING 57911
SWIDTH 555 0
DWIDTH 8 0
BBX 8 7 0 1
BITMAP
FF
E7
DB
DB
D3
FB
FF
ENDCHAR
STARTCHAR E238
ENCODING 57912
SWIDTH 555 0
DWIDTH 8 0
BBX 8 7 0 1
BITMAP
42
E7
FB
18
18
3C
18
ENDCHAR
STARTCHAR E239
ENCODING 57913
SWIDTH 555 0
DWIDTH 8 0
BBX 8 6 0 2
BITMAP
18
3E
7F
FF
00
20
ENDCHAR
STARTCHAR E23A
ENCODING 57914
SWIDTH 555 0
DWIDTH 8 0
BBX 8 10 0 0
BITMAP
28
2A
2E
7F
EE
F7
FB
7B
7E
3C
ENDCHAR
STARTCHAR E23B
ENCODING 57915
SWIDTH 555 0
DWIDTH 8 0
BBX 8 16 0 -3
BITMAP
FF
BF
BF
FF
00
FF
BF
BF
BF
BF
BF
BF
BF
FF
FF
7F
ENDCHAR
STARTCHAR E23C
ENCODING 57916
SWIDTH 555 0
DWIDTH 8 0
BBX 8 7 0 1
BITMAP
7F
FF
83
83
83
83
FE
ENDCHAR
STARTCHAR E23D
ENCODING 57917
SWIDTH 555 0
DWIDTH 8 0
BBX 8 8 0 1
BITMAP
3C
18
62
81
81
81
81
7E
ENDCHAR
STARTCHAR E23E
ENCODING 57918
SWIDTH 555 0
DWIDTH 8 0
BBX 8 6 0 2
BITMAP
34
79
80
5B
3C
10
ENDCHAR
STARTCHAR E23F
ENCODING 57919
SWIDTH 555 0
DWIDTH 8 0
BBX 8 9 0 1
BITMAP
7E
7E
FF
BD
6F
DF
B6
6B
1C
ENDCHAR
STARTCHAR E240
ENCODING 57920
SWIDTH 555 0
DWIDTH 8 0
BBX 8 7 0 1
BITMAP
FE
9B
83
FF
81
81
FF
ENDCHAR
STARTCHAR E241
ENCODING 57921
SWIDTH 555 0
DWIDTH 8 0
BBX 8 7 0 2
BITMAP
07
67
E7
E6
66
36
30
ENDCHAR
STARTCHAR E242
ENCODING 57922
SWIDTH 555 0
DWIDTH 8 0
BBX 8 5 0 2
BITMAP
81
99
95
81
5C
ENDCHAR
STARTCHAR E243
ENCODING 57923
SWIDTH 555 0
DWIDTH 8 0
BBX 8 2 0 4
BITMAP
3E
FF
ENDCHAR
STARTCHAR E244
ENCODING 57924
SWIDTH 555 0
DWIDTH 8 0
BBX 8 7 0 1
BITMAP
FF
83
8B
83
8F
FF
FE
ENDCHAR
STARTCHAR E245
ENCODING 57925
SWIDTH 555 0
DWIDTH 8 0
BBX 8 4 0 3
BITMAP
24
43
BF
EF
ENDCHAR
STARTCHAR E246
ENCODING 57926
SWIDTH 555 0
DWIDTH 8 0
BBX 8 6 0 2
BITMAP
3C
3C
7E
67
DF
7E
ENDCHAR
STARTCHAR E247
ENCODING 57927
SWIDTH 555 0
DWIDTH 8 0
BBX 8 7 0 2
BITMAP
A0
D8
FA
F7
FC
E0
80
ENDCHAR
STARTCHAR E248
ENCODING 57928
SWIDTH 555 0
DWIDTH 8 0
BBX 8 6 0 1
BITMAP
10
2C
5A
DB
42
3C
ENDCHAR
STARTCHAR E249
ENCODING 57929
SWIDTH 555 0
DWIDTH 8 0
BBX 8 7 0 1
BITMAP
7E
FF
EB
D5
EF
5E
3C
ENDCHAR
STARTCHAR E24A
ENCODING 57930
SWIDTH 555 0
DWIDTH 8 0
BBX 7 16 1 -3
BITMAP
30
30
30
10
10
10
10
10
58
DC
48
CC
FE
FE
CC
78
ENDCHAR
STARTCHAR E24B
ENCODING 57931
SWIDTH 555 0
DWIDTH 8 0
BBX 8 8 0 1
BITMAP
C3
FF
C1
C1
01
07
0E
08
ENDCHAR
STARTCHAR E24C
ENCODING 57932
SWIDTH 555 0
DWIDTH 8 0
BBX 8 5 0 2
BITMAP
42
C3
FF
C3
02
ENDCHAR
STARTCHAR E24D
ENCODING 57933
SWIDTH 555 0
DWIDTH 8 0
BBX 8 6 0 2
BITMAP
3C
7E
FF
FF
FF
FF
ENDCHAR
STARTCHAR E24E
ENCODING 57934
SWIDTH 555 0
DWIDTH 8 0
BBX 8 2 0 4
BITMAP
18
FF
ENDCHAR
STARTCHAR E24F
ENCODING 57935
SWIDTH 555 0
DWIDTH 8 0
BBX 8 8 0 1
BITMAP
18
7E
FF
FF
FF
FF
FF
3C
ENDCHAR
STARTCHAR E250
ENCODING 57936
SWIDTH 555 0
DWIDTH 8 0
BBX 8 6 0 2
BITMAP
80
E0
F0
9E
8F
0F
ENDCHAR
STARTCHAR E251
ENCODING 57937
SWIDTH 555 0
DWIDTH 8 0
BBX 8 7 0 1
BITMAP
F0
F8
AC
5E
2F
15
0F
ENDCHAR
STARTCHAR E252
ENCODING 57938
SWIDTH 555 0
DWIDTH 8 0
BBX 8 14 0 -2
BITMAP
18
1C
2E
7E
FE
FF
FF
7E
3E
3C
3C
18
18
08
ENDCHAR
STARTCHAR E253
ENCODING 57939
SWIDTH 555 0
DWIDTH 8 0
BBX 8 4 0 3
BITMAP
FF
DF
FF
FF
ENDCHAR
STARTCHAR E254
ENCODING 57940
SWIDTH 555 0
DWIDTH 8 0
BBX 8 3 0 3
BITMAP
DF
FF
FF
ENDCHAR
STARTCHAR E255
ENCODING 57941
SWIDTH 555 0
DWIDTH 8 0
BBX 8 3 0 3
BITMAP
FF
99
66
ENDCHAR
STARTCHAR E256
ENCODING 57942
SWIDTH 555 0
DWIDTH 8 0
BBX 7 9 1 1
BITMAP
10
10
78
50
00
F0
7A
30
FE
ENDCHAR
STARTCHAR E257
ENCODING 57943
SWIDTH 555 0
DWIDTH 8 0
BBX 8 5 0 3
BITMAP
7E
FF
43
BD
7E
ENDCHAR
STARTCHAR E258
ENCODING 57944
SWIDTH 555 0
DWIDTH 8 0
BBX 8 4 0 2
BITMAP
7C
7F
F6
7F
ENDCHAR
STARTCHAR E259
ENCODING 57945
SWIDTH 555 0
DWIDTH 8 0
BBX 6 16 1 -3
BITMAP
08
38
78
78
78
78
7C
7C
7C
7C
7C
FC
FC
FC
FC
FC
ENDCHAR
STARTCHAR E25A
ENCODING 57946
SWIDTH 555 0
DWIDTH 8 0
BBX 8 4 0 3
BITMAP
7B
FA
F8
E0
ENDCHAR
STARTCHAR E25B
ENCODING 57947
SWIDTH 555 0
DWIDTH 8 0
BBX 8 7 0 1
BITMAP
10
76
7F
FF
FF
E7
81
ENDCHAR
STARTCHAR E25C
ENCODING 57948
SWIDTH 555 0
DWIDTH 8 0
BBX 8 15 0 -2
BITMAP
F1
F0
72
22
21
21
21
21
21
21
21
21
21
21
21
ENDCHAR
STARTCHAR E25D
ENCODING 57949
SWIDTH 555 0
DWIDTH 8 0
BBX 8 7 0 1
BITMAP
FF
81
81
81
81
81
FF
ENDCHAR
STARTCHAR E25E
ENCODING 57950
SWIDTH 555 0
DWIDTH 8 0
BBX 8 6 0 2
BITMAP
7E
FF
FB
FF
FF
FE
ENDCHAR
STARTCHAR E25F
ENCODING 57951
SWIDTH 555 0
DWIDTH 8 0
BBX 8 14 0 -2
BITMAP
1C
7C
7E
FF
F1
F0
F8
FC
FC
7C
7C
FE
FE
FE
ENDCHAR
STARTCHAR E260
ENCODING 57952
SWIDTH 555 0
DWIDTH 8 0
BBX 6 16 1 -3
BITMAP
10
20
30
7C
78
38
30
78
30
30
38
78
7C
FC
FC
FC
ENDCHAR
STARTCHAR E261
ENCODING 57953
SWIDTH 555 0
DWIDTH 8 0
BBX 8 16 0 -3
BITMAP
18
3C
3E
3C
18
7E
18
1C
3C
3C
7E
7F
FF
FF
FF
FF
ENDCHAR
STARTCHAR E262
ENCODING 57954
SWIDTH 555 0
DWIDTH 8 0
BBX 7 16 1 -3
BITMAP
10
30
04
7C
78
30
30
78
30
38
78
78
FC
FC
FE
FC
ENDCHAR
STARTCHAR E263
ENCODING 57955
SWIDTH 555 0
DWIDTH 8 0
BBX 8 14 0 -2
BITMAP
DB
5A
7E
7E
3C
3C
3E
3E
7E
7E
FF
FF
FF
FF
ENDCHAR
STARTCHAR E264
ENCODING 57956
SWIDTH 555 0
DWIDTH 8 0
BBX 8 6 0 2
BITMAP
04
14
FF
F9
7F
FB
ENDCHAR
STARTCHAR E265
ENCODING 57957
SWIDTH 555 0
DWIDTH 8 0
BBX 8 10 0 0
BITMAP
01
03
02
19
1F
1F
1E
3C
78
F0
ENDCHAR
STARTCHAR E266
ENCODING 57958
SWIDTH 555 0
DWIDTH 8 0
BBX 8 7 0 1
BITMAP
3C
BD
BD
BD
3C
BD
3C
ENDCHAR
STARTCHAR E267
ENCODING 57959
SWIDTH 555 0
DWIDTH 8 0
BBX 8 6 0 2
BITMAP
08
10
3C
76
B9
EF
ENDCHAR
STARTCHAR E268
ENCODING 57960
SWIDTH 555 0
DWIDTH 8 0
BBX 8 4 0 3
BITMAP
18
3C
7F
FF
ENDCHAR
STARTCHAR E269
ENCODING 57961
SWIDTH 555 0
DWIDTH 8 0
BBX 7 9 0 0
BITMAP
20
5C
3C
7E
7E
7E
7E
BE
98
ENDCHAR
STARTCHAR E26A
ENCODING 57962
SWIDTH 555 0
DWIDTH 8 0
BBX 8 7 0 1
BITMAP
27
F7
F7
1A
38
78
20
ENDCHAR
STARTCHAR E26B
ENCODING 57963
SWIDTH 555 0
DWIDTH 8 0
BBX 8 3 0 3
BITMAP
7C
9B
6E
ENDCHAR
STARTCHAR E26C
ENCODING 57964
SWIDTH 555 0
DWIDTH 8 0
BBX 8 7 0 1
BITMAP
07
0E
1C
38
60
C0
80
ENDCHAR
STARTCHAR E26D
ENCODING 57965
SWIDTH 555 0
DWIDTH 8 0
BBX 8 8 0 1
BITMAP
80
40
30
7C
3E
19
11
0F
ENDCHAR
STARTCHAR E26E
ENCODING 57966
SWIDTH 555 0
DWIDTH 8 0
BBX 8 3 0 4
BITMAP
90
7F
7E
ENDCHAR
STARTCHAR E26F
ENCODING 57967
SWIDTH 555 0
DWIDTH 8 0
BBX 8 9 0 0
BITMAP
FF
FF
7F
76
00
66
7E
7E
3E
ENDCHAR
STARTCHAR E270
ENCODING 57968
SWIDTH 555 0
DWIDTH 8 0
BBX 8 7 0 1
BITMAP
FF
DB
FF
DB
FB
DB
FF
ENDCHAR
STARTCHAR E271
ENCODING 57969
SWIDTH 555 0
DWIDTH 8 0
BBX 8 7 0 1
BITMAP
7E
FF
E3
CB
E7
7E
3C
ENDCHAR
STARTCHAR E272
ENCODING 57970
SWIDTH 555 0
DWIDTH 8 0
BBX 8 12 0 -1
BITMAP
81
FF
81
BD
5A
3C
3C
5A
81
BF
81
BF
ENDCHAR
STARTCHAR E273
ENCODING 57971
SWIDTH 555 0
DWIDTH 8 0
BBX 8 6 0 2
BITMAP
3C
FF
A5
FF
BB
7E
ENDCHAR
STARTCHAR E274
ENCODING 57972
SWIDTH 555 0
DWIDTH 8 0
BBX 8 14 0 -3
BITMAP
66
3E
7E
3E
3C
00
3E
7E
7E
7E
7F
FF
FF
FF
ENDCHAR
STARTCHAR E275
ENCODING 57973
SWIDTH 555 0
DWIDTH 8 0
BBX 8 10 0 -1
BITMAP
08
18
3C
3E
7E
FF
FF
FF
FF
7E
ENDCHAR
STARTCHAR E276
ENCODING 57974
SWIDTH 555 0
DWIDTH 8 0
BBX 8 7 0 1
BITMAP
7E
FF
FF
FF
DB
7E
3C
ENDCHAR
STARTCHAR E277
ENCODING 57975
SWIDTH 555 0
DWIDTH 8 0
BBX 8 8 0 1
BITMAP
18
3C
FF
FF
7E
DB
F7
FF
ENDCHAR
STARTCHAR E278
ENCODING 57976
SWIDTH 555 0
DWIDTH 8 0
BBX 8 8 0 1
BITMAP
18
26
C1
81
81
E7
99
FF
ENDCHAR
STARTCHAR E279
ENCODING 57977
SWIDTH 555 0
DWIDTH 8 0
BBX 8 5 0 2
BITMAP
FF
FF
00
FF
FF
ENDCHAR
STARTCHAR E27A
ENCODING 57978
SWIDTH 555 0
DWIDTH 8 0
BBX 8 5 0 2
BITMAP
04
FB
F3
FE
04
ENDCHAR
STARTCHAR E27B
ENCODING 57979
SWIDTH 555 0
DWIDTH 8 0
BBX 8 6 0 2
BITMAP
18
3C
6E
D7
6F
3C
ENDCHAR
STARTCHAR E27C
ENCODING 57980
SWIDTH 555 0
DWIDTH 8 0
BBX 8 8 0 1
BITMAP
F8
FC
FE
F0
FA
F7
F2
FC
ENDCHAR
STARTCHAR E27D
ENCODING 57981
SWIDTH 555 0
DWIDTH 8 0
BBX 8 8 0 1
BITMAP
F8
FC
FE
F0
FE
F7
F2
FC
ENDCHAR
STARTCHAR E27E
ENCODING 57982
SWIDTH 555 0
DWIDTH 8 0
BBX 8 6 0 2
BITMAP
20
26
C2
FC
3F
03
ENDCHAR
STARTCHAR E27F
ENCODING 57983
SWIDTH 555 0
DWIDTH 8 0
BBX 8 7 0 1
BITMAP
7C
5A
E5
AD
66
5A
2C
ENDCHAR
STARTCHAR E280
ENCODING 57984
SWIDTH 555 0
DWIDTH 8 0
BBX 8 9 0 1
BITMAP
F0
FC
7E
1E
EF
67
7A
3C
0C
ENDCHAR
STARTCHAR E281
ENCODING 57985
SWIDTH 555 0
DWIDTH 8 0
BBX 8 6 0 1
BITMAP
02
05
8D
FF
37
3E
ENDCHAR
STARTCHAR E282
ENCODING 57986
SWIDTH 555 0
DWIDTH 8 0
BBX 8 3 0 4
BITMAP
FF
7E
02
ENDCHAR
STARTCHAR E283
ENCODING 57987
SWIDTH 555 0
DWIDTH 8 0
BBX 8 6 0 2
BITMAP
7E
59
00
FF
FF
FF
ENDCHAR
STARTCHAR E284
ENCODING 57988
SWIDTH 555 0
DWIDTH 8 0
BBX 8 8 0 1
BITMAP
18
18
E7
82
82
C3
E5
18
ENDCHAR
STARTCHAR E285
ENCODING 57989
SWIDTH 555 0
DWIDTH 8 0
BBX 8 12 0 -1
BITMAP
40
E0
70
3C
1E
0F
0F
1E
3C
78
F0
E0
ENDCHAR
STARTCHAR E286
ENCODING 57990
SWIDTH 555 0
DWIDTH 8 0
BBX 8 7 0 1
BITMAP
20
44
3C
D3
2C
18
24
ENDCHAR
STARTCHAR E287
ENCODING 57991
SWIDTH 555 0
DWIDTH 8 0
BBX 8 7 0 1
BITMAP
7E
C7
D3
C1
D9
7E
3C
ENDCHAR
STARTCHAR E288
ENCODING 57992
SWIDTH 555 0
DWIDTH 8 0
BBX 8 7 0 1
BITMAP
FF
C3
D3
C1
D9
FF
FF
ENDCHAR
STARTCHAR E289
ENCODING 57993
SWIDTH 555 0
DWIDTH 8 0
BBX 8 6 0 2
BITMAP
18
4B
FF
66
66
7E
ENDCHAR
STARTCHAR E28A
ENCODING 57994
SWIDTH 555 0
DWIDTH 8 0
BBX 8 6 0 2
BITMAP
FF
FF
FF
FF
FF
FF
ENDCHAR
STARTCHAR E28B
ENCODING 57995
SWIDTH 555 0
DWIDTH 8 0
BBX 8 6 0 2
BITMAP
FF
91
91
91
91
FF
ENDCHAR
STARTCHAR E28C
ENCODING 57996
SWIDTH 555 0
DWIDTH 8 0
BBX 8 7 0 1
BITMAP
7C
FE
FF
7F
0E
08
08
ENDCHAR
STARTCHAR E28D
ENCODING 57997
SWIDTH 555 0
DWIDTH 8 0
BBX 8 6 0 2
BITMAP
18
26
81
47
BC
78
ENDCHAR
STARTCHAR E28E
ENCODING 57998
SWIDTH 555 0
DWIDTH 8 0
BBX 8 6 0 2
BITMAP
C3
E7
FF
7E
7E
76
ENDCHAR
STARTCHAR E28F
ENCODING 57999
SWIDTH 555 0
DWIDTH 8 0
BBX 8 7 0 2
BITMAP
0B
04
18
38
70
E0
80
ENDCHAR
STARTCHAR E290
ENCODING 58000
SWIDTH 555 0
DWIDTH 8 0
BBX 8 7 0 1
BITMAP
7E
89
99
99
99
5A
3C
ENDCHAR
STARTCHAR E291
ENCODING 58001
SWIDTH 555 0
DWIDTH 8 0
BBX 8 7 0 1
BITMAP
7E
81
BD
A9
91
42
3C
ENDCHAR
STARTCHAR E292
ENCODING 58002
SWIDTH 555 0
DWIDTH 8 0
BBX 8 7 0 1
BITMAP
7E
81
F9
8D
9B
42
3C
ENDCHAR
STARTCHAR E293
ENCODING 58003
SWIDTH 555 0
DWIDTH 8 0
BBX 8 7 0 1
BITMAP
7E
99
F1
BD
93
4A
3C
ENDCHAR
STARTCHAR E294
ENCODING 58004
SWIDTH 555 0
DWIDTH 8 0
BBX 8 7 0 1
BITMAP
7E
A5
F9
9D
9F
4A
3C
ENDCHAR
STARTCHAR E295
ENCODING 58005
SWIDTH 555 0
DWIDTH 8 0
BBX 8 7 0 1
BITMAP
7E
81
9D
81
99
42
3C
ENDCHAR
STARTCHAR E296
ENCODING 58006
SWIDTH 555 0
DWIDTH 8 0
BBX 8 7 0 1
BITMAP
7E
91
BD
FB
85
42
3C
ENDCHAR
STARTCHAR E297
ENCODING 58007
SWIDTH 555 0
DWIDTH 8 0
BBX 8 7 0 1
BITMAP
7E
99
A5
85
9D
42
3C
ENDCHAR
STARTCHAR E298
ENCODING 58008
SWIDTH 555 0
DWIDTH 8 0
BBX 8 7 0 1
BITMAP
7E
B9
BD
B5
95
4A
3C
ENDCHAR
STARTCHAR E299
ENCODING 58009
SWIDTH 555 0
DWIDTH 8 0
BBX 8 7 0 1
BITMAP
7E
99
AD
B5
99
42
3C
ENDCHAR
STARTCHAR E29A
ENCODING 58010
SWIDTH 555 0
DWIDTH 8 0
BBX 8 9 0 0
BITMAP
FF
81
EF
81
AF
81
AF
81
FF
ENDCHAR
STARTCHAR E29B
ENCODING 58011
SWIDTH 555 0
DWIDTH 8 0
BBX 8 7 0 2
BITMAP
0C
14
24
24
FF
FF
FF
ENDCHAR
STARTCHAR E29C
ENCODING 58012
SWIDTH 555 0
DWIDTH 8 0
BBX 6 16 1 -3
BITMAP
10
10
30
78
78
38
30
78
30
38
78
FC
FC
FC
FC
FC
ENDCHAR
STARTCHAR E29D
ENCODING 58013
SWIDTH 555 0
DWIDTH 8 0
BBX 8 7 0 1
BITMAP
18
E7
C3
9D
BF
7E
3C
ENDCHAR
STARTCHAR E29E
ENCODING 58014
SWIDTH 555 0
DWIDTH 8 0
BBX 8 9 0 0
BITMAP
16
0C
7E
FF
FF
FF
7F
7E
18
ENDCHAR
STARTCHAR E29F
ENCODING 58015
SWIDTH 555 0
DWIDTH 8 0
BBX 8 7 0 2
BITMAP
0F
1F
1F
1E
20
C0
60
ENDCHAR
STARTCHAR E2A0
ENCODING 58016
SWIDTH 555 0
DWIDTH 8 0
BBX 8 4 0 3
BITMAP
FF
FB
F7
FF
ENDCHAR
STARTCHAR E2A1
ENCODING 58017
SWIDTH 555 0
DWIDTH 8 0
BBX 4 15 2 -3
BITMAP
F0
F0
F0
90
90
B0
F0
F0
F0
F0
F0
60
40
40
40
ENDCHAR
STARTCHAR E2A2
ENCODING 58018
SWIDTH 555 0
DWIDTH 8 0
BBX 8 8 0 1
BITMAP
18
38
3E
1E
28
60
40
FF
ENDCHAR
STARTCHAR E2A3
ENCODING 58019
SWIDTH 555 0
DWIDTH 8 0
BBX 8 11 0 -1
BITMAP
7E
DB
A5
AD
A3
5E
3C
18
18
18
18
ENDCHAR
STARTCHAR E2A4
ENCODING 58020
SWIDTH 555 0
DWIDTH 8 0
BBX 8 4 0 3
BITMAP
FF
FB
E7
FF
ENDCHAR
STARTCHAR E2A5
ENCODING 58021
SWIDTH 555 0
DWIDTH 8 0
BBX 8 6 0 2
BITMAP
03
7F
FB
CC
BC
78
ENDCHAR
STARTCHAR E2A6
ENCODING 58022
SWIDTH 555 0
DWIDTH 8 0
BBX 8 4 0 3
BITMAP
10
18
3E
FF
ENDCHAR
STARTCHAR E2A7
ENCODING 58023
SWIDTH 555 0
DWIDTH 8 0
BBX 8 11 0 -1
BITMAP
70
3A
1C
08
7E
FF
FF
FF
FF
76
1C
ENDCHAR
STARTCHAR E2A8
ENCODING 58024
SWIDTH 555 0
DWIDTH 8 0
BBX 8 8 0 0
BITMAP
78
18
7E
FF
FF
FF
7E
3C
ENDCHAR
STARTCHAR E2A9
ENCODING 58025
SWIDTH 555 0
DWIDTH 8 0
BBX 8 12 0 -1
BITMAP
E4
78
08
3C
3C
3C
7E
7F
FF
FF
FF
7E
ENDCHAR
STARTCHAR E300
ENCODING 58112
SWIDTH 555 0
DWIDTH 8 0
BBX 7 5 1 3
BITMAP
18
F6
08
E8
D0
ENDCHAR
STARTCHAR E301
ENCODING 58113
SWIDTH 555 0
DWIDTH 8 0
BBX 7 5 1 3
BITMAP
38
D6
08
C8
F0
ENDCHAR
STARTCHAR E302
ENCODING 58114
SWIDTH 555 0
DWIDTH 8 0
BBX 8 4 0 4
BITMAP
0C
7D
84
FC
ENDCHAR
STARTCHAR E303
ENCODING 58115
SWIDTH 555 0
DWIDTH 8 0
BBX 7 5 1 3
BITMAP
38
D6
08
70
FC
ENDCHAR
STARTCHAR E304
ENCODING 58116
SWIDTH 555 0
DWIDTH 8 0
BBX 8 4 0 3
BITMAP
0C
7D
84
B4
ENDCHAR
STARTCHAR E305
ENCODING 58117
SWIDTH 555 0
DWIDTH 8 0
BBX 8 6 0 2
BITMAP
0C
7D
94
A4
20
20
ENDCHAR
STARTCHAR E306
ENCODING 58118
SWIDTH 555 0
DWIDTH 8 0
BBX 8 4 0 2
BITMAP
0C
7D
84
84
ENDCHAR
STARTCHAR E307
ENCODING 58119
SWIDTH 555 0
DWIDTH 8 0
BBX 8 5 0 2
BITMAP
0C
7D
84
24
18
ENDCHAR
STARTCHAR E308
ENCODING 58120
SWIDTH 555 0
DWIDTH 8 0
BBX 8 4 0 3
BITMAP
0C
7D
84
B4
ENDCHAR
STARTCHAR E309
ENCODING 58121
SWIDTH 555 0
DWIDTH 8 0
BBX 8 4 0 3
BITMAP
0C
7D
84
84
ENDCHAR
STARTCHAR E30A
ENCODING 58122
SWIDTH 555 0
DWIDTH 8 0
BBX 8 4 0 3
BITMAP
0C
7D
84
84
ENDCHAR
STARTCHAR E30B
ENCODING 58123
SWIDTH 555 0
DWIDTH 8 0
BBX 8 5 0 3
BITMAP
0C
7D
94
94
10
ENDCHAR
STARTCHAR E30C
ENCODING 58124
SWIDTH 555 0
DWIDTH 8 0
BBX 5 5 1 3
BITMAP
20
40
78
68
F8
ENDCHAR
STARTCHAR E30D
ENCODING 58125
SWIDTH 555 0
DWIDTH 8 0
BBX 4 3 2 3
BITMAP
60
A0
D0
ENDCHAR
STARTCHAR E30E
ENCODING 58126
SWIDTH 555 0
DWIDTH 8 0
BBX 8 5 0 3
BITMAP
0C
7D
84
C4
40
ENDCHAR
STARTCHAR E30F
ENCODING 58127
SWIDTH 555 0
DWIDTH 8 0
BBX 8 5 0 3
BITMAP
0C
7D
84
D4
40
ENDCHAR
STARTCHAR E310
ENCODING 58128
SWIDTH 555 0
DWIDTH 8 0
BBX 5 4 2 3
BITMAP
D0
28
C8
90
ENDCHAR
STARTCHAR E311
ENCODING 58129
SWIDTH 555 0
DWIDTH 8 0
BBX 5 5 2 2
BITMAP
20
D0
08
08
F0
ENDCHAR
STARTCHAR E312
ENCODING 58130
SWIDTH 555 0
DWIDTH 8 0
BBX 6 4 1 3
BITMAP
10
6C
98
F8
ENDCHAR
STARTCHAR E313
ENCODING 58131
SWIDTH 555 0
DWIDTH 8 0
BBX 7 4 1 3
BITMAP
78
84
78
7E
ENDCHAR
STARTCHAR E314
ENCODING 58132
SWIDTH 555 0
DWIDTH 8 0
BBX 6 3 1 3
BITMAP
70
8C
84
ENDCHAR
STARTCHAR E315
ENCODING 58133
SWIDTH 555 0
DWIDTH 8 0
BBX 4 4 2 2
BITMAP
10
50
C0
80
ENDCHAR
STARTCHAR E316
ENCODING 58134
SWIDTH 555 0
DWIDTH 8 0
BBX 6 3 1 2
BITMAP
70
8C
84
ENDCHAR
STARTCHAR E317
ENCODING 58135
SWIDTH 555 0
DWIDTH 8 0
BBX 6 4 1 2
BITMAP
70
8C
B4
28
ENDCHAR
STARTCHAR E318
ENCODING 58136
SWIDTH 555 0
DWIDTH 8 0
BBX 6 4 1 3
BITMAP
70
8C
84
20
ENDCHAR
STARTCHAR E319
ENCODING 58137
SWIDTH 555 0
DWIDTH 8 0
BBX 6 3 1 3
BITMAP
70
8C
84
ENDCHAR
STARTCHAR E31A
ENCODING 58138
SWIDTH 555 0
DWIDTH 8 0
BBX 6 3 1 3
BITMAP
70
8C
84
ENDCHAR
STARTCHAR E31B
ENCODING 58139
SWIDTH 555 0
DWIDTH 8 0
BBX 6 4 1 3
BITMAP
70
9C
94
10
ENDCHAR
STARTCHAR E31C
ENCODING 58140
SWIDTH 555 0
DWIDTH 8 0
BBX 6 4 1 3
BITMAP
70
8C
C4
40
ENDCHAR
STARTCHAR E31D
ENCODING 58141
SWIDTH 555 0
DWIDTH 8 0
BBX 6 4 1 3
BITMAP
70
8C
C4
40
ENDCHAR
STARTCHAR E31E
ENCODING 58142
SWIDTH 555 0
DWIDTH 8 0
BBX 6 1 1 4
BITMAP
FC
ENDCHAR
STARTCHAR E31F
ENCODING 58143
SWIDTH 555 0
DWIDTH 8 0
BBX 6 5 1 2
BITMAP
1C
6C
94
64
48
ENDCHAR
STARTCHAR E320
ENCODING 58144
SWIDTH 555 0
DWIDTH 8 0
BBX 6 5 2 2
BITMAP
18
F4
08
88
F0
ENDCHAR
STARTCHAR E321
ENCODING 58145
SWIDTH 555 0
DWIDTH 8 0
BBX 6 5 1 2
BITMAP
18
54
8C
84
30
ENDCHAR
STARTCHAR E322
ENCODING 58146
SWIDTH 555 0
DWIDTH 8 0
BBX 6 4 1 2
BITMAP
18
74
8C
A4
ENDCHAR
STARTCHAR E323
ENCODING 58147
SWIDTH 555 0
DWIDTH 8 0
BBX 6 6 1 1
BITMAP
18
54
8C
84
30
20
ENDCHAR
STARTCHAR E324
ENCODING 58148
SWIDTH 555 0
DWIDTH 8 0
BBX 6 5 1 1
BITMAP
18
74
8C
B4
20
ENDCHAR
STARTCHAR E325
ENCODING 58149
SWIDTH 555 0
DWIDTH 8 0
BBX 6 5 1 2
BITMAP
18
54
8C
84
10
ENDCHAR
STARTCHAR E326
ENCODING 58150
SWIDTH 555 0
DWIDTH 8 0
BBX 6 5 1 2
BITMAP
18
74
8C
84
10
ENDCHAR
STARTCHAR E327
ENCODING 58151
SWIDTH 555 0
DWIDTH 8 0
BBX 6 4 1 2
BITMAP
18
54
8C
84
ENDCHAR
STARTCHAR E328
ENCODING 58152
SWIDTH 555 0
DWIDTH 8 0
BBX 6 4 1 2
BITMAP
18
54
8C
94
ENDCHAR
STARTCHAR E329
ENCODING 58153
SWIDTH 555 0
DWIDTH 8 0
BBX 6 5 1 2
BITMAP
18
54
8C
C4
50
ENDCHAR
STARTCHAR E32A
ENCODING 58154
SWIDTH 555 0
DWIDTH 8 0
BBX 6 5 1 2
BITMAP
38
54
8C
C4
70
ENDCHAR
STARTCHAR E32B
ENCODING 58155
SWIDTH 555 0
DWIDTH 8 0
BBX 4 3 2 4
BITMAP
E0
90
60
ENDCHAR
STARTCHAR E32C
ENCODING 58156
SWIDTH 555 0
DWIDTH 8 0
BBX 5 5 2 2
BITMAP
18
F8
28
C8
90
ENDCHAR
STARTCHAR E32D
ENCODING 58157
SWIDTH 555 0
DWIDTH 8 0
BBX 6 5 2 2
BITMAP
18
D4
08
88
F0
ENDCHAR
STARTCHAR E32E
ENCODING 58158
SWIDTH 555 0
DWIDTH 8 0
BBX 6 4 1 3
BITMAP
0C
74
8C
FC
ENDCHAR
STARTCHAR E32F
ENCODING 58159
SWIDTH 555 0
DWIDTH 8 0
BBX 6 5 1 2
BITMAP
0C
74
8C
84
30
ENDCHAR
STARTCHAR E330
ENCODING 58160
SWIDTH 555 0
DWIDTH 8 0
BBX 6 4 1 2
BITMAP
0C
74
9C
A4
ENDCHAR
STARTCHAR E331
ENCODING 58161
SWIDTH 555 0
DWIDTH 8 0
BBX 6 5 1 1
BITMAP
2C
54
8C
84
10
ENDCHAR
STARTCHAR E332
ENCODING 58162
SWIDTH 555 0
DWIDTH 8 0
BBX 6 5 1 2
BITMAP
2C
54
8C
B4
68
ENDCHAR
STARTCHAR E333
ENCODING 58163
SWIDTH 555 0
DWIDTH 8 0
BBX 6 4 1 2
BITMAP
0C
74
8C
C4
ENDCHAR
STARTCHAR E334
ENCODING 58164
SWIDTH 555 0
DWIDTH 8 0
BBX 6 5 1 2
BITMAP
08
74
8C
84
10
ENDCHAR
STARTCHAR E335
ENCODING 58165
SWIDTH 555 0
DWIDTH 8 0
BBX 6 4 1 2
BITMAP
0C
74
8C
84
ENDCHAR
STARTCHAR E336
ENCODING 58166
SWIDTH 555 0
DWIDTH 8 0
BBX 6 4 1 2
BITMAP
0C
74
8C
94
ENDCHAR
STARTCHAR E337
ENCODING 58167
SWIDTH 555 0
DWIDTH 8 0
BBX 6 5 1 2
BITMAP
2C
54
8C
C4
40
ENDCHAR
STARTCHAR E338
ENCODING 58168
SWIDTH 555 0
DWIDTH 8 0
BBX 6 5 1 2
BITMAP
0C
74
8C
C4
50
ENDCHAR
STARTCHAR E339
ENCODING 58169
SWIDTH 555 0
DWIDTH 8 0
BBX 8 6 0 1
BITMAP
EF
A8
48
08
09
0F
ENDCHAR
STARTCHAR E33A
ENCODING 58170
SWIDTH 555 0
DWIDTH 8 0
BBX 6 3 1 4
BITMAP
70
8C
B4
ENDCHAR
STARTCHAR E33B
ENCODING 58171
SWIDTH 555 0
DWIDTH 8 0
BBX 6 3 1 4
BITMAP
70
BC
B4
ENDCHAR
STARTCHAR E33C
ENCODING 58172
SWIDTH 555 0
DWIDTH 8 0
BBX 6 3 1 4
BITMAP
70
9C
84
ENDCHAR
STARTCHAR E33D
ENCODING 58173
SWIDTH 555 0
DWIDTH 8 0
BBX 6 3 1 4
BITMAP
70
8C
FC
ENDCHAR
STARTCHAR E33E
ENCODING 58174
SWIDTH 555 0
DWIDTH 8 0
BBX 2 2 3 7
BITMAP
C0
C0
ENDCHAR
STARTCHAR E33F
ENCODING 58175
SWIDTH 555 0
DWIDTH 8 0
BBX 4 4 2 3
BITMAP
10
A0
C0
E0
ENDCHAR
STARTCHAR E340
ENCODING 58176
SWIDTH 555 0
DWIDTH 8 0
BBX 5 7 2 1
BITMAP
60
60
60
60
F8
F0
20
ENDCHAR
STARTCHAR E341
ENCODING 58177
SWIDTH 555 0
DWIDTH 8 0
BBX 8 6 0 1
BITMAP
EF
A8
4E
08
08
08
ENDCHAR
STARTCHAR E342
ENCODING 58178
SWIDTH 555 0
DWIDTH 8 0
BBX 6 3 1 4
BITMAP
30
8C
78
ENDCHAR
STARTCHAR E343
ENCODING 58179
SWIDTH 555 0
DWIDTH 8 0
BBX 4 2 2 4
BITMAP
60
F0
ENDCHAR
STARTCHAR E344
ENCODING 58180
SWIDTH 555 0
DWIDTH 8 0
BBX 8 5 0 2
BITMAP
20
60
FF
60
20
ENDCHAR
STARTCHAR E345
ENCODING 58181
SWIDTH 555 0
DWIDTH 8 0
BBX 2 2 3 3
BITMAP
C0
C0
ENDCHAR
STARTCHAR E346
ENCODING 58182
SWIDTH 555 0
DWIDTH 8 0
BBX 5 5 2 2
BITMAP
30
D8
00
F0
F8
ENDCHAR
STARTCHAR E347
ENCODING 58183
SWIDTH 555 0
DWIDTH 8 0
BBX 4 6 2 3
BITMAP
30
D0
80
80
80
60
ENDCHAR
STARTCHAR E348
ENCODING 58184
SWIDTH 555 0
DWIDTH 8 0
BBX 8 8 0 1
BITMAP
10
3C
78
D0
81
81
C3
7E
ENDCHAR
STARTCHAR E349
ENCODING 58185
SWIDTH 555 0
DWIDTH 8 0
BBX 8 4 0 3
BITMAP
06
FF
FF
06
ENDCHAR
STARTCHAR E34A
ENCODING 58186
SWIDTH 555 0
DWIDTH 8 0
BBX 2 2 3 4
BITMAP
80
40
ENDCHAR
STARTCHAR E34B
ENCODING 58187
SWIDTH 555 0
DWIDTH 8 0
BBX 5 3 2 3
BITMAP
08
F0
F0
ENDCHAR
STARTCHAR E34C
ENCODING 58188
SWIDTH 555 0
DWIDTH 8 0
BBX 6 4 1 4
BITMAP
04
30
CC
30
ENDCHAR
STARTCHAR E34D
ENCODING 58189
SWIDTH 555 0
DWIDTH 8 0
BBX 6 5 1 3
BITMAP
04
30
CC
00
30
ENDCHAR
STARTCHAR E34E
ENCODING 58190
SWIDTH 555 0
DWIDTH 8 0
BBX 8 16 0 -3
BITMAP
18
3C
24
24
24
24
24
24
24
24
63
C1
81
C1
66
3C
ENDCHAR
STARTCHAR E34F
ENCODING 58191
SWIDTH 555 0
DWIDTH 8 0
BBX 4 8 2 0
BITMAP
40
40
40
40
40
F0
F0
F0
ENDCHAR
STARTCHAR E350
ENCODING 58192
SWIDTH 555 0
DWIDTH 8 0
BBX 8 16 0 -3
BITMAP
18
3C
24
24
24
24
34
34
34
34
73
FD
BD
FD
66
3C
ENDCHAR
STARTCHAR E351
ENCODING 58193
SWIDTH 555 0
DWIDTH 8 0
BBX 4 4 2 3
BITMAP
20
F0
A0
40
ENDCHAR
STARTCHAR E352
ENCODING 58194
SWIDTH 555 0
DWIDTH 8 0
BBX 5 4 2 3
BITMAP
38
28
40
80
ENDCHAR
STARTCHAR E353
ENCODING 58195
SWIDTH 555 0
DWIDTH 8 0
BBX 5 6 2 3
BITMAP
70
F8
60
60
60
60
ENDCHAR
STARTCHAR E354
ENCODING 58196
SWIDTH 555 0
DWIDTH 8 0
BBX 8 7 0 1
BITMAP
7E
41
91
99
81
42
3C
ENDCHAR
STARTCHAR E355
ENCODING 58197
SWIDTH 555 0
DWIDTH 8 0
BBX 8 7 0 1
BITMAP
7E
41
8D
99
89
42
3C
ENDCHAR
STARTCHAR E356
ENCODING 58198
SWIDTH 555 0
DWIDTH 8 0
BBX 8 7 0 1
BITMAP
7E
41
91
9D
91
42
3C
ENDCHAR
STARTCHAR E357
ENCODING 58199
SWIDTH 555 0
DWIDTH 8 0
BBX 8 7 0 1
BITMAP
7E
41
89
99
81
42
3C
ENDCHAR
STARTCHAR E358
ENCODING 58200
SWIDTH 555 0
DWIDTH 8 0
BBX 8 7 0 1
BITMAP
7E
41
99
99
81
42
3C
ENDCHAR
STARTCHAR E359
ENCODING 58201
SWIDTH 555 0
DWIDTH 8 0
BBX 8 7 0 1
BITMAP
7E
41
89
9D
81
42
3C
ENDCHAR
STARTCHAR E35A
ENCODING 58202
SWIDTH 555 0
DWIDTH 8 0
BBX 8 7 0 1
BITMAP
7E
41
99
99
81
42
3C
ENDCHAR
STARTCHAR E35B
ENCODING 58203
SWIDTH 555 0
DWIDTH 8 0
BBX 8 7 0 1
BITMAP
7E
C1
89
99
81
42
3C
ENDCHAR
STARTCHAR E35C
ENCODING 58204
SWIDTH 555 0
DWIDTH 8 0
BBX 4 4 2 3
BITMAP
E0
90
90
60
ENDCHAR
STARTCHAR E35D
ENCODING 58205
SWIDTH 555 0
DWIDTH 8 0
BBX 4 3 2 3
BITMAP
20
00
D0
ENDCHAR
STARTCHAR E35E
ENCODING 58206
SWIDTH 555 0
DWIDTH 8 0
BBX 6 3 1 3
BITMAP
70
8C
84
ENDCHAR
STARTCHAR E35F
ENCODING 58207
SWIDTH 555 0
DWIDTH 8 0
BBX 8 4 0 3
BITMAP
0C
7D
84
84
ENDCHAR
STARTCHAR E360
ENCODING 58208
SWIDTH 555 0
DWIDTH 8 0
BBX 6 4 1 2
BITMAP
0C
74
8C
84
ENDCHAR
STARTCHAR E361
ENCODING 58209
SWIDTH 555 0
DWIDTH 8 0
BBX 6 4 1 2
BITMAP
18
54
8C
84
ENDCHAR
STARTCHAR E362
ENCODING 58210
SWIDTH 555 0
DWIDTH 8 0
BBX 8 5 0 2
BITMAP
0C
7D
84
C4
40
ENDCHAR
STARTCHAR E363
ENCODING 58211
SWIDTH 555 0
DWIDTH 8 0
BBX 6 5 1 1
BITMAP
2C
54
8C
C4
50
ENDCHAR
STARTCHAR E364
ENCODING 58212
SWIDTH 555 0
DWIDTH 8 0
BBX 6 6 1 1
BITMAP
18
54
8C
C4
70
20
ENDCHAR
STARTCHAR E365
ENCODING 58213
SWIDTH 555 0
DWIDTH 8 0
BBX 8 5 0 3
BITMAP
0C
7D
84
C4
40
ENDCHAR
STARTCHAR E366
ENCODING 58214
SWIDTH 555 0
DWIDTH 8 0
BBX 6 5 1 2
BITMAP
2C
54
8C
C4
40
ENDCHAR
STARTCHAR E367
ENCODING 58215
SWIDTH 555 0
DWIDTH 8 0
BBX 6 5 1 2
BITMAP
18
54
8C
C4
40
ENDCHAR
STARTCHAR E368
ENCODING 58216
SWIDTH 555 0
DWIDTH 8 0
BBX 8 6 0 1
BITMAP
10
0A
3C
BD
18
42
ENDCHAR
STARTCHAR E369
ENCODING 58217
SWIDTH 555 0
DWIDTH 8 0
BBX 4 4 2 3
BITMAP
20
F0
F0
60
ENDCHAR
STARTCHAR E36A
ENCODING 58218
SWIDTH 555 0
DWIDTH 8 0
BBX 4 5 2 3
BITMAP
10
70
F0
A0
40
ENDCHAR
STARTCHAR E36B
ENCODING 58219
SWIDTH 555 0
DWIDTH 8 0
BBX 3 3 3 3
BITMAP
C0
00
20
ENDCHAR
STARTCHAR E36C
ENCODING 58220
SWIDTH 555 0
DWIDTH 8 0
BBX 2 4 3 3
BITMAP
40
C0
C0
40
ENDCHAR
STARTCHAR E36D
ENCODING 58221
SWIDTH 555 0
DWIDTH 8 0
BBX 4 4 2 3
BITMAP
60
F0
F0
60
ENDCHAR
STARTCHAR E36E
ENCODING 58222
SWIDTH 555 0
DWIDTH 8 0
BBX 4 4 2 3
BITMAP
60
F0
D0
60
ENDCHAR
STARTCHAR E36F
ENCODING 58223
SWIDTH 555 0
DWIDTH 8 0
BBX 3 3 3 4
BITMAP
80
C0
20
ENDCHAR
STARTCHAR E370
ENCODING 58224
SWIDTH 555 0
DWIDTH 8 0
BBX 3 4 3 3
BITMAP
80
00
20
C0
ENDCHAR
STARTCHAR E371
ENCODING 58225
SWIDTH 555 0
DWIDTH 8 0
BBX 3 3 3 4
BITMAP
C0
E0
C0
ENDCHAR
STARTCHAR E372
ENCODING 58226
SWIDTH 555 0
DWIDTH 8 0
BBX 4 4 2 3
BITMAP
60
B0
90
60
ENDCHAR
STARTCHAR E373
ENCODING 58227
SWIDTH 555 0
DWIDTH 8 0
BBX 4 5 2 2
BITMAP
20
70
B0
D0
60
ENDCHAR
STARTCHAR E374
ENCODING 58228
SWIDTH 555 0
DWIDTH 8 0
BBX 4 2 2 4
BITMAP
70
F0
ENDCHAR
STARTCHAR E375
ENCODING 58229
SWIDTH 555 0
DWIDTH 8 0
BBX 4 3 2 4
BITMAP
40
00
F0
ENDCHAR
STARTCHAR E376
ENCODING 58230
SWIDTH 555 0
DWIDTH 8 0
BBX 6 4 1 2
BITMAP
60
98
F4
18
ENDCHAR
STARTCHAR E377
ENCODING 58231
SWIDTH 555 0
DWIDTH 8 0
BBX 6 5 1 2
BITMAP
70
8C
84
7C
08
ENDCHAR
STARTCHAR E378
ENCODING 58232
SWIDTH 555 0
DWIDTH 8 0
BBX 6 5 1 2
BITMAP
70
8C
84
7C
08
ENDCHAR
STARTCHAR E379
ENCODING 58233
SWIDTH 555 0
DWIDTH 8 0
BBX 4 3 2 4
BITMAP
60
B0
F0
ENDCHAR
STARTCHAR E37A
ENCODING 58234
SWIDTH 555 0
DWIDTH 8 0
BBX 6 3 1 3
BITMAP
04
78
F8
ENDCHAR
STARTCHAR E37B
ENCODING 58235
SWIDTH 555 0
DWIDTH 8 0
BBX 4 3 2 4
BITMAP
50
B0
F0
ENDCHAR
STARTCHAR E37C
ENCODING 58236
SWIDTH 555 0
DWIDTH 8 0
BBX 6 5 1 2
BITMAP
30
CC
78
20
20
ENDCHAR
STARTCHAR E37D
ENCODING 58237
SWIDTH 555 0
DWIDTH 8 0
BBX 7 5 1 3
BITMAP
18
6A
28
C0
C0
ENDCHAR
STARTCHAR E37E
ENCODING 58238
SWIDTH 555 0
DWIDTH 8 0
BBX 6 4 1 3
BITMAP
18
74
8C
FC
ENDCHAR
STARTCHAR E37F
ENCODING 58239
SWIDTH 555 0
DWIDTH 8 0
BBX 5 4 2 3
BITMAP
E0
C0
30
18
ENDCHAR
STARTCHAR E380
ENCODING 58240
SWIDTH 555 0
DWIDTH 8 0
BBX 5 4 2 3
BITMAP
80
40
28
78
ENDCHAR
STARTCHAR E381
ENCODING 58241
SWIDTH 555 0
DWIDTH 8 0
BBX 8 7 0 1
BITMAP
7E
D1
91
81
81
42
3C
ENDCHAR
STARTCHAR E382
ENCODING 58242
SWIDTH 555 0
DWIDTH 8 0
BBX 8 7 0 1
BITMAP
7E
D1
89
81
81
42
3C
ENDCHAR
STARTCHAR E383
ENCODING 58243
SWIDTH 555 0
DWIDTH 8 0
BBX 8 7 0 1
BITMAP
7E
D1
95
89
81
42
3C
ENDCHAR
STARTCHAR E384
ENCODING 58244
SWIDTH 555 0
DWIDTH 8 0
BBX 8 7 0 1
BITMAP
7E
D1
91
8D
81
42
3C
ENDCHAR
STARTCHAR E385
ENCODING 58245
SWIDTH 555 0
DWIDTH 8 0
BBX 8 7 0 1
BITMAP
7E
D1
91
89
81
42
3C
ENDCHAR
STARTCHAR E386
ENCODING 58246
SWIDTH 555 0
DWIDTH 8 0
BBX 8 7 0 1
BITMAP
7E
D1
91
89
81
42
3C
ENDCHAR
STARTCHAR E387
ENCODING 58247
SWIDTH 555 0
DWIDTH 8 0
BBX 8 7 0 1
BITMAP
7E
D1
91
91
91
42
3C
ENDCHAR
STARTCHAR E388
ENCODING 58248
SWIDTH 555 0
DWIDTH 8 0
BBX 8 7 0 1
BITMAP
7E
D1
91
91
91
42
3C
ENDCHAR
STARTCHAR E389
ENCODING 58249
SWIDTH 555 0
DWIDTH 8 0
BBX 8 7 0 1
BITMAP
7E
D1
91
91
81
42
3C
ENDCHAR
STARTCHAR E38A
ENCODING 58250
SWIDTH 555 0
DWIDTH 8 0
BBX 8 7 0 1
BITMAP
7E
D1
91
81
81
42
3C
ENDCHAR
STARTCHAR E38B
ENCODING 58251
SWIDTH 555 0
DWIDTH 8 0
BBX 8 7 0 1
BITMAP
7E
D1
B1
81
81
42
3C
ENDCHAR
STARTCHAR E38C
ENCODING 58252
SWIDTH 555 0
DWIDTH 8 0
BBX 8 7 0 1
BITMAP
7E
D1
91
81
81
42
3C
ENDCHAR
STARTCHAR E38D
ENCODING 58253
SWIDTH 555 0
DWIDTH 8 0
BBX 8 7 0 1
BITMAP
7E
81
81
81
81
42
3C
ENDCHAR
STARTCHAR E38E
ENCODING 58254
SWIDTH 555 0
DWIDTH 8 0
BBX 3 7 5 1
BITMAP
C0
60
20
20
20
40
80
ENDCHAR
STARTCHAR E38F
ENCODING 58255
SWIDTH 555 0
DWIDTH 8 0
BBX 3 7 5 1
BITMAP
C0
60
60
60
60
40
80
ENDCHAR
STARTCHAR E390
ENCODING 58256
SWIDTH 555 0
DWIDTH 8 0
BBX 3 7 5 1
BITMAP
C0
60
60
60
60
C0
80
ENDCHAR
STARTCHAR E391
ENCODING 58257
SWIDTH 555 0
DWIDTH 8 0
BBX 4 7 4 1
BITMAP
60
70
70
70
70
60
C0
ENDCHAR
STARTCHAR E392
ENCODING 58258
SWIDTH 555 0
DWIDTH 8 0
BBX 4 7 4 1
BITMAP
60
70
70
70
70
60
C0
ENDCHAR
STARTCHAR E393
ENCODING 58259
SWIDTH 555 0
DWIDTH 8 0
BBX 4 7 4 1
BITMAP
60
70
70
70
70
60
C0
ENDCHAR
STARTCHAR E394
ENCODING 58260
SWIDTH 555 0
DWIDTH 8 0
BBX 4 7 4 1
BITMAP
E0
F0
F0
F0
F0
E0
C0
ENDCHAR
STARTCHAR E395
ENCODING 58261
SWIDTH 555 0
DWIDTH 8 0
BBX 4 7 4 1
BITMAP
E0
F0
F0
F0
F0
E0
C0
ENDCHAR
STARTCHAR E396
ENCODING 58262
SWIDTH 555 0
DWIDTH 8 0
BBX 5 7 3 1
BITMAP
70
F8
F8
F8
F8
70
60
ENDCHAR
STARTCHAR E397
ENCODING 58263
SWIDTH 555 0
DWIDTH 8 0
BBX 5 7 3 1
BITMAP
70
F8
F8
F8
F8
F0
60
ENDCHAR
STARTCHAR E398
ENCODING 58264
SWIDTH 555 0
DWIDTH 8 0
BBX 5 7 3 1
BITMAP
F0
F8
F8
F8
F8
F0
60
ENDCHAR
STARTCHAR E399
ENCODING 58265
SWIDTH 555 0
DWIDTH 8 0
BBX 6 7 2 1
BITMAP
78
FC
FC
FC
FC
78
30
ENDCHAR
STARTCHAR E39A
ENCODING 58266
SWIDTH 555 0
DWIDTH 8 0
BBX 6 7 2 1
BITMAP
78
FC
FC
FC
FC
F8
70
ENDCHAR
STARTCHAR E39B
ENCODING 58267
SWIDTH 555 0
DWIDTH 8 0
BBX 8 7 0 1
BITMAP
7E
FF
FF
FF
FF
7E
3C
ENDCHAR
STARTCHAR E39C
ENCODING 58268
SWIDTH 555 0
DWIDTH 8 0
BBX 7 7 0 1
BITMAP
7C
7C
FE
FE
FE
7C
38
ENDCHAR
STARTCHAR E39D
ENCODING 58269
SWIDTH 555 0
DWIDTH 8 0
BBX 6 7 0 1
BITMAP
78
7C
FC
FC
FC
7C
38
ENDCHAR
STARTCHAR E39E
ENCODING 58270
SWIDTH 555 0
DWIDTH 8 0
BBX 6 7 0 1
BITMAP
78
7C
FC
FC
FC
7C
38
ENDCHAR
STARTCHAR E39F
ENCODING 58271
SWIDTH 555 0
DWIDTH 8 0
BBX 6 7 0 1
BITMAP
78
F8
FC
FC
FC
78
30
ENDCHAR
STARTCHAR E3A0
ENCODING 58272
SWIDTH 555 0
DWIDTH 8 0
BBX 5 7 0 1
BITMAP
78
F8
F8
F8
F8
78
30
ENDCHAR
STARTCHAR E3A1
ENCODING 58273
SWIDTH 555 0
DWIDTH 8 0
BBX 5 7 0 1
BITMAP
70
78
F8
F8
F8
78
30
ENDCHAR
STARTCHAR E3A2
ENCODING 58274
SWIDTH 555 0
DWIDTH 8 0
BBX 4 7 0 1
BITMAP
70
F0
F0
F0
F0
70
30
ENDCHAR
STARTCHAR E3A3
ENCODING 58275
SWIDTH 555 0
DWIDTH 8 0
BBX 4 7 0 1
BITMAP
70
F0
F0
F0
F0
70
30
ENDCHAR
STARTCHAR E3A4
ENCODING 58276
SWIDTH 555 0
DWIDTH 8 0
BBX 4 7 0 1
BITMAP
70
E0
E0
E0
E0
60
30
ENDCHAR
STARTCHAR E3A5
ENCODING 58277
SWIDTH 555 0
DWIDTH 8 0
BBX 4 7 0 1
BITMAP
70
E0
E0
C0
E0
60
30
ENDCHAR
STARTCHAR E3A6
ENCODING 58278
SWIDTH 555 0
DWIDTH 8 0
BBX 3 7 0 1
BITMAP
60
C0
C0
C0
C0
40
20
ENDCHAR
STARTCHAR E3A7
ENCODING 58279
SWIDTH 555 0
DWIDTH 8 0
BBX 3 7 0 1
BITMAP
60
C0
80
80
C0
40
20
ENDCHAR
STARTCHAR E3A8
ENCODING 58280
SWIDTH 555 0
DWIDTH 8 0
BBX 3 7 0 1
BITMAP
60
80
80
80
80
40
20
ENDCHAR
STARTCHAR E3A9
ENCODING 58281
SWIDTH 555 0
DWIDTH 8 0
BBX 8 7 0 1
BITMAP
7E
41
89
99
99
42
3C
ENDCHAR
STARTCHAR E3AA
ENCODING 58282
SWIDTH 555 0
DWIDTH 8 0
BBX 8 4 0 2
BITMAP
0C
7D
84
04
ENDCHAR
STARTCHAR E3AB
ENCODING 58283
SWIDTH 555 0
DWIDTH 8 0
BBX 6 6 1 1
BITMAP
08
74
8C
84
10
20
ENDCHAR
STARTCHAR E3AC
ENCODING 58284
SWIDTH 555 0
DWIDTH 8 0
BBX 6 6 1 1
BITMAP
18
74
8C
84
30
20
ENDCHAR
STARTCHAR E3AD
ENCODING 58285
SWIDTH 555 0
DWIDTH 8 0
BBX 6 3 1 2
BITMAP
70
8C
84
ENDCHAR
STARTCHAR E3AE
ENCODING 58286
SWIDTH 555 0
DWIDTH 8 0
BBX 6 2 1 4
BITMAP
30
CC
ENDCHAR
STARTCHAR E3AF
ENCODING 58287
SWIDTH 555 0
DWIDTH 8 0
BBX 5 4 2 3
BITMAP
10
E0
F8
18
ENDCHAR
STARTCHAR E3B0
ENCODING 58288
SWIDTH 555 0
DWIDTH 8 0
BBX 5 4 2 3
BITMAP
08
F0
E8
08
ENDCHAR
STARTCHAR E3B1
ENCODING 58289
SWIDTH 555 0
DWIDTH 8 0
BBX 6 4 2 3
BITMAP
10
E0
FC
18
ENDCHAR
STARTCHAR E3B2
ENCODING 58290
SWIDTH 555 0
DWIDTH 8 0
BBX 5 4 2 3
BITMAP
10
E0
F8
18
ENDCHAR
STARTCHAR E3B3
ENCODING 58291
SWIDTH 555 0
DWIDTH 8 0
BBX 5 4 2 3
BITMAP
10
E0
E8
18
ENDCHAR
STARTCHAR E3B4
ENCODING 58292
SWIDTH 555 0
DWIDTH 8 0
BBX 5 4 2 3
BITMAP
10
E0
F8
18
ENDCHAR
STARTCHAR E3B5
ENCODING 58293
SWIDTH 555 0
DWIDTH 8 0
BBX 6 4 2 3
BITMAP
10
E0
FC
18
ENDCHAR
STARTCHAR E3B6
ENCODING 58294
SWIDTH 555 0
DWIDTH 8 0
BBX 5 4 2 3
BITMAP
10
E0
E8
10
ENDCHAR
STARTCHAR E3B7
ENCODING 58295
SWIDTH 555 0
DWIDTH 8 0
BBX 6 4 2 3
BITMAP
10
E0
FC
18
ENDCHAR
STARTCHAR E3B8
ENCODING 58296
SWIDTH 555 0
DWIDTH 8 0
BBX 5 4 2 3
BITMAP
10
E0
F8
08
ENDCHAR
STARTCHAR E3B9
ENCODING 58297
SWIDTH 555 0
DWIDTH 8 0
BBX 7 4 1 3
BITMAP
10
E0
EE
16
ENDCHAR
STARTCHAR E3BA
ENCODING 58298
SWIDTH 555 0
DWIDTH 8 0
BBX 5 4 2 3
BITMAP
10
E0
F8
18
ENDCHAR
STARTCHAR E3BB
ENCODING 58299
SWIDTH 555 0
DWIDTH 8 0
BBX 7 4 1 3
BITMAP
10
E0
EE
16
ENDCHAR
STARTCHAR E3BC
ENCODING 58300
SWIDTH 555 0
DWIDTH 8 0
BBX 7 5 1 3
BITMAP
10
18
6A
C8
50
ENDCHAR
STARTCHAR E3BD
ENCODING 58301
SWIDTH 555 0
DWIDTH 8 0
BBX 5 4 1 3
BITMAP
78
98
E8
F8
ENDCHAR
STARTCHAR E3BE
ENCODING 58302
SWIDTH 555 0
DWIDTH 8 0
BBX 6 3 1 4
BITMAP
50
B4
28
ENDCHAR
STARTCHAR E3BF
ENCODING 58303
SWIDTH 555 0
DWIDTH 8 0
BBX 4 4 2 3
BITMAP
40
60
E0
F0
ENDCHAR
ENDFONT
